<?xml version="1.0" standalone="no"?>
<!DOCTYPE svg PUBLIC "-//W3C//DTD SVG 20010904//EN"
 "http://www.w3.org/TR/2001/REC-SVG-20010904/DTD/svg10.dtd">
<svg version="1.0" xmlns="http://www.w3.org/2000/svg"
 width="1024.000000pt" height="1024.000000pt" viewBox="0 0 1024.000000 1024.000000"
 preserveAspectRatio="xMidYMid meet">
<metadata>
Created by potrace 1.14, written by Peter Selinger 2001-2017
</metadata>
<g transform="translate(0.000000,1024.000000) scale(0.100000,-0.100000)"
fill="#000000" stroke="none">
<path d="M0 9934 l1 -306 114 -148 c64 -83 115 -158 115 -170 0 -11 12 -32 26
-45 15 -14 21 -25 15 -25 -7 0 -9 -5 -6 -10 4 -6 10 -8 15 -5 4 3 20 -16 35
-42 15 -27 34 -55 41 -64 8 -8 19 -51 25 -95 6 -44 16 -82 24 -86 8 -5 15 -40
20 -93 6 -75 9 -85 26 -85 30 0 32 21 10 115 -26 107 -26 112 -1 90 31 -28 51
-96 58 -195 6 -74 11 -95 25 -104 15 -9 21 -7 33 8 18 26 18 60 -2 97 -26 52
-41 129 -25 129 6 0 14 -13 17 -30 4 -16 10 -28 14 -27 4 1 36 -34 71 -79 155
-197 259 -322 293 -352 73 -64 347 -184 453 -197 103 -14 193 21 358 138 194
138 313 239 655 557 299 278 393 375 513 525 173 215 227 340 235 540 3 72 0
150 -8 193 l-12 72 -1569 0 -1569 0 0 -306z m1810 221 c0 -8 -2 -15 -4 -15 -2
0 -6 7 -10 15 -3 8 -1 15 4 15 6 0 10 -7 10 -15z m-87 -75 c3 -11 3 -20 1 -20
-2 0 -8 9 -14 20 -6 11 -7 20 -2 20 6 0 12 -9 15 -20z m-29 -16 c9 -24 7 -27
-9 -10 -17 17 -19 26 -6 26 5 0 12 -7 15 -16z m-20 -36 c-4 -6 -10 -5 -15 3
-14 22 -10 33 6 19 8 -7 12 -17 9 -22z m-33 -10 c11 -21 11 -22 -4 -9 -10 7
-17 17 -17 22 0 15 9 10 21 -13z m-26 -19 c11 -17 -1 -21 -15 -4 -8 9 -8 15
-2 15 6 0 14 -5 17 -11z m-10 -29 c3 -5 1 -10 -4 -10 -6 0 -11 5 -11 10 0 6 2
10 4 10 3 0 8 -4 11 -10z m-31 -16 c5 -14 4 -15 -9 -4 -17 14 -19 20 -6 20 5
0 12 -7 15 -16z m-20 -20 c5 -14 4 -15 -9 -4 -17 14 -19 20 -6 20 5 0 12 -7
15 -16z m-24 -26 c0 -6 -6 -5 -15 2 -8 7 -15 14 -15 16 0 2 7 1 15 -2 8 -4 15
-11 15 -16z m-70 -53 c7 -9 8 -15 2 -15 -5 0 -12 7 -16 15 -3 8 -4 15 -2 15 2
0 9 -7 16 -15z m-15 -25 c3 -5 1 -10 -4 -10 -6 0 -11 5 -11 10 0 6 2 10 4 10
3 0 8 -4 11 -10z m-15 -24 c0 -2 -7 -7 -16 -10 -8 -3 -12 -2 -9 4 6 10 25 14
25 6z m-60 -56 c0 -5 -2 -10 -4 -10 -3 0 -8 5 -11 10 -3 6 -1 10 4 10 6 0 11
-4 11 -10z m-20 -20 c0 -5 -2 -10 -4 -10 -3 0 -8 5 -11 10 -3 6 -1 10 4 10 6
0 11 -4 11 -10z m-51 -44 c-3 -3 -11 5 -18 17 -13 21 -12 21 5 5 10 -10 16
-20 13 -22z m-26 -15 c-4 -4 -11 -10 -15 -14 -3 -5 -12 2 -19 15 -12 22 -11
22 6 8 17 -14 18 -13 12 4 -6 16 -5 17 8 6 9 -7 12 -16 8 -19z m-49 0 c3 -5
-1 -11 -9 -14 -9 -4 -12 -1 -8 9 6 16 10 17 17 5z m-10 -47 c5 -12 2 -12 -15
-3 -19 10 -20 8 -15 -13 3 -12 3 -17 0 -10 -10 21 -27 13 -21 -10 5 -19 5 -20
-10 -6 -14 15 -13 18 8 41 25 25 44 26 53 1z m-84 -39 c0 -8 -2 -15 -4 -15 -2
0 -6 7 -10 15 -3 8 -1 15 4 15 6 0 10 -7 10 -15z m-20 -33 c0 -15 -2 -15 -10
-2 -13 20 -13 33 0 25 6 -3 10 -14 10 -23z m-27 -11 c3 -14 1 -18 -9 -14 -8 3
-14 11 -14 19 0 21 17 17 23 -5z m-773 -46 c19 -19 32 -35 29 -35 -3 0 -20 16
-39 35 -19 19 -32 35 -29 35 3 0 20 -16 39 -35z m750 14 c0 -5 -4 -9 -10 -9
-5 0 -10 7 -10 16 0 8 5 12 10 9 6 -3 10 -10 10 -16z m-20 -31 c0 -6 -7 -5
-15 2 -8 7 -15 17 -15 22 0 6 7 5 15 -2 8 -7 15 -17 15 -22z m-30 -13 c0 -8
-4 -17 -10 -20 -6 -4 -10 5 -10 20 0 15 4 24 10 20 6 -3 10 -12 10 -20z m416
-6 c19 -22 19 -22 -3 -8 -13 8 -23 17 -23 21 0 12 6 9 26 -13z m-482 -33 c-3
-9 -10 -16 -15 -16 -6 0 -5 9 1 21 13 24 24 20 14 -5z m64 -83 c57 -112 84
-193 80 -239 -3 -38 -4 -39 -47 -42 -24 -2 -47 0 -52 5 -5 5 -13 50 -19 100
-5 51 -15 104 -22 118 -9 20 -8 28 5 43 19 20 23 62 7 62 -6 0 -16 -11 -22
-25 -8 -19 -14 -22 -20 -13 -18 29 2 59 44 67 4 0 24 -34 46 -76z m416 52 c18
-28 11 -32 -18 -10 -10 7 -15 18 -11 24 9 15 11 14 29 -14z m-34 -45 c0 -5 -5
-10 -11 -10 -5 0 -7 5 -4 10 3 6 8 10 11 10 2 0 4 -4 4 -10z m75 -10 c15 -17
16 -20 3 -20 -9 0 -18 9 -21 20 -3 11 -4 20 -3 20 2 0 11 -9 21 -20z m21 -176
c-65 -63 -122 -114 -127 -114 -6 0 43 51 108 114 l118 113 -33 37 c-46 53 -39
58 11 8 l42 -43 -119 -115z m-56 146 c0 -5 -5 -10 -11 -10 -5 0 -7 5 -4 10 3
6 8 10 11 10 2 0 4 -4 4 -10z m90 -33 c0 -1 -28 -29 -62 -62 l-61 -60 53 63
c44 52 70 74 70 59z m-153 -24 c-14 -14 -19 -15 -29 -4 -11 10 -10 11 5 6 10
-4 17 -2 17 4 0 6 5 11 12 11 8 0 6 -6 -5 -17z m-54 -24 c-6 -6 -9 -19 -6 -28
5 -13 3 -14 -7 -4 -11 10 -11 15 0 28 7 8 15 15 18 15 3 0 1 -5 -5 -11z m-173
-28 c0 -4 37 -50 82 -100 59 -67 87 -91 100 -88 10 3 16 1 12 -4 -13 -22 -43
-5 -94 54 -81 91 -123 147 -111 147 6 0 11 -4 11 -9z m125 -22 c11 -17 -1 -21
-15 -4 -8 9 -8 15 -2 15 6 0 14 -5 17 -11z m115 -44 c-7 -8 -16 -15 -21 -15
-5 0 -1 8 9 18 20 22 31 19 12 -3z m-983 -37 c-3 -8 -6 -5 -6 6 -1 11 2 17 5
13 3 -3 4 -12 1 -19z m943 8 c0 -2 -8 -10 -17 -17 -16 -13 -17 -12 -4 4 13 16
21 21 21 13z m-760 -122 c0 -4 -22 14 -50 41 -27 27 -50 55 -50 62 0 6 23 -12
50 -41 28 -29 50 -57 50 -62z m31 69 c13 -15 12 -15 -8 -4 -24 12 -29 21 -14
21 5 0 15 -7 22 -17z"/>
<path d="M960 9320 c-12 -7 -12 -12 -2 -22 9 -9 15 -9 24 0 16 16 -2 34 -22
22z"/>
<path d="M1030 9166 c-18 -23 -8 -61 18 -64 18 -3 22 1 22 21 0 52 -17 70 -40
43z"/>
<path d="M4618 9883 c196 -197 360 -357 364 -355 5 1 7 -4 5 -11 -1 -6 5 -11
13 -9 8 2 12 0 8 -4 -11 -10 121 -153 148 -160 26 -7 52 7 121 64 23 20 39 40
36 45 -3 6 -1 7 5 4 9 -6 232 166 232 180 0 2 -24 -14 -52 -37 l-53 -42 50 45
c27 25 53 43 57 41 5 -3 40 21 78 52 68 56 84 72 58 59 -7 -4 -2 3 12 14 14
11 30 21 37 21 6 0 38 26 70 58 32 31 92 86 133 122 41 36 79 71 83 77 4 7 13
13 18 13 6 0 7 -5 3 -12 -4 -7 -3 -8 5 -4 6 4 9 11 6 16 -3 5 7 20 22 34 16
13 58 52 95 85 38 34 60 61 52 61 -9 0 -48 -28 -87 -62 -38 -35 -107 -92 -153
-128 -167 -131 -309 -246 -364 -295 -31 -27 -89 -78 -130 -111 -41 -34 -127
-105 -190 -158 -67 -56 -124 -96 -137 -96 -15 0 -65 47 -164 153 -79 83 -263
275 -410 425 -236 241 -270 272 -297 272 -29 0 -5 -26 326 -357z"/>
<path d="M4380 10205 c19 -19 35 -35 36 -35 1 0 21 16 44 35 l42 35 -78 0 -78
0 34 -35z"/>
<path d="M4482 10202 c-23 -20 -42 -42 -42 -47 0 -6 35 -46 79 -89 74 -73 80
-77 102 -65 24 12 190 145 258 206 l36 32 -195 0 -195 0 -43 -37z m146 -70 c2
-7 -2 -10 -12 -6 -9 3 -16 11 -16 16 0 13 23 5 28 -10z"/>
<path d="M4854 10163 c-55 -43 -132 -105 -171 -138 l-72 -60 122 -122 c67 -68
125 -123 129 -123 4 0 47 34 95 77 48 42 155 130 236 195 l148 120 -54 61 -55
62 -139 3 -139 3 -100 -78z"/>
<path d="M5282 10208 c14 -18 37 -41 51 -52 l26 -19 38 26 c21 15 52 38 68 52
l30 24 -119 1 -119 0 25 -32z"/>
<path d="M5510 10223 c-14 -9 -50 -37 -80 -62 -30 -25 -57 -46 -59 -48 -4 -2
228 -256 261 -285 24 -21 27 -20 151 86 l77 67 -116 129 -116 130 -47 0 c-27
0 -57 -7 -71 -17z m195 -253 c3 -5 1 -10 -4 -10 -6 0 -11 5 -11 10 0 6 2 10 4
10 3 0 8 -4 11 -10z"/>
<path d="M5660 10235 c0 -8 188 -207 209 -222 17 -11 29 -5 109 57 50 38 93
73 96 78 3 5 -8 28 -25 50 l-31 42 -179 0 c-98 0 -179 -2 -179 -5z m260 -105
c-20 -13 -33 -13 -25 0 3 6 14 10 23 10 15 0 15 -2 2 -10z"/>
<path d="M6050 10232 c0 -9 43 -52 52 -52 3 0 22 14 43 30 l38 30 -67 0 c-36
0 -66 -4 -66 -8z"/>
<path d="M6240 10222 c-9 -9 -40 -39 -70 -65 -30 -27 -46 -44 -35 -38 11 5 45
30 75 56 76 65 76 65 60 64 -8 0 -22 -8 -30 -17z"/>
<path d="M6396 10199 c-34 -30 -46 -48 -46 -69 0 -24 170 -198 1158 -1187 758
-760 1168 -1164 1190 -1173 70 -27 85 -16 438 331 180 176 485 472 678 658
193 187 368 357 389 378 l38 40 -3 101 -3 101 -143 -136 c-139 -132 -143 -135
-162 -118 -25 22 -34 14 -36 -29 -1 -43 -31 -80 -152 -193 -55 -51 -141 -133
-191 -183 -51 -49 -96 -90 -100 -90 -5 0 -11 -8 -14 -19 -2 -10 -40 -47 -82
-82 -43 -35 -92 -79 -109 -98 -83 -92 -189 -190 -199 -184 -5 3 -7 2 -4 -4 3
-5 -8 -24 -26 -41 l-33 -32 -41 69 c-43 71 -46 80 -44 119 1 24 31 31 31 7 0
-8 4 -15 10 -15 5 0 28 -19 50 -42 l42 -43 -43 64 c-43 66 -139 260 -139 283
0 7 -10 33 -21 58 -11 25 -27 76 -34 113 -12 64 -12 69 6 80 10 6 19 17 19 23
0 6 15 15 33 19 l32 8 -34 6 c-37 7 -54 -4 229 142 122 63 216 95 337 116 80
13 106 14 164 3 38 -6 69 -16 69 -21 0 -5 -4 -9 -9 -9 -12 0 -22 -43 -12 -53
4 -4 0 -24 -10 -44 -10 -20 -16 -40 -13 -44 3 -5 0 -9 -5 -9 -6 0 -11 -10 -11
-23 0 -13 -5 -28 -12 -35 -9 -9 -9 -15 0 -24 8 -8 7 -20 -4 -46 l-14 -35 22
18 c13 11 77 72 143 136 66 64 130 121 142 128 12 6 30 27 39 46 15 33 145
159 277 269 l57 48 0 380 0 380 -167 -4 c-140 -2 -174 -6 -206 -22 -28 -14
-35 -21 -25 -27 10 -7 8 -9 -6 -9 -11 0 -17 -2 -14 -5 3 -3 44 -1 92 5 47 6
97 8 110 4 24 -6 24 -7 10 -29 -10 -15 -39 -29 -90 -45 -41 -12 -74 -23 -72
-25 2 -2 35 3 73 11 128 25 161 12 82 -31 -20 -11 -37 -25 -37 -31 0 -5 -10
-21 -22 -34 -13 -14 -22 -28 -20 -33 1 -4 -8 -22 -21 -40 -13 -18 -34 -52 -46
-77 -41 -84 -94 -144 -176 -199 -99 -67 -185 -133 -185 -142 0 -5 7 -9 15 -9
8 0 15 5 15 11 0 6 7 9 15 5 8 -3 15 -1 15 5 0 6 4 8 10 4 5 -3 33 8 62 24 29
17 69 37 89 45 33 14 36 13 36 -2 0 -9 -7 -25 -15 -35 -14 -16 -13 -17 19 -10
67 13 74 11 71 -22 -4 -32 -22 -66 -86 -162 -36 -55 -46 -63 -81 -68 -190 -30
-245 -41 -346 -75 -128 -42 -182 -68 -339 -159 -58 -34 -108 -61 -111 -61 -14
0 15 94 64 210 5 14 10 28 9 32 -3 13 87 211 126 276 89 151 93 180 7 46 -57
-88 -125 -215 -125 -234 0 -13 -124 -236 -181 -325 l-43 -67 -19 24 c-10 12
-47 52 -81 88 -82 84 -165 180 -178 205 -6 11 -7 17 -3 13 9 -8 41 13 100 67
22 20 54 43 72 50 17 8 41 30 52 49 12 19 25 36 29 38 4 2 23 30 41 63 19 33
52 83 74 110 l40 50 -53 -55 c-176 -183 -223 -229 -297 -286 -45 -35 -86 -64
-91 -64 -5 0 -25 19 -45 43 -19 23 -110 125 -201 227 -92 102 -176 197 -186
211 l-19 26 54 27 c29 15 93 43 142 61 48 19 85 34 81 35 -4 0 -46 -9 -93 -20
-48 -11 -91 -17 -96 -14 -6 3 -17 -2 -24 -12 -8 -11 -15 -14 -15 -7 0 18 83
81 258 196 83 55 152 104 152 108 0 5 -17 -1 -37 -14 -21 -13 -44 -22 -52 -19
-8 2 -11 1 -8 -4 6 -11 -34 -11 -51 0 -7 4 -12 2 -12 -3 0 -11 14 -15 35 -12
6 1 -1 -7 -15 -18 -20 -16 -28 -17 -40 -8 -13 10 -13 10 -2 -5 11 -14 10 -18
-7 -28 -12 -6 -21 -8 -21 -5 0 4 -7 -1 -16 -10 -14 -13 -19 -14 -25 -3 -7 10
-9 10 -9 -1 0 -8 -3 -11 -6 -8 -4 4 -1 13 6 22 7 8 9 15 6 15 -4 0 -1 7 8 15
8 8 17 15 20 15 2 0 19 13 37 29 17 16 37 27 43 25 7 -3 21 4 31 16 10 11 24
20 32 20 7 0 13 5 13 11 0 5 4 8 8 5 4 -2 8 4 8 15 0 17 -8 19 -96 19 -95 0
-97 -1 -136 -33 -73 -62 -316 -237 -329 -237 -7 0 -66 61 -131 135 l-119 135
-566 0 -566 0 -47 -41z m1085 -271 c8 -15 -4 -24 -83 -62 -142 -68 -320 -125
-400 -127 -61 -2 -98 9 -98 30 0 3 30 14 66 24 66 17 361 149 419 187 l30 19
28 -27 c16 -15 33 -35 38 -44z m416 14 c-14 -13 -30 -21 -36 -18 -18 11 -13
26 9 26 11 0 20 4 20 8 0 5 7 9 16 9 11 0 9 -6 -9 -25z m-357 -76 c19 -24 68
-80 109 -125 53 -59 68 -81 55 -81 -11 0 -34 -9 -51 -20 -31 -19 -113 -52
-308 -126 -140 -52 -142 -52 -281 85 l-119 116 65 7 c96 9 318 90 435 157 28
16 52 29 55 29 3 1 21 -18 40 -42z m347 -378 c81 -90 234 -255 338 -368 293
-316 305 -330 302 -358 -1 -14 -27 -53 -62 -91 -82 -91 -230 -231 -243 -231
-11 0 -1004 993 -1010 1009 -1 5 26 14 60 20 106 20 248 69 358 125 58 29 106
53 107 54 0 1 68 -71 150 -160z m933 -477 c-29 -42 -36 -39 -8 3 13 19 24 33
26 31 3 -2 -6 -18 -18 -34z m-60 -279 c5 -21 12 -92 15 -158 5 -102 3 -128
-14 -184 l-21 -65 4 58 c2 31 0 59 -4 62 -7 4 -86 -176 -102 -233 -17 -60 -19
-27 -3 54 19 100 19 104 -6 74 l-20 -25 6 40 c4 22 18 77 32 123 24 76 25 117
3 82 -8 -12 -10 -12 -10 -1 0 11 -3 11 -17 0 -15 -13 -14 -11 1 19 10 19 18
45 19 58 1 14 24 48 52 79 28 30 51 54 52 54 1 1 7 -16 13 -37z m-171 -29
c-30 -39 -69 -83 -69 -78 0 9 24 49 44 73 23 26 45 30 25 5z m-143 -364 c-9
-18 -16 -38 -16 -46 0 -8 -4 -12 -9 -8 -5 3 -11 -3 -14 -12 -4 -17 -4 -17 -11
-1 -5 11 3 31 26 61 38 51 48 53 24 6z"/>
<path d="M7520 9810 c-29 -23 -25 -24 18 -9 18 6 29 15 26 20 -8 13 -16 11
-44 -11z"/>
<path d="M7135 9632 c-38 -14 -63 -28 -54 -30 9 -2 45 10 80 27 80 37 66 38
-26 3z"/>
<path d="M8494 8728 l-19 -23 23 19 c21 18 27 26 19 26 -2 0 -12 -10 -23 -22z"/>
<path d="M8647 8593 c-4 -3 -7 -11 -7 -17 0 -6 5 -5 12 2 6 6 9 14 7 17 -3 3
-9 2 -12 -2z"/>
<path d="M7745 10204 c-27 -18 -55 -34 -62 -34 -6 0 -15 -5 -18 -10 -11 -19
95 2 125 24 13 10 13 9 1 -6 -7 -10 -19 -18 -25 -18 -16 -1 -74 -50 -58 -50
20 0 69 28 146 82 l69 48 -64 -1 c-56 0 -70 -4 -114 -35z"/>
<path d="M9105 10220 c-4 -11 -17 -28 -31 -36 -13 -9 -21 -21 -18 -26 3 -5 -5
-21 -17 -35 -56 -60 -245 -116 -499 -148 -74 -9 -136 -18 -137 -19 -4 -3 380
4 504 10 l122 6 29 76 c43 112 65 183 59 188 -3 3 -8 -4 -12 -16z"/>
<path d="M9688 10171 c-37 -25 -70 -50 -75 -55 -11 -13 65 32 106 63 19 14 44
24 57 23 12 -2 24 1 27 5 3 5 -7 9 -21 9 -16 0 -54 -18 -94 -45z"/>
<path d="M8366 10171 c-4 -7 -5 -15 -2 -18 9 -9 19 4 14 18 -4 11 -6 11 -12 0z"/>
<path d="M5237 10004 c-59 -47 -107 -89 -107 -93 0 -5 61 -77 136 -160 l136
-152 37 28 c96 73 181 149 181 164 0 15 -254 299 -268 299 -4 0 -55 -39 -115
-86z"/>
<path d="M9405 10009 c-17 -7 -18 -8 -2 -8 16 -1 16 -3 3 -29 -8 -16 -41 -50
-73 -77 -65 -54 -73 -61 -198 -206 -128 -147 -356 -439 -342 -439 2 0 41 47
86 105 45 58 84 105 87 105 2 0 -3 -14 -11 -31 -20 -37 -11 -52 11 -21 9 13
27 34 40 47 13 13 24 26 24 29 0 2 30 52 66 111 59 95 113 154 134 148 4 -1
36 30 71 70 35 40 69 78 76 85 7 7 13 17 13 22 0 5 12 22 26 39 29 35 23 64
-11 50z m-122 -194 c-36 -44 -43 -50 -43 -40 0 6 71 85 77 85 2 0 -13 -20 -34
-45z"/>
<path d="M8358 9943 c6 -2 18 -2 25 0 6 3 1 5 -13 5 -14 0 -19 -2 -12 -5z"/>
<path d="M8318 9933 c7 -3 16 -2 19 1 4 3 -2 6 -13 5 -11 0 -14 -3 -6 -6z"/>
<path d="M8278 9923 c7 -3 16 -2 19 1 4 3 -2 6 -13 5 -11 0 -14 -3 -6 -6z"/>
<path d="M5040 9843 c-30 -25 -78 -69 -107 -96 l-52 -50 25 -31 c63 -76 247
-266 258 -266 6 0 60 41 119 91 l107 91 -67 77 c-78 88 -215 231 -223 231 -3
0 -30 -21 -60 -47z m120 -303 c0 -5 -4 -10 -10 -10 -5 0 -10 5 -10 10 0 6 5
10 10 10 6 0 10 -4 10 -10z"/>
<path d="M5980 9228 c-14 -6 -106 -47 -205 -91 -99 -43 -195 -85 -212 -93 -44
-18 -88 -82 -115 -165 -12 -38 -24 -69 -27 -69 -4 0 -35 41 -69 90 -74 105
-87 109 -180 60 -31 -16 -127 -63 -212 -104 -85 -41 -163 -82 -172 -89 -17
-13 -14 -20 33 -98 78 -128 331 -643 363 -739 72 -214 15 -393 -165 -519 -85
-60 -226 -133 -509 -264 -113 -52 -287 -135 -386 -185 -204 -102 -261 -122
-350 -122 -136 0 -232 66 -352 243 -74 110 -262 424 -357 600 -51 93 -62 107
-80 102 -11 -3 -50 -12 -87 -20 -63 -14 -138 -50 -153 -75 -4 -6 -27 -20 -51
-32 -24 -11 -58 -33 -76 -49 l-31 -29 5 -104 c4 -80 2 -103 -8 -99 -18 7 -76
-26 -197 -110 -189 -132 -326 -239 -332 -257 -3 -9 11 -82 30 -161 67 -268 81
-493 49 -780 -21 -194 -17 -265 19 -313 32 -41 115 -93 165 -102 53 -10 38
-27 -19 -22 l-51 5 6 -36 c4 -20 10 -54 13 -76 3 -25 17 -52 36 -72 34 -37 62
-44 52 -14 -14 44 -5 160 19 255 47 184 108 279 241 376 82 60 89 71 104 185
19 134 12 260 -18 313 -5 9 -5 25 1 37 7 16 3 67 -16 181 -14 87 -30 199 -37
247 -11 86 -10 89 12 113 28 30 30 27 65 -86 49 -159 173 -381 303 -542 69
-86 190 -183 288 -231 47 -24 62 -35 57 -47 -20 -46 -15 -66 39 -147 50 -76
54 -86 50 -127 -5 -42 -3 -48 36 -86 42 -41 48 -54 32 -64 -11 -7 -20 -66 -11
-66 14 0 60 49 60 64 0 7 -15 37 -34 65 l-34 50 44 17 c25 9 47 14 50 11 8 -7
7 -65 -2 -97 -3 -14 -8 -40 -11 -58 -4 -26 -14 -37 -44 -52 -21 -11 -43 -29
-49 -39 -12 -23 -14 -63 -2 -44 10 16 151 67 247 89 90 20 106 29 98 51 -4 11
-2 14 5 9 7 -4 12 -31 12 -63 0 -38 5 -62 17 -75 20 -22 11 -24 -11 -2 -15 14
-18 13 -31 -20 -8 -19 -15 -42 -15 -51 0 -27 27 -69 59 -92 36 -27 45 -29 37
-7 -3 8 -2 12 4 9 14 -9 12 -55 -2 -59 -7 -2 -51 -13 -98 -24 -96 -22 -250
-79 -250 -92 0 -5 6 -15 13 -22 7 -7 26 -40 41 -73 16 -33 30 -61 31 -63 5 -5
260 80 283 94 23 15 31 4 10 -13 -11 -9 -124 -46 -255 -84 -39 -11 -41 -13
-32 -38 6 -14 16 -33 23 -41 18 -21 67 -160 120 -339 26 -89 57 -170 72 -192
27 -39 149 -401 180 -533 9 -39 23 -76 31 -82 11 -10 10 -13 -8 -17 -16 -4
-20 -10 -14 -24 28 -66 66 -209 89 -333 15 -80 32 -158 38 -175 6 -16 14 -75
17 -130 l6 -100 43 -13 c41 -13 45 -13 123 24 44 21 89 48 99 61 l18 23 37
-45 c21 -24 41 -42 45 -40 10 6 100 -155 100 -178 0 -11 -20 -30 -50 -49 -86
-53 -60 -47 37 9 l42 25 -84 161 c-85 163 -93 194 -61 222 6 6 13 19 14 30 2
11 7 24 12 28 4 5 4 23 0 40 -4 18 -8 68 -9 112 -2 97 -21 138 -139 303 -44
62 -88 133 -97 156 -15 39 -15 47 -2 72 18 35 59 75 126 123 207 148 321 234
321 240 0 14 -125 128 -174 159 l-48 31 24 14 c26 15 228 125 418 227 69 37
258 136 420 220 162 84 376 197 475 250 99 54 253 134 343 179 174 86 214 96
272 66 32 -17 73 -69 75 -96 2 -18 72 -125 107 -163 10 -11 18 -25 18 -32 0
-7 4 -14 8 -16 4 -1 19 -21 32 -43 14 -22 35 -52 49 -67 13 -15 38 -48 55 -73
17 -25 76 -107 132 -183 55 -75 121 -168 145 -207 53 -86 108 -165 128 -186 9
-9 25 -29 36 -45 11 -16 40 -49 63 -74 59 -61 77 -95 60 -116 -30 -37 -68 -69
-153 -130 -49 -35 -99 -70 -110 -78 -11 -8 -72 -49 -135 -92 -95 -64 -206
-143 -255 -182 -5 -4 -39 -27 -75 -51 -36 -24 -87 -61 -115 -83 -27 -21 -115
-82 -195 -133 -80 -52 -149 -98 -155 -103 -5 -4 -41 -29 -80 -54 -210 -141
-273 -187 -268 -192 4 -3 0 -6 -7 -6 -8 0 -23 -9 -34 -19 -20 -18 -242 -170
-416 -284 -41 -27 -80 -55 -85 -61 -6 -6 -25 -22 -43 -34 l-34 -24 -25 24
c-14 12 -48 53 -75 91 -59 78 -74 89 -27 20 57 -86 130 -153 204 -189 61 -30
79 -34 148 -34 43 0 124 9 179 20 172 35 276 82 558 251 210 126 466 277 650
383 245 142 506 321 596 410 110 109 140 168 138 281 -2 80 -37 224 -69 284
-24 44 -17 3 17 -93 42 -121 46 -245 10 -318 -27 -55 -95 -133 -155 -179 -34
-27 -31 -21 20 32 119 122 139 168 129 303 -3 50 -13 116 -22 146 -8 30 -22
79 -30 109 -24 85 -84 217 -182 398 -166 308 -204 393 -169 380 6 -2 11 -9 10
-15 -4 -16 35 -45 52 -39 21 9 15 34 -23 95 -17 29 -30 52 -28 52 13 0 310
-439 302 -447 -2 -3 -11 4 -18 16 -17 27 -20 27 -70 -9 -22 -17 -37 -30 -32
-30 5 0 19 7 31 15 19 14 22 12 45 -23 52 -78 103 -199 172 -405 33 -97 37
-121 38 -220 1 -95 -2 -121 -21 -170 -28 -71 -121 -189 -211 -267 -115 -98
-428 -314 -553 -380 -26 -14 -47 -29 -47 -33 0 -5 5 -5 10 -2 6 3 10 1 10 -5
0 -7 -7 -9 -16 -6 -19 7 -47 -12 -38 -25 3 -5 2 -8 -3 -7 -4 1 -26 -9 -48 -23
-22 -15 -65 -39 -95 -54 -70 -35 -153 -84 -257 -152 -46 -29 -89 -53 -97 -53
-8 0 -17 -6 -19 -12 -4 -10 -6 -10 -6 -1 -1 7 17 22 40 33 23 12 39 23 37 26
-3 2 -76 -36 -163 -85 -186 -105 -379 -185 -485 -201 -41 -7 -79 -16 -85 -21
-11 -11 -8 -11 79 1 71 11 99 19 221 64 l70 26 -30 -24 c-16 -14 -33 -25 -37
-26 -5 0 -8 -5 -8 -11 0 -5 5 -7 10 -4 24 15 7 -27 -24 -59 -18 -20 -31 -36
-27 -36 16 -1 -280 -125 -432 -181 -84 -30 -301 -79 -354 -79 -27 0 -32 5 -48
48 -20 54 -202 412 -217 427 -5 6 29 -67 76 -162 91 -183 136 -311 113 -325
-23 -15 -51 -3 -75 32 -13 19 -31 35 -40 35 -9 0 -20 4 -23 9 -9 11 -29 -1
-29 -17 0 -7 14 -21 30 -31 17 -9 28 -22 24 -27 -4 -6 -14 -2 -25 10 -11 11
-38 25 -62 31 -74 20 -150 50 -232 94 -88 46 -92 47 -230 23 -49 -9 -117 -19
-150 -22 -33 -3 -76 -9 -95 -14 -34 -9 -34 -9 15 -10 58 -1 228 23 300 43 48
13 50 12 68 -11 23 -29 19 -94 -9 -124 -20 -22 -21 -20 31 -47 22 -11 85 -58
140 -104 219 -181 620 -468 655 -468 9 0 52 -33 96 -73 94 -87 190 -142 339
-194 106 -37 114 -38 231 -36 273 5 451 71 1109 411 317 164 417 222 620 360
461 314 582 407 760 588 131 132 214 240 268 349 64 126 69 161 74 461 6 310
-4 388 -62 524 -28 65 -32 84 -23 99 8 14 6 44 -13 131 l-24 113 -60 39 c-33
21 -66 36 -72 33 -9 -3 -13 7 -13 30 0 56 -35 48 -87 -20 -24 -30 -43 -60 -43
-65 0 -6 -3 -10 -7 -10 -5 0 -23 -19 -42 -42 -33 -39 -76 -142 -66 -158 2 -4
-4 -15 -14 -24 -18 -16 -18 -15 -11 23 4 21 17 59 29 83 20 38 95 145 111 158
15 12 53 74 55 89 3 31 28 111 35 116 4 3 11 -3 14 -12 6 -14 10 -11 26 15 11
18 23 32 27 32 5 0 14 9 21 20 10 16 10 20 0 18 -7 -2 -16 -9 -19 -17 -4 -10
-8 -11 -12 -4 -4 6 0 18 8 26 8 9 15 20 15 26 0 11 4 22 34 78 l17 32 -53 -18
c-29 -10 -77 -31 -106 -46 -42 -22 -51 -31 -46 -47 3 -10 0 -25 -6 -33 -7 -8
-10 -22 -6 -30 3 -9 2 -13 -3 -10 -20 12 -31 -38 -32 -153 -1 -54 -3 -61 -16
-50 -8 6 -13 22 -10 35 3 18 0 23 -16 23 -23 0 -152 130 -140 140 67 58 182
130 265 166 114 50 308 161 308 176 0 5 -6 7 -12 4 -7 -3 -21 -9 -31 -12 -10
-4 -48 -22 -85 -41 -37 -19 -103 -53 -147 -75 -100 -51 -193 -111 -266 -170
l-57 -46 -99 121 c-138 168 -277 355 -298 399 -9 20 -50 72 -91 116 -87 93
-179 205 -200 245 -15 27 -14 27 14 25 16 -1 41 6 56 15 46 30 44 79 -6 134
-28 31 -18 51 64 124 86 76 336 345 351 376 8 18 6 31 -9 58 -10 19 -22 35
-26 35 -4 0 -14 14 -23 30 -18 35 -31 38 -40 10 -6 -19 -7 -19 -23 -3 -48 47
-167 70 -235 44 -16 -6 -26 -7 -23 -2 3 4 33 16 67 25 33 10 58 20 55 23 -7 7
-127 -24 -184 -48 -23 -10 -45 -25 -48 -34 -4 -8 -11 -15 -16 -15 -6 0 -8 7
-4 15 8 23 -5 80 -15 63 -5 -7 -9 -23 -9 -35 0 -31 -32 -46 -72 -35 l-33 9 38
8 c22 4 37 13 37 22 0 8 -4 12 -9 9 -10 -6 -36 21 -36 38 0 20 -89 263 -100
274 -2 2 -14 -3 -27 -11 -38 -25 -68 -30 -68 -14 0 9 -4 17 -9 19 -5 2 -31 48
-59 103 -28 55 -61 115 -73 134 l-22 33 21 -13 c19 -12 24 -11 43 7 21 21 21
22 3 83 -16 60 -16 65 4 149 33 138 47 258 31 267 -20 13 -57 -132 -74 -284
-5 -52 -15 -83 -15 -48 0 9 -5 19 -11 23 -8 4 -9 -1 -4 -17 6 -21 5 -22 -8 -9
-30 31 -59 133 -62 223 -3 75 -8 98 -33 150 -52 104 -172 279 -234 338 l-59
56 32 7 c92 18 134 2 225 -86 34 -32 68 -58 75 -56 8 2 13 -4 13 -14 -1 -10 2
-15 7 -12 5 3 13 -6 18 -19 10 -26 119 -127 137 -127 11 0 -9 128 -35 226 -5
21 -11 66 -12 99 -3 77 -16 102 -76 145 -63 45 -297 274 -383 375 -102 121
-172 218 -331 460 -173 263 -192 282 -259 253z m-292 -736 c20 -10 82 -44 137
-77 302 -177 391 -231 448 -273 74 -54 237 -202 237 -215 0 -5 -21 3 -46 17
l-46 25 -104 -70 c-87 -58 -103 -73 -93 -85 13 -16 23 -19 15 -5 -8 12 77 84
132 113 l43 23 26 -30 c81 -97 325 -492 391 -635 19 -41 64 -123 99 -182 85
-141 103 -192 108 -295 2 -45 0 -83 -5 -83 -9 0 -28 -43 -35 -77 -2 -13 -8
-30 -13 -40 -9 -15 -12 -14 -34 10 -35 38 -65 84 -145 227 -211 377 -201 355
-196 436 5 92 -8 117 -67 124 -44 5 -44 5 -114 117 -74 117 -127 189 -106 145
10 -21 6 -29 -39 -77 l-51 -53 -68 86 c-38 48 -89 114 -114 147 -25 34 -54 67
-64 75 -31 26 -83 117 -110 192 -40 110 -95 224 -152 316 -29 45 -49 82 -44
82 9 0 65 -58 108 -112 16 -20 61 -65 99 -99 l70 -63 -50 55 c-27 30 -70 79
-95 109 -24 30 -75 85 -112 123 -70 70 -72 79 -10 49z m411 -809 c39 -54 87
-115 106 -137 37 -40 49 -96 20 -96 -19 0 -193 63 -243 89 l-40 20 -4 148 c-2
82 -8 157 -12 168 -14 35 101 -92 173 -192z m557 145 c4 -7 3 -8 -4 -4 -19 11
-14 -9 8 -35 18 -22 30 -15 13 7 -5 5 2 -2 15 -16 46 -49 62 -82 65 -132 1 -9
6 -14 11 -11 5 4 7 -1 3 -11 -4 -10 -3 -15 3 -11 6 3 10 4 10 1 0 -2 3 -12 7
-22 5 -13 3 -15 -8 -10 -8 4 -5 0 5 -8 19 -16 19 -16 -2 -16 -25 0 -57 43 -46
61 4 7 3 9 -3 6 -10 -6 -93 113 -93 132 0 5 -7 14 -15 21 -8 7 -15 17 -15 22
0 6 7 5 15 -2 9 -8 15 -9 15 -2 0 6 -5 14 -11 18 -8 4 -7 9 2 15 18 11 17 11
25 -3z m-266 -273 c24 -38 87 -153 140 -255 98 -187 129 -243 235 -425 32 -55
67 -116 78 -135 87 -156 225 -272 387 -325 30 -10 49 -20 42 -23 -26 -8 -104
22 -193 74 -50 30 -92 54 -94 54 -1 0 2 -22 8 -50 5 -27 12 -49 16 -48 14 3
82 -34 87 -47 3 -8 15 -17 26 -21 11 -3 17 -8 14 -12 -3 -3 0 -12 8 -21 8 -9
16 -29 18 -46 1 -16 7 -33 13 -37 7 -5 7 -11 0 -15 -5 -5 -11 -24 -11 -43 -3
-74 -4 -81 -21 -87 -9 -4 -18 -2 -21 5 -2 6 -10 8 -18 5 -7 -3 -11 -10 -8 -17
3 -6 -18 14 -47 44 -64 68 -49 36 20 -43 51 -58 56 -81 20 -90 -28 -7 -35 -36
-15 -66 9 -14 30 -53 45 -87 16 -33 43 -82 60 -109 57 -90 32 -70 -38 31 -222
317 -362 527 -390 582 -12 24 -38 89 -57 145 -20 57 -53 127 -75 159 -21 31
-39 61 -39 67 0 16 -15 14 -30 -4 -16 -20 -26 -12 -54 43 -14 26 -59 85 -101
132 -42 47 -84 96 -93 110 -9 14 -29 42 -45 62 -36 46 -43 113 -22 208 8 36
17 92 21 124 l6 59 64 -99 c36 -54 105 -175 154 -269 90 -174 221 -403 253
-446 20 -26 10 -7 -164 311 -116 213 -275 491 -309 541 -13 18 -15 30 -8 42 8
16 91 98 94 94 1 -1 21 -33 44 -72z m183 -227 c-13 -12 -25 -19 -29 -15 -10
10 16 37 34 37 13 0 12 -4 -5 -22z m-3932 -121 c-8 -8 -11 -3 -11 19 1 25 2
27 11 11 8 -14 8 -22 0 -30z m4260 19 c-15 -17 -4 -46 15 -39 16 6 18 -5 5
-25 -6 -10 -14 -4 -30 24 -18 29 -19 39 -9 45 20 13 32 10 19 -5z m-4241 -30
c0 -2 -8 -10 -17 -17 -16 -13 -17 -12 -4 4 13 16 21 21 21 13z m3527 -131 c9
-25 -4 -29 -17 -6 -7 15 -7 21 0 21 6 0 13 -7 17 -15z m843 11 c0 -3 -4 -8
-10 -11 -5 -3 -10 -1 -10 4 0 6 5 11 10 11 6 0 10 -2 10 -4z m-1075 -235 c-3
-12 -11 -19 -16 -16 -5 4 -5 14 2 26 13 26 23 18 14 -10z m119 -196 c48 -73
215 -275 229 -276 7 0 -3 -5 -22 -12 -51 -18 -55 -42 -6 -34 21 4 42 11 45 18
15 24 134 -113 300 -346 161 -226 170 -240 148 -246 -35 -10 -48 -10 -48 1 0
6 12 11 28 11 20 1 22 2 7 6 -11 3 -25 9 -30 14 -19 15 -95 23 -95 10 0 -6
-29 13 -65 44 -103 87 -172 118 -278 123 -65 3 -106 0 -155 -13 -83 -23 -271
-101 -463 -193 l-147 -70 5 42 c5 55 -3 98 -25 122 -10 10 -38 46 -62 79 -24
33 -69 87 -100 121 -44 48 -63 79 -89 149 -58 153 -53 203 26 240 202 95 329
160 379 193 32 21 78 50 101 63 22 13 69 45 103 72 l62 47 60 -57 c33 -32 75
-80 92 -108z m-95 152 c6 -8 8 -17 4 -20 -7 -8 -33 11 -33 24 0 13 16 11 29
-4z m511 -72 c0 -5 -5 -3 -10 5 -5 8 -10 20 -10 25 0 6 5 3 10 -5 5 -8 10 -19
10 -25z m-320 6 c0 -6 -4 -13 -10 -16 -5 -3 -10 1 -10 9 0 9 5 16 10 16 6 0
10 -4 10 -9z m1010 -102 c12 -23 20 -43 18 -45 -3 -2 -14 17 -26 41 -27 56
-20 60 8 4z m-986 -62 l39 -52 -37 35 c-39 36 -63 70 -49 69 4 0 26 -24 47
-52z m-1249 -524 c48 -99 53 -115 44 -142 -19 -53 14 -85 111 -111 25 -6 65
-24 90 -40 65 -41 94 -46 119 -21 25 25 26 49 6 98 -15 35 -15 37 12 65 33 34
37 35 51 3 13 -28 8 -50 -18 -80 -10 -11 -20 -34 -23 -52 -5 -27 -2 -35 22
-53 16 -11 33 -20 39 -20 5 0 15 -6 22 -14 6 -8 21 -16 33 -18 31 -4 -34 -43
-663 -393 -357 -198 -455 -287 -515 -463 -38 -113 -40 -162 -11 -291 30 -133
35 -216 6 -108 -18 67 -36 101 -49 92 -4 -2 -20 37 -36 88 -16 51 -33 97 -37
104 -21 28 -30 90 -38 253 -13 268 -41 430 -111 644 -33 100 -68 192 -78 206
-36 50 -51 90 -51 137 0 42 -5 71 -25 161 l-5 22 117 -4 c65 -2 190 -8 278
-11 108 -5 183 -4 230 4 39 7 79 13 90 15 11 2 65 15 120 29 165 43 188 46
203 28 7 -9 38 -66 67 -128z m2180 -114 c11 -21 13 -34 6 -47 -10 -16 -10 -16
-11 1 0 10 -6 20 -14 23 -18 7 -27 29 -20 49 8 19 20 11 39 -26z m352 16 c-13
-9 -17 -20 -12 -34 8 -25 -10 -29 -19 -4 -7 17 32 68 43 57 3 -3 -2 -12 -12
-19z m-2161 -13 c-17 -16 -18 -16 -5 5 7 12 15 20 18 17 3 -2 -3 -12 -13 -22z
m-1832 2 c3 -8 2 -12 -4 -9 -6 3 -10 10 -10 16 0 14 7 11 14 -7z m3745 -99
c39 -77 52 -123 31 -110 -6 3 -10 -4 -10 -17 -1 -22 -1 -22 -15 -4 -31 41 -85
250 -57 221 6 -5 29 -46 51 -90z m175 40 c7 -18 -32 -41 -46 -27 -6 6 -2 15
13 26 28 19 26 19 33 1z m-10 -120 c4 -27 4 -34 -3 -20 -13 31 -24 93 -12 75
5 -8 12 -33 15 -55z m98 30 c3 -13 1 -22 -3 -19 -9 5 -13 44 -5 44 2 0 6 -11
8 -25z m-822 -16 c0 -4 3 -15 7 -25 5 -14 2 -13 -15 4 -26 26 -27 29 -7 29 8
0 15 -4 15 -8z m40 -3 c0 -3 -4 -8 -10 -11 -5 -3 -10 -1 -10 4 0 6 5 11 10 11
6 0 10 -2 10 -4z m675 -46 c4 -11 11 -18 16 -15 5 4 9 -4 9 -17 0 -29 39 -92
132 -214 60 -80 69 -98 72 -139 2 -43 -1 -51 -31 -81 -19 -19 -40 -34 -48 -34
-8 0 -15 -5 -15 -12 0 -8 -4 -8 -14 2 -18 19 -204 298 -245 369 l-31 52 35 42
c57 66 108 86 120 47z m95 -45 c-12 -14 -43 -16 -56 -2 -6 6 58 27 65 21 2 -2
-2 -10 -9 -19z m-695 -5 c3 -5 -1 -10 -9 -10 -9 0 -16 5 -16 10 0 6 4 10 9 10
6 0 13 -4 16 -10z m-2910 -50 c-4 -12 -9 -19 -12 -17 -3 3 -2 15 2 27 4 12 9
19 12 17 3 -3 2 -15 -2 -27z m15 -87 c-1 -11 -40 37 -40 49 0 6 9 -1 20 -15
11 -14 20 -29 20 -34z m3054 -14 c-2 -3 5 -30 15 -60 10 -30 22 -70 26 -89 l8
-35 -24 30 c-14 17 -31 39 -39 49 -10 13 -15 42 -15 87 0 66 1 68 17 47 9 -12
15 -25 12 -29z m-144 -19 c0 -5 -2 -10 -4 -10 -3 0 -8 5 -11 10 -3 6 -1 10 4
10 6 0 11 -4 11 -10z m-2942 -105 c4 -16 -12 -34 -29 -35 -12 0 -17 38 -6 49
15 15 31 8 35 -14z m-208 -145 c0 -13 -1 -13 -10 0 -5 8 -10 22 -10 30 0 13 1
13 10 0 5 -8 10 -22 10 -30z m3310 -60 c0 -5 -5 -10 -11 -10 -5 0 -7 5 -4 10
3 6 8 10 11 10 2 0 4 -4 4 -10z m201 -165 c78 -141 279 -535 279 -549 0 -4
-36 45 -79 110 -44 66 -90 130 -103 144 -79 86 -173 278 -180 371 -1 17 -6 33
-10 35 -4 3 -4 12 -1 20 8 21 12 16 94 -131z m794 -85 c47 -58 139 -163 204
-235 l117 -130 -35 -1 c-20 0 -45 -3 -56 -5 -30 -7 -74 -49 -68 -66 3 -7 2
-13 -3 -12 -5 1 -18 1 -29 0 -16 -1 -17 -3 -5 -11 9 -6 17 -5 22 3 6 9 8 8 8
-2 0 -11 3 -11 15 -1 8 7 13 16 10 20 -3 5 -1 11 4 14 18 12 23 -15 6 -34 -9
-10 -15 -29 -13 -42 2 -16 -2 -23 -14 -23 -9 0 -20 -4 -25 -8 -4 -5 -2 -7 6
-5 7 2 15 -2 18 -9 2 -6 -3 -10 -13 -9 -10 2 -20 8 -22 14 -2 7 -9 12 -15 12
-7 0 -18 9 -25 21 -10 15 -10 19 -1 14 8 -5 10 -4 5 3 -4 7 -14 12 -22 12 -8
0 -14 7 -14 15 0 8 -9 19 -20 25 -11 6 -18 15 -15 20 3 5 -3 18 -15 30 -12 12
-15 20 -7 20 6 1 0 7 -14 15 -15 8 -32 28 -38 46 -6 17 -15 28 -20 25 -5 -3
-25 12 -45 34 -35 39 -45 60 -27 60 4 0 7 11 6 25 -2 14 1 23 6 20 4 -3 17 3
28 14 17 17 18 20 3 26 -14 5 -14 7 -2 16 13 9 12 10 -2 5 -20 -6 -66 15 -62
29 1 6 5 22 8 37 4 19 11 26 21 22 10 -4 15 0 15 14 0 11 -5 22 -11 24 -5 2
-7 11 -3 22 6 16 8 17 16 2 8 -14 11 -14 24 -2 8 8 14 21 14 28 0 10 -2 10 -9
-1 -5 -8 -11 -9 -15 -3 -5 8 13 24 20 18 1 0 41 -48 89 -106z m575 -185 c0
-12 -19 -12 -23 0 -4 9 -1 12 9 8 7 -3 14 -7 14 -8z m-835 -155 c-3 -5 3 -10
14 -10 12 0 21 -6 21 -13 0 -26 75 -85 101 -79 4 1 21 -3 37 -8 21 -6 33 -5
36 3 3 7 3 2 0 -10 -5 -23 9 -32 21 -13 9 15 37 -9 31 -26 -3 -8 0 -13 6 -11
5 1 12 -6 13 -17 2 -10 9 -24 16 -30 9 -8 10 -8 4 3 -5 9 -4 12 2 8 14 -9 8
-53 -7 -49 -10 2 -11 0 -2 -10 6 -8 7 -19 2 -28 -7 -12 -11 -12 -27 1 -16 12
-17 12 -6 -2 11 -13 10 -19 -5 -31 -9 -8 -26 -15 -37 -16 -11 0 -32 -3 -47 -6
-19 -3 -28 0 -28 9 0 7 -11 16 -25 19 -18 5 -27 15 -32 36 -3 17 -9 30 -14 30
-4 0 -10 8 -13 18 -4 9 -20 33 -37 52 -45 50 -92 121 -94 140 0 8 -4 21 -9 28
-6 10 -1 11 17 6 14 -3 34 -1 44 5 23 13 26 13 18 1z m-3331 -80 c5 -19 2 -16
-13 10 -11 19 -20 39 -21 45 0 16 27 -28 34 -55z m-57 18 c-3 -8 -6 -5 -6 6
-1 11 2 17 5 13 3 -3 4 -12 1 -19z m27 -60 c3 -16 3 -28 -2 -28 -4 0 -9 14
-10 32 -3 37 2 35 12 -4z m4047 -98 c-6 -20 -23 -47 -38 -61 -19 -16 -22 -17
-11 -4 23 28 48 88 49 122 2 27 2 27 6 3 3 -13 0 -40 -6 -60z m-4014 -2 c-3
-8 -6 -5 -6 6 -1 11 2 17 5 13 3 -3 4 -12 1 -19z m3409 -230 c-2 -10 0 -18 5
-18 5 0 9 -7 9 -15 0 -25 -18 -17 -35 15 -9 17 -20 30 -26 30 -8 0 -8 5 1 15
16 19 53 -2 46 -27z m-726 -152 c0 -2 -8 -10 -17 -17 -16 -13 -17 -12 -4 4 13
16 21 21 21 13z m-70 -50 c0 -2 -8 -10 -17 -17 -16 -13 -17 -12 -4 4 13 16 21
21 21 13z m-195 -134 c-39 -34 -680 -464 -655 -439 8 8 78 56 155 108 77 51
168 113 201 138 72 53 69 51 199 136 93 60 123 77 100 57z m585 -96 c0 -2 -8
-10 -17 -17 -16 -13 -17 -12 -4 4 13 16 21 21 21 13z m-1390 -450 c0 -2 -8
-10 -17 -17 -16 -13 -17 -12 -4 4 13 16 21 21 21 13z m-165 -115 c-6 -5 -50
-37 -100 -71 -49 -34 -111 -78 -137 -97 -27 -19 -48 -32 -48 -30 0 5 170 130
245 180 40 27 57 35 40 18z m-295 -205 c0 -2 -8 -10 -17 -17 -16 -13 -17 -12
-4 4 13 16 21 21 21 13z m486 -171 c-11 -8 -25 -15 -30 -15 -6 1 0 7 14 15 32
19 40 18 16 0z m-1056 -505 c0 -5 -2 -10 -4 -10 -3 0 -8 5 -11 10 -3 6 -1 10
4 10 6 0 11 -4 11 -10z m10 -87 c0 -7 -39 17 -46 28 -3 6 5 3 20 -6 14 -10 26
-19 26 -22z"/>
<path d="M6641 7785 c0 -21 27 -45 43 -39 19 7 22 -12 4 -20 -7 -3 -5 -4 4 -3
9 1 24 -7 33 -18 15 -19 15 -18 1 11 -18 38 -46 63 -46 43 0 -8 -9 -3 -20 11
-11 14 -20 21 -19 15z"/>
<path d="M6765 6580 c9 -16 18 -30 21 -30 2 0 -2 14 -11 30 -9 17 -18 30 -21
30 -2 0 2 -13 11 -30z"/>
<path d="M6906 6127 c3 -10 9 -15 12 -12 3 3 0 11 -7 18 -10 9 -11 8 -5 -6z"/>
<path d="M6938 6107 c-15 -12 -15 -16 7 -43 23 -28 24 -28 25 -6 0 12 -6 22
-12 22 -7 0 -5 5 5 11 9 6 15 14 12 20 -8 12 -16 11 -37 -4z"/>
<path d="M6982 6070 c7 -11 16 -20 19 -20 4 0 5 9 2 20 -3 11 -12 20 -19 20
-12 0 -12 -4 -2 -20z"/>
<path d="M6615 5893 c26 -28 98 -83 103 -78 3 2 -8 15 -23 27 -35 28 -94 65
-80 51z"/>
<path d="M8062 4641 c-11 -7 -10 -10 3 -15 9 -3 24 -6 32 -6 13 0 13 3 3 15
-14 17 -20 18 -38 6z"/>
<path d="M8126 4611 c-3 -5 -15 -7 -26 -4 -12 3 -20 0 -20 -6 0 -7 5 -9 10 -6
6 3 10 2 10 -3 0 -17 29 -9 33 10 5 19 2 24 -7 9z"/>
<path d="M3682 9210 c-218 -57 -476 -230 -545 -367 -31 -58 -56 -177 -71 -328
-19 -188 -36 -445 -36 -548 0 -93 -21 -93 195 3 82 36 165 72 183 79 17 8 32
18 32 23 0 26 -88 136 -202 253 l-126 131 17 50 c36 108 142 217 336 346 192
128 463 251 571 260 35 3 39 0 103 -84 36 -47 111 -159 166 -247 55 -89 105
-161 110 -161 6 0 53 22 105 49 52 27 119 56 148 66 28 9 52 20 52 24 0 11
-144 245 -194 316 -26 35 -56 70 -67 75 -11 6 -70 17 -132 25 -62 8 -177 23
-256 35 -180 25 -293 25 -389 0z"/>
<path d="M9240 8792 c0 -5 14 -21 31 -36 35 -31 67 -96 71 -143 1 -7 4 -13 8
-13 8 0 70 64 70 73 0 9 -159 127 -171 127 -5 0 -9 -4 -9 -8z"/>
<path d="M10218 8550 c-9 -6 -24 -30 -34 -55 -24 -63 -14 -205 25 -350 l29
-110 1 263 c1 144 0 262 -1 262 -2 0 -11 -5 -20 -10z"/>
<path d="M789 8191 c-32 -10 -72 -31 -67 -36 2 -2 33 7 68 20 60 22 59 34 -1
16z"/>
<path d="M770 8151 c-25 -9 -64 -29 -87 -44 -28 -18 -40 -22 -37 -12 5 11 2
13 -10 9 -10 -4 -15 -12 -12 -20 6 -16 -20 -38 -35 -28 -7 4 -9 3 -5 -4 6 -11
-31 -38 -46 -34 -5 1 -7 -2 -5 -6 1 -4 -16 -23 -38 -42 -22 -18 -61 -53 -86
-78 -25 -24 -53 -44 -61 -46 -21 -3 -89 -58 -231 -190 l-117 -108 0 -824 c0
-548 4 -824 11 -824 53 0 247 146 459 346 14 13 60 55 104 93 43 38 77 70 75
72 -4 5 95 99 104 99 6 0 95 81 202 185 50 48 39 43 -23 -11 -236 -204 -376
-333 -374 -343 1 -7 -2 -10 -7 -6 -6 3 -101 -75 -213 -173 -112 -98 -210 -181
-218 -186 -24 -12 113 116 280 263 85 75 202 179 260 231 58 52 180 158 270
235 91 77 233 201 315 277 83 75 181 161 220 190 89 69 115 106 115 169 0 83
-2 86 -239 344 -184 200 -291 321 -291 331 0 4 15 -5 33 -22 l32 -29 -29 32
c-16 18 -32 30 -36 28 -4 -2 -31 21 -60 51 -52 55 -116 94 -155 93 -11 0 -40
-8 -65 -18z m171 -108 c30 -32 98 -107 149 -168 105 -122 110 -127 128 -120 6
2 12 0 12 -5 0 -6 -5 -10 -10 -10 -6 0 49 -66 121 -147 145 -162 189 -218 189
-241 0 -8 -15 8 -34 34 -19 27 -39 48 -46 46 -6 -1 -8 2 -5 8 4 7 1 10 -7 8
-7 -1 -27 7 -44 19 -17 12 -35 19 -39 15 -4 -4 -6 3 -3 15 4 15 2 20 -7 17 -7
-3 -20 5 -29 17 -8 13 -18 20 -22 16 -4 -3 -21 5 -39 18 -17 14 -35 25 -39 25
-9 0 -78 50 -93 67 -6 8 -20 15 -32 16 -13 1 -21 8 -21 19 0 10 -7 18 -17 18
-15 0 -16 2 -3 10 13 8 13 10 -1 10 -9 0 -29 13 -45 29 -23 23 -32 27 -43 18
-12 -10 -12 -9 -1 10 8 12 18 19 24 16 5 -3 6 -1 2 5 -4 6 0 25 9 41 8 17 15
43 15 59 0 37 -46 109 -100 155 -24 20 -39 37 -34 37 5 0 34 -26 65 -57z m-67
3 c19 -8 37 -20 41 -27 5 -7 -2 -5 -16 4 -56 40 -133 -1 -127 -66 8 -84 148
-63 148 23 0 12 5 18 10 15 16 -10 11 -45 -11 -76 -14 -21 -19 -38 -15 -55 4
-14 4 -35 0 -46 -6 -20 -6 -20 -21 1 -17 25 -40 27 -64 5 -17 -15 -20 -14 -43
12 -14 16 -32 46 -42 66 -9 21 -26 40 -36 44 -11 3 -17 8 -15 11 3 2 19 -3 36
-12 31 -15 31 -15 31 9 0 44 19 77 52 91 41 18 33 17 72 1z m-264 -150 c0 -8
-7 -16 -15 -20 -15 -5 -21 14 -8 27 11 12 23 8 23 -7z m-270 -60 c0 -2 -57
-55 -127 -117 -70 -63 -123 -108 -119 -101 7 12 237 222 243 222 2 0 3 -2 3
-4z m302 -505 c25 -16 49 -39 53 -51 5 -15 12 -19 23 -15 52 21 74 26 88 21
25 -9 7 -24 -39 -31 -23 -4 -49 -11 -57 -15 -13 -8 -13 -10 2 -15 14 -6 68
-76 68 -90 0 -3 -7 -5 -15 -5 -40 0 -125 -76 -111 -99 3 -4 -12 -14 -33 -21
-39 -13 -40 -12 -78 28 -21 22 -52 44 -68 48 -17 4 -33 12 -37 18 -22 33 6
178 39 209 27 23 75 47 99 47 11 0 41 -13 66 -29z m-102 -1015 c0 -2 -8 -10
-17 -17 -16 -13 -17 -12 -4 4 13 16 21 21 21 13z"/>
<path d="M1410 7470 c0 -5 5 -10 11 -10 5 0 7 5 4 10 -3 6 -8 10 -11 10 -2 0
-4 -4 -4 -10z"/>
<path d="M980 8106 c36 -36 66 -66 68 -66 9 0 -85 102 -107 116 -14 9 3 -13
39 -50z"/>
<path d="M1155 7910 c10 -11 20 -20 23 -20 3 0 -3 9 -13 20 -10 11 -20 20 -23
20 -3 0 3 -9 13 -20z"/>
<path d="M6913 7635 c0 -33 2 -45 4 -27 2 18 2 45 0 60 -2 15 -4 0 -4 -33z"/>
<path d="M9075 7626 c-112 -36 -217 -99 -249 -148 -8 -13 -20 -70 -26 -128 -7
-71 -23 -139 -47 -209 -29 -86 -34 -114 -30 -157 8 -77 45 -159 130 -287 43
-63 77 -119 77 -124 0 -5 -31 -34 -69 -65 -86 -70 -144 -143 -185 -228 -25
-54 -31 -80 -34 -157 -5 -109 7 -184 52 -330 44 -143 93 -260 176 -418 52 -99
66 -135 60 -150 -12 -28 -12 -45 0 -45 6 0 10 10 10 22 0 16 3 19 11 11 8 -8
8 -17 0 -31 -15 -29 -14 -75 4 -98 17 -22 19 -16 6 18 -10 27 4 72 19 63 6 -4
8 -10 6 -14 -3 -4 -6 -31 -7 -61 -2 -41 -7 -54 -21 -58 -27 -7 -25 -77 2 -92
27 -15 60 -3 60 20 0 14 5 18 18 13 9 -4 21 -12 25 -20 4 -7 15 -13 23 -13 8
0 13 -4 10 -9 -3 -5 4 -21 16 -36 11 -15 21 -39 22 -53 1 -14 8 -28 16 -30 13
-5 13 -3 0 13 -13 16 -13 18 0 13 8 -2 20 -15 27 -28 13 -27 7 -43 -7 -20 -8
12 -10 12 -16 -3 -3 -9 -4 -26 -1 -37 5 -19 -6 -129 -19 -188 -6 -31 -5 -34
17 -30 25 3 27 8 44 122 12 73 29 22 33 -94 3 -72 9 -113 17 -120 23 -19 34
10 24 60 -27 137 -35 189 -28 184 5 -3 9 -9 9 -13 0 -20 265 -509 312 -578 52
-75 70 -93 243 -237 142 -119 249 -166 377 -166 l58 0 0 391 c0 371 -1 391
-17 378 -17 -13 -17 -13 0 7 13 16 17 40 17 114 0 88 -2 96 -27 124 -16 17
-19 23 -7 13 11 -9 24 -17 28 -17 3 0 6 122 6 270 -1 149 -3 270 -6 270 -3 0
-15 -5 -27 -11 -16 -7 -14 -4 6 11 l27 22 0 504 c0 278 -4 503 -8 500 -4 -2
-8 4 -8 14 0 10 4 16 8 14 4 -3 8 218 8 491 l0 495 -29 0 c-16 0 -66 -7 -112
-16 -95 -18 -81 -25 -137 74 -47 83 -102 153 -141 179 -42 28 -125 53 -325 98
-194 44 -312 47 -421 11z m424 -135 c46 -50 217 -389 204 -402 -6 -6 -52 -34
-104 -63 -52 -28 -154 -87 -228 -130 l-134 -77 -39 38 c-69 66 -273 297 -303
341 -33 50 -42 37 99 133 132 89 256 148 391 184 72 20 74 19 114 -24z m706
-1231 c3 -6 -1 -7 -9 -4 -18 7 -21 14 -7 14 6 0 13 -4 16 -10z m-20 -18 c-3
-3 -11 0 -18 7 -9 10 -8 11 6 5 10 -3 15 -9 12 -12z m-18 -17 c4 -4 2 -5 -4
-1 -7 4 -13 2 -13 -4 0 -6 -4 -8 -10 -5 -5 3 -10 1 -10 -5 0 -6 -4 -8 -10 -5
-6 4 -5 11 3 19 13 15 32 15 44 1z m-57 -30 c11 -13 10 -14 -4 -9 -9 3 -16 10
-16 15 0 13 6 11 20 -6z m-21 -26 c3 -12 1 -12 -14 1 -17 14 -18 13 -12 -4 6
-16 5 -17 -8 -6 -13 11 -13 15 -3 21 17 11 31 6 37 -12z m-44 -20 c11 -17 -1
-21 -15 -4 -8 9 -8 15 -2 15 6 0 14 -5 17 -11z m-24 -16 c13 -16 12 -17 -3 -4
-10 7 -18 15 -18 17 0 8 8 3 21 -13z m-11 -25 c0 -6 -7 -5 -15 2 -8 7 -15 17
-15 22 0 6 7 5 15 -2 8 -7 15 -17 15 -22z m-30 -3 c14 -19 14 -19 -2 -6 -10 7
-18 18 -18 24 0 6 1 8 3 6 1 -2 9 -13 17 -24z m-20 -10 c7 -9 8 -15 2 -15 -5
0 -12 7 -16 15 -3 8 -4 15 -2 15 2 0 9 -7 16 -15z m-20 -20 c7 -9 8 -15 2 -15
-5 0 -12 7 -16 15 -3 8 -4 15 -2 15 2 0 9 -7 16 -15z m-24 -22 c-6 -6 -36 9
-36 18 0 5 9 4 20 -3 10 -7 18 -14 16 -15z m-61 -34 c11 -17 -1 -21 -15 -4 -8
9 -8 15 -2 15 6 0 14 -5 17 -11z m-20 -19 c4 -6 -1 -7 -11 -3 -14 5 -16 3 -11
-12 6 -15 5 -16 -8 -5 -13 11 -13 15 -3 21 17 11 26 11 33 -1z m-44 -27 c13
-16 12 -17 -3 -4 -10 7 -18 15 -18 17 0 8 8 3 21 -13z m-20 -26 c-8 -8 -14 -7
-23 2 -11 10 -9 11 6 5 15 -6 17 -4 11 6 -6 9 -4 11 4 5 9 -5 10 -10 2 -18z
m-31 -18 c0 -6 -4 -7 -10 -4 -5 3 -10 11 -10 16 0 6 5 7 10 4 6 -3 10 -11 10
-16z m-25 -9 c3 -5 2 -10 -4 -10 -5 0 -13 5 -16 10 -3 6 -2 10 4 10 5 0 13 -4
16 -10z m-25 -21 c0 -5 -4 -7 -10 -4 -5 3 -10 1 -10 -5 0 -6 -4 -8 -10 -5 -5
3 -10 1 -10 -5 0 -6 -5 -8 -11 -4 -8 4 -3 12 12 20 29 16 39 17 39 3z m-60
-39 c0 -5 -2 -10 -4 -10 -3 0 -8 5 -11 10 -3 6 -1 10 4 10 6 0 11 -4 11 -10z
m-45 -30 c3 -5 2 -10 -4 -10 -5 0 -13 5 -16 10 -3 6 -2 10 4 10 5 0 13 -4 16
-10z m-21 -19 c6 -9 -44 -35 -52 -26 -3 3 0 5 7 5 7 0 9 4 6 10 -4 6 1 7 11 3
12 -4 15 -3 10 5 -4 7 -3 12 3 12 5 0 12 -4 15 -9z m-90 -69 c-16 -15 -33 -26
-38 -24 -4 3 -3 8 4 12 7 4 9 13 5 20 -5 9 -4 11 3 6 7 -4 20 -2 29 3 28 16
28 13 -3 -17z m-50 -38 c5 -14 4 -15 -9 -4 -17 14 -19 20 -6 20 5 0 12 -7 15
-16z m-19 -14 c3 -6 -1 -7 -9 -4 -18 7 -21 14 -7 14 6 0 13 -4 16 -10z m-25
-22 c0 -5 -4 -7 -9 -4 -5 4 -11 1 -13 -5 -3 -8 -7 -7 -15 2 -9 11 -6 14 13 15
13 1 24 -2 24 -8z m-47 -27 c-4 -3 -10 -10 -14 -14 -3 -4 -11 -2 -17 5 -8 10
-5 13 15 14 13 1 21 -1 16 -5z m-38 -21 c3 -5 2 -10 -4 -10 -5 0 -13 5 -16 10
-3 6 -2 10 4 10 5 0 13 -4 16 -10z m-90 -58 c-3 -3 -11 0 -18 7 -9 10 -8 11 6
5 10 -3 15 -9 12 -12z m-90 -42 c3 -5 -1 -10 -9 -10 -9 0 -16 5 -16 10 0 6 4
10 9 10 6 0 13 -4 16 -10z m13 -68 c2 -7 -2 -11 -9 -10 -17 4 -13 -53 4 -64 6
-4 8 -10 5 -13 -13 -13 -28 7 -28 36 0 18 -6 32 -16 36 -15 6 -15 8 2 20 20
15 36 13 42 -5z m-208 -25 c0 -5 -4 -5 -10 -2 -5 3 -10 14 -10 23 0 15 2 15
10 2 5 -8 10 -19 10 -23z m76 -60 c4 -4 -5 -7 -19 -7 -15 0 -27 4 -27 10 0 11
35 8 46 -3z m-61 -57 c3 -5 1 -10 -4 -10 -6 0 -11 5 -11 10 0 6 2 10 4 10 3 0
8 -4 11 -10z m1245 -96 c0 -3 -14 -10 -31 -16 -20 -7 -28 -15 -25 -25 3 -8 1
-11 -4 -8 -17 11 -11 24 18 39 29 16 42 19 42 10z m-96 -70 c5 -14 4 -15 -9
-4 -17 14 -19 20 -6 20 5 0 12 -7 15 -16z m-19 -13 c3 -5 1 -12 -4 -15 -5 -3
-11 1 -15 9 -6 16 9 21 19 6z m-1016 -54 c51 -66 53 -81 5 -30 -20 21 -40 37
-43 36 -4 -1 -8 9 -9 23 -1 13 0 24 2 24 2 0 22 -24 45 -53z m985 37 c3 -8 2
-12 -4 -9 -6 3 -10 10 -10 16 0 14 7 11 14 -7z m-36 -18 c-7 -8 -17 -12 -22
-9 -4 3 -2 9 5 14 22 13 31 11 17 -5z m-88 -56 c0 -5 -2 -10 -4 -10 -3 0 -8 5
-11 10 -3 6 -1 10 4 10 6 0 11 -4 11 -10z m-46 -32 c-3 -4 -9 -8 -15 -8 -5 0
-9 4 -9 8 0 5 7 9 15 9 8 0 12 -4 9 -9z m-34 -8 c0 -5 -2 -10 -4 -10 -3 0 -8
5 -11 10 -3 6 -1 10 4 10 6 0 11 -4 11 -10z m-45 -38 c-3 -3 -11 0 -18 7 -9
10 -8 11 6 5 10 -3 15 -9 12 -12z m-30 -2 c4 -6 -1 -7 -12 -3 -16 6 -16 5 -4
-10 8 -10 9 -17 3 -17 -15 0 -25 18 -17 30 8 13 22 13 30 0z m-67 -22 c-16 -5
-28 -14 -28 -19 0 -5 -4 -9 -10 -9 -15 0 0 28 18 33 33 9 47 5 20 -5z m-1
-170 c0 -72 -2 -81 -6 -43 -5 33 -9 43 -13 30 -3 -11 -3 0 -1 25 4 43 12 80
17 80 1 0 2 -42 3 -92z m-497 -45 c0 -19 -3 -24 -10 -17 -6 6 -8 18 -4 27 9
24 14 21 14 -10z m467 -75 c-3 -7 -5 -2 -5 12 0 14 2 19 5 13 2 -7 2 -19 0
-25z m526 18 c4 -9 -2 -17 -14 -21 -15 -5 -19 -13 -16 -27 5 -17 3 -18 -14 -6
-21 14 -23 35 -3 30 7 -1 15 7 19 18 7 23 21 26 28 6z m-465 -77 c-29 -19 -41
-9 -17 14 18 16 25 18 27 8 2 -7 -2 -17 -10 -22z m453 -37 c-12 -9 -34 -27
-49 -39 -15 -13 -31 -23 -37 -23 -5 0 3 10 18 23 15 12 40 32 54 44 15 12 29
20 32 17 3 -2 -5 -12 -18 -22z m-156 -32 c10 -11 14 -20 8 -20 -5 0 -18 9 -28
20 -10 11 -14 20 -8 20 5 0 18 -9 28 -20z m55 -46 c0 -8 -4 -12 -10 -9 -5 3
-10 10 -10 16 0 5 5 9 10 9 6 0 10 -7 10 -16z m50 -59 c-7 -8 -17 -15 -23 -15
-6 0 -2 7 9 15 25 19 30 19 14 0z m-60 -55 c0 -5 -2 -10 -4 -10 -3 0 -8 5 -11
10 -3 6 -1 10 4 10 6 0 11 -4 11 -10z"/>
<path d="M6911 7354 c0 -11 3 -14 6 -6 3 7 2 16 -1 19 -3 4 -6 -2 -5 -13z"/>
<path d="M1601 7344 c0 -11 3 -14 6 -6 3 7 2 16 -1 19 -3 4 -6 -2 -5 -13z"/>
<path d="M1500 7179 c-30 -28 -41 -42 -25 -31 28 19 94 82 84 82 -2 0 -29 -23
-59 -51z"/>
<path d="M1270 6980 c-60 -56 -111 -104 -114 -108 -2 -4 7 -7 20 -7 13 0 24 3
24 6 0 3 47 48 105 100 57 52 105 97 105 102 1 24 -44 -5 -140 -93z"/>
<path d="M7785 7070 c-27 -5 -107 -9 -176 -9 -69 -1 -128 -4 -131 -7 -4 -3 5
-29 18 -57 18 -39 24 -69 24 -121 0 -66 1 -68 18 -53 14 13 38 17 99 17 98 0
285 18 296 29 4 4 3 20 -2 37 -5 16 -19 62 -31 102 -25 80 -19 76 -115 62z"/>
<path d="M7049 7033 c-4 -29 6 -59 27 -78 13 -12 24 -29 24 -37 0 -9 7 -21 15
-28 8 -7 12 -17 8 -23 -3 -6 -1 -7 5 -3 12 7 16 -4 13 -36 -1 -9 3 -19 8 -22
6 -4 8 -13 4 -21 -7 -20 21 -20 37 0 10 12 -1 36 -60 135 -69 116 -79 129 -81
113z"/>
<path d="M1109 6833 c-13 -16 -12 -17 4 -4 16 13 21 21 13 21 -2 0 -10 -8 -17
-17z"/>
<path d="M1019 6753 c-13 -16 -12 -17 4 -4 16 13 21 21 13 21 -2 0 -10 -8 -17
-17z"/>
<path d="M7780 6486 c0 -2 7 -9 15 -16 9 -7 15 -8 15 -2 0 5 -7 12 -15 16 -8
3 -15 4 -15 2z"/>
<path d="M2735 6131 c-156 -108 -209 -199 -209 -361 0 -107 20 -171 102 -335
66 -132 76 -145 121 -145 32 0 40 5 60 38 16 27 20 30 15 12 -14 -53 -29 -75
-59 -81 -17 -4 -23 -7 -15 -8 8 0 37 -17 64 -36 27 -19 53 -32 59 -28 6 3 7 1
3 -5 -9 -15 94 -162 113 -162 3 0 17 16 30 35 13 19 27 35 32 35 4 0 56 -54
115 -121 l107 -121 -31 -31 -31 -31 52 -60 c29 -34 77 -92 106 -129 44 -56 58
-68 79 -65 13 2 32 14 41 28 9 14 11 21 4 16 -8 -4 -13 -2 -13 7 0 8 -9 26
-21 41 -12 16 -19 35 -16 46 3 11 2 20 -3 20 -4 0 -33 33 -63 73 -31 39 -77
92 -103 117 -26 25 -72 79 -102 120 -31 41 -109 128 -174 193 l-119 119 -25
-17 -26 -17 22 39 c21 39 21 41 6 88 -12 35 -14 56 -7 79 16 53 21 97 11 91
-5 -3 -12 -29 -16 -57 l-7 -51 -23 44 c-12 24 -38 58 -57 76 -56 52 -82 137
-82 268 0 109 1 112 35 169 19 32 54 74 78 93 41 34 55 64 30 62 -7 0 -44 -22
-83 -48z m-102 -116 c-20 -25 -39 -45 -41 -45 -6 0 15 27 47 63 39 43 36 31
-6 -18z m-43 -285 c11 7 18 -1 31 -33 10 -23 27 -66 38 -95 12 -29 16 -50 10
-46 -8 5 -9 3 -4 -6 4 -7 9 -29 11 -49 l3 -36 -20 25 c-11 14 -32 50 -46 80
-33 72 -69 201 -45 163 5 -8 13 -9 22 -3z m204 -223 c14 -23 28 -55 31 -72 4
-18 -5 -5 -23 31 -17 34 -35 65 -41 68 -6 4 -11 12 -11 17 0 18 19 -1 44 -44z
m-54 -27 c-13 -9 -9 -14 6 -7 6 2 33 -42 34 -55 0 -18 -28 -6 -40 17 -7 14
-18 25 -23 25 -5 0 -4 -7 3 -15 7 -9 10 -18 7 -21 -9 -9 -27 6 -27 22 0 8 -5
12 -11 9 -6 -4 -5 2 3 14 7 12 23 21 38 21 20 0 22 -2 10 -10z m4 -116 c4 -11
1 -14 -11 -12 -9 2 -18 9 -21 16 -6 18 25 15 32 -4z"/>
<path d="M953 6042 c8 -12 -20 -25 -35 -15 -7 4 -8 1 -4 -6 6 -8 2 -11 -10 -9
-10 2 -19 -2 -19 -8 0 -12 -47 -56 -217 -202 -102 -89 -135 -112 -107 -74 7 9
1 6 -13 -7 -15 -13 -25 -27 -23 -31 6 -10 -244 -223 -261 -223 -7 0 -12 -5
-11 -10 1 -6 -54 -58 -123 -115 -123 -103 -125 -106 -128 -150 l-3 -44 107 93
c136 119 248 216 290 251 l32 28 54 -42 c79 -61 184 -153 263 -229 83 -79 155
-110 155 -66 0 7 11 36 25 64 14 32 19 52 12 50 -7 -1 -11 4 -9 11 1 6 -4 12
-12 12 -8 0 -18 5 -22 12 -5 7 -3 8 6 3 9 -5 11 -4 6 3 -4 7 -14 12 -22 12 -8
0 -14 10 -14 26 0 14 -4 23 -9 20 -4 -3 -17 1 -27 9 -14 11 -15 14 -4 15 21 0
-6 25 -28 25 -9 0 -16 6 -14 13 1 6 -5 12 -14 12 -9 0 -12 5 -8 13 4 6 4 9 0
5 -12 -11 -71 30 -71 49 0 13 -9 19 -33 21 -26 3 -32 7 -27 21 3 10 -1 30 -9
45 -21 41 -15 56 46 108 l54 48 62 -20 c50 -16 66 -18 86 -8 15 6 29 9 32 6 3
-4 9 -41 13 -84 l7 -78 61 -55 c33 -31 58 -62 55 -69 -3 -10 -7 -10 -18 -1 -8
7 -17 9 -21 5 -3 -3 -1 -6 6 -6 8 0 9 -5 2 -18 -6 -12 -5 -23 5 -37 8 -10 14
-27 14 -37 0 -21 42 -47 48 -29 2 6 8 11 14 11 5 0 6 -9 3 -20 -5 -15 -1 -22
14 -28 11 -4 21 -11 23 -17 2 -5 12 -8 23 -6 15 2 17 0 7 -11 -9 -12 -7 -19
11 -35 23 -21 34 -23 55 -10 6 5 12 5 12 1 0 -4 6 0 13 10 8 10 22 16 35 14
34 -5 31 -23 -3 -26 -68 -8 -72 -42 -10 -103 25 -24 45 -47 45 -52 0 -14 -123
-87 -177 -104 -40 -13 -53 -21 -49 -33 2 -8 21 -53 40 -101 60 -144 69 -302
22 -384 -34 -60 -45 -63 -107 -23 -31 20 -115 66 -187 102 -102 52 -145 80
-189 125 -95 95 -141 215 -129 335 l6 61 -100 -3 c-55 -2 -100 -6 -100 -9 0
-3 11 -16 25 -29 22 -21 26 -35 36 -146 6 -68 14 -130 18 -138 5 -9 12 -30 15
-47 4 -18 18 -54 30 -80 71 -146 94 -202 100 -235 4 -23 11 -35 19 -33 16 6
47 -58 47 -95 0 -17 4 -30 10 -30 5 0 7 -7 3 -16 -5 -13 -7 -13 -14 -2 -7 10
-9 9 -9 -4 0 -10 3 -18 8 -18 4 0 7 -16 8 -35 0 -23 -4 -34 -11 -31 -6 2 -12
-5 -12 -15 -1 -10 3 -18 10 -16 18 3 20 -32 3 -49 -9 -8 -13 -20 -10 -26 4 -7
9 -6 14 2 5 7 16 10 25 6 10 -3 25 -1 34 6 14 12 14 11 2 -5 -7 -9 -21 -16
-30 -15 -9 2 -15 -2 -14 -8 2 -12 -126 -132 -184 -172 -17 -12 -46 -25 -63
-29 -30 -5 -32 -4 -25 16 13 42 7 175 -10 226 -21 61 -64 133 -118 198 -42 49
-163 157 -176 157 -8 0 -11 -16 -12 -54 0 -10 -8 -33 -17 -50 -9 -17 -17 -35
-17 -41 -1 -5 -6 -20 -13 -32 -9 -16 -9 -23 -2 -23 6 0 4 -7 -4 -16 -13 -12
-16 -39 -16 -133 0 -132 10 -157 74 -186 32 -16 15 -14 -42 4 l-33 10 3 -141
3 -142 48 -34 c37 -27 60 -35 107 -39 73 -7 88 2 241 138 57 50 118 104 134
118 214 186 335 294 335 298 0 8 -365 -300 -515 -435 -103 -94 -145 -116 -202
-108 -44 6 -140 52 -130 63 3 3 19 -6 36 -18 44 -32 144 -38 186 -11 17 10
100 80 185 154 85 75 241 209 346 299 105 90 314 277 465 414 151 138 347 312
435 388 89 76 167 150 173 163 17 37 13 104 -9 151 -11 24 -78 105 -154 187
-75 79 -136 148 -136 152 0 5 33 -23 72 -61 58 -56 63 -59 22 -15 -94 103
-174 197 -169 202 2 2 -26 33 -63 69 l-67 64 65 -70 65 -70 -67 64 c-37 36
-65 68 -62 72 2 4 -7 21 -21 37 -13 16 -22 31 -20 34 3 2 -7 15 -23 29 l-27
24 25 -30 c13 -16 3 -10 -23 15 -26 24 -46 49 -44 55 1 6 -2 11 -6 12 -13 2
-67 55 -67 66 0 6 10 2 23 -9 12 -10 4 0 -17 23 -22 23 -43 40 -47 37 -4 -2
-22 4 -41 15 -38 23 -114 40 -105 23z m172 -62 c10 -11 16 -20 13 -20 -3 0
-13 9 -23 20 -10 11 -16 20 -13 20 3 0 13 -9 23 -20z m-96 -4 c15 -8 61 -55
102 -105 70 -86 74 -93 74 -141 0 -40 -2 -46 -8 -28 -27 71 -57 91 -136 91
-34 0 -61 3 -61 7 0 4 -15 6 -34 3 -22 -2 -55 6 -89 21 -42 18 -58 21 -68 13
-8 -7 15 18 50 55 57 59 109 97 134 98 4 0 21 -6 36 -14z m-419 -309 c0 -2
-19 -19 -42 -37 l-43 -33 34 36 c30 32 51 46 51 34z m913 -367 c48 -59 52 -68
22 -40 -72 66 -85 79 -85 90 0 9 -14 14 -33 11 -5 -1 -6 3 -2 9 3 5 -1 13 -9
16 -9 3 -16 13 -16 22 0 8 -12 31 -26 51 -37 52 76 -69 149 -159z m-383 100
c0 -3 -6 -15 -14 -26 -20 -27 -35 -8 -29 39 l5 37 19 -21 c11 -12 19 -25 19
-29z m75 -20 c8 -14 -48 -61 -59 -50 -12 12 20 60 39 60 7 0 17 -4 20 -10z
m63 -72 c3 -14 -6 -19 -37 -24 -31 -5 -41 -11 -41 -25 0 -22 -13 -25 -29 -6
-8 11 -5 19 12 34 49 45 89 53 95 21z"/>
<path d="M1230 5861 c0 -5 5 -13 10 -16 6 -3 10 -2 10 4 0 5 -4 13 -10 16 -5
3 -10 2 -10 -4z"/>
<path d="M3500 5644 c0 -16 80 -135 96 -141 17 -6 18 -38 3 -82 -16 -45 -2
-52 16 -8 33 79 7 165 -60 193 -18 7 -39 22 -44 31 -6 10 -11 13 -11 7z m80
-79 c7 -9 8 -15 2 -15 -5 0 -12 7 -16 15 -3 8 -4 15 -2 15 2 0 9 -7 16 -15z"/>
<path d="M3290 5505 c0 -5 5 -17 10 -25 5 -8 10 -10 10 -5 0 6 -5 17 -10 25
-5 8 -10 11 -10 5z"/>
<path d="M3316 5447 c3 -10 9 -15 12 -12 3 3 0 11 -7 18 -10 9 -11 8 -5 -6z"/>
<path d="M2900 5399 c-22 -18 -22 -19 -3 -10 12 6 25 16 28 21 9 15 3 12 -25
-11z"/>
<path d="M3475 5150 c9 -16 18 -30 21 -30 2 0 -2 14 -11 30 -9 17 -18 30 -21
30 -2 0 2 -13 11 -30z"/>
<path d="M1872 5060 c0 -14 2 -19 5 -12 2 6 2 18 0 25 -3 6 -5 1 -5 -13z"/>
<path d="M3560 4990 c6 -11 13 -20 16 -20 2 0 0 9 -6 20 -6 11 -13 20 -16 20
-2 0 0 -9 6 -20z"/>
<path d="M1849 4943 c-13 -21 -54 -62 -90 -93 -107 -89 -169 -142 -223 -190
-28 -25 -89 -77 -136 -116 -47 -40 -160 -143 -251 -230 -92 -88 -189 -179
-216 -204 -28 -25 -33 -30 -12 -12 22 17 44 32 50 32 6 0 22 14 36 30 13 17
30 30 37 30 14 0 56 45 56 60 0 6 7 10 15 10 9 0 20 10 24 23 9 22 311 300
322 295 9 -4 114 94 111 103 -1 5 2 9 8 9 22 0 266 223 286 261 20 40 12 36
-17 -8z"/>
<path d="M3595 4930 c8 -16 15 -38 15 -50 0 -11 5 -20 10 -20 18 0 11 -33 -12
-57 -12 -13 -17 -23 -12 -22 5 0 19 13 32 29 l23 29 -31 61 c-17 33 -33 60
-35 60 -3 0 1 -13 10 -30z"/>
<path d="M8514 4682 c-11 -7 -38 -52 -31 -52 2 0 13 14 25 30 24 31 24 35 6
22z"/>
<path d="M8300 4633 c0 -29 12 -24 17 7 2 11 -2 20 -7 20 -6 0 -10 -12 -10
-27z"/>
<path d="M3523 4628 c-20 -26 -26 -41 -15 -34 12 7 36 46 29 46 -3 0 -9 -6
-14 -12z"/>
<path d="M5766 4454 c-3 -9 -6 -31 -6 -50 0 -27 4 -34 20 -34 17 0 20 7 20 50
0 36 -4 50 -14 50 -8 0 -17 -7 -20 -16z"/>
<path d="M5809 4368 c-30 -30 -70 -58 -89 -64 -61 -17 -66 -89 -11 -176 22
-34 44 -53 92 -77 34 -17 70 -31 80 -31 11 0 30 17 44 40 22 35 30 40 64 40
51 0 62 16 69 95 l5 65 -28 0 c-67 0 -105 36 -132 125 -4 16 -16 31 -24 33 -9
2 -40 -21 -70 -50z"/>
<path d="M3250 4277 c-30 -24 -69 -59 -85 -78 l-30 -34 1 -140 c1 -130 2 -144
28 -197 34 -71 46 -81 102 -80 78 2 150 29 364 138 281 143 273 137 264 177
-3 18 -17 54 -31 80 -23 46 -23 50 -8 67 16 18 15 19 -22 19 -21 -1 -58 4 -83
10 -25 6 -108 11 -185 11 -123 0 -183 -5 -300 -26 -30 -5 -30 -5 7 19 21 13
36 26 33 29 -3 3 1 11 10 18 8 7 15 16 15 21 0 19 -27 7 -80 -34z m530 -97 c0
-5 -4 -10 -10 -10 -5 0 -10 5 -10 10 0 6 5 10 10 10 6 0 10 -4 10 -10z"/>
<path d="M1977 4095 c-21 -11 -109 -84 -195 -162 -165 -148 -288 -255 -592
-518 -102 -88 -259 -225 -350 -305 -250 -220 -337 -293 -346 -292 -13 1 -44
-30 -39 -38 3 -5 -19 -28 -47 -52 -70 -57 -86 -76 -98 -118 -8 -28 -6 -40 10
-68 23 -39 25 -46 8 -35 -19 11 45 -68 73 -92 16 -13 14 -8 -7 15 -57 66 -58
75 -2 15 55 -58 77 -92 41 -64 -10 8 6 -14 36 -49 29 -34 55 -62 59 -62 5 0
-3 10 -58 75 -24 28 -24 29 -1 10 28 -24 91 -103 74 -92 -7 5 -13 5 -13 2 0
-10 190 -238 228 -274 21 -19 30 -30 22 -26 -8 4 17 -26 55 -66 96 -101 135
-146 110 -129 -11 7 -2 -4 21 -26 22 -21 29 -30 15 -19 -15 12 -8 -1 18 -32
23 -29 48 -56 54 -60 7 -3 -1 9 -18 27 -16 18 -25 30 -18 27 6 -4 31 -31 55
-60 23 -28 34 -46 23 -38 -11 7 -2 -4 20 -24 22 -21 31 -32 20 -24 -11 8 12
-21 50 -63 68 -77 85 -88 158 -107 25 -6 37 -6 37 1 0 6 7 7 16 4 10 -4 13 -2
8 6 -5 8 -2 9 9 5 18 -7 91 49 82 62 -2 5 10 21 28 37 31 29 32 29 8 2 -14
-16 -21 -28 -17 -28 12 0 145 123 141 130 -2 4 2 7 8 7 13 0 287 230 287 241
0 3 -15 -7 -32 -24 l-33 -29 34 38 c34 36 48 47 36 27 -3 -5 -2 -10 3 -10 12
0 53 45 47 52 -3 2 5 13 17 24 18 15 20 16 9 2 -24 -31 4 -19 35 14 24 27 25
29 4 13 l-25 -20 24 28 c25 27 48 37 35 15 -4 -7 2 -4 14 6 26 23 29 34 5 15
-11 -8 -10 -4 3 10 11 12 27 23 35 24 22 4 40 17 34 26 -7 13 32 44 46 35 7
-4 10 -3 6 3 -3 5 43 53 103 106 104 93 130 112 114 85 -4 -7 5 -2 19 11 33
30 36 42 5 15 -13 -10 -5 1 17 24 39 42 74 60 39 20 -18 -20 222 186 256 220
8 8 -3 3 -25 -13 -29 -20 -22 -10 25 33 64 61 101 83 64 40 l-19 -23 23 19
c12 11 20 22 17 24 -7 7 45 62 58 62 5 0 3 -8 -4 -17 -7 -10 -1 -7 14 6 15 14
25 27 22 29 -7 7 25 42 38 42 5 0 3 -8 -4 -17 -7 -10 1 -5 19 11 17 16 30 32
27 34 -2 3 5 16 15 30 20 25 27 72 11 72 -5 0 -12 7 -15 16 -3 8 -2 12 4 9 6
-3 7 1 4 9 -3 9 -10 13 -15 10 -8 -5 -13 10 -10 29 1 5 -3 6 -8 3 -11 -7 -43
33 -36 44 3 4 -2 13 -10 20 -8 7 -15 9 -15 5 0 -5 -9 0 -20 10 -22 20 -27 41
-7 28 6 -4 -12 21 -42 55 -30 34 -56 62 -59 62 -3 0 3 -10 14 -23 10 -13 0 -3
-23 21 -24 24 -41 47 -38 52 3 4 -3 14 -13 21 -16 13 -16 12 -3 -6 7 -11 2 -7
-13 8 -14 16 -24 32 -21 36 2 5 -5 17 -18 27 l-22 19 20 -25 20 -25 -28 25
c-15 13 -26 29 -23 36 3 7 -5 20 -17 31 -22 18 -22 18 -7 -3 8 -11 2 -7 -13 8
-15 16 -25 33 -23 37 3 5 -4 17 -17 27 l-22 19 20 -25 19 -25 -28 26 c-15 14
-29 34 -30 45 -2 10 -8 18 -14 17 -6 -1 -36 30 -68 70 -32 40 -84 102 -117
139 -32 37 -56 71 -53 76 3 5 -7 20 -22 33 l-27 24 25 -29 c14 -16 20 -26 13
-22 -6 3 -56 59 -110 124 -145 174 -174 193 -236 157z m94 -92 c71 -76 351
-422 387 -478 7 -11 26 -40 42 -65 17 -25 30 -49 31 -55 1 -5 5 -17 10 -26 6
-11 3 -22 -10 -33 -10 -9 -20 -13 -23 -10 -4 3 -9 -3 -12 -13 -3 -10 -21 -27
-38 -38 -18 -10 -37 -25 -41 -32 -5 -7 -12 -11 -17 -8 -5 3 -11 -3 -15 -14 -3
-11 -13 -22 -21 -25 -8 -3 -13 -10 -10 -15 4 -5 -17 -23 -44 -40 -57 -35 -65
-32 -99 30 -24 44 -148 175 -188 200 -50 31 -130 29 -188 -6 -49 -28 -77 -63
-94 -116 -10 -32 -9 -45 13 -103 14 -36 39 -86 56 -111 28 -40 29 -45 12 -45
-27 0 -52 -58 -31 -71 8 -5 9 -9 3 -9 -6 0 -17 7 -25 16 -21 26 -66 44 -107
44 -33 0 -45 -6 -70 -35 -17 -19 -43 -55 -57 -80 -15 -25 -32 -45 -37 -45 -6
0 -61 50 -123 110 -61 61 -116 110 -121 110 -6 0 -34 24 -64 53 -41 40 -47 44
-27 16 15 -20 27 -40 27 -46 0 -5 14 -23 30 -40 28 -29 29 -31 8 -26 -13 3
-29 10 -35 16 -18 13 -16 1 3 -28 15 -23 15 -26 -1 -41 -15 -16 -14 -19 10
-44 21 -22 25 -33 19 -55 -6 -23 -8 -25 -16 -11 -5 9 -13 16 -19 16 -5 0 0
-10 11 -22 11 -12 18 -28 16 -35 -3 -6 4 -15 14 -18 11 -3 19 -10 17 -15 -1
-4 26 -39 60 -76 34 -38 75 -86 91 -106 16 -21 32 -34 36 -30 4 3 4 -1 0 -11
-3 -9 -2 -17 3 -17 5 0 17 -15 28 -33 10 -17 33 -50 52 -71 18 -22 33 -45 33
-51 0 -6 14 -27 31 -48 27 -33 29 -50 3 -29 -5 4 7 -7 26 -25 19 -17 56 -44
82 -60 41 -24 48 -32 48 -61 0 -37 -2 -36 -61 10 -20 15 -42 28 -47 28 -6 0
-14 4 -17 10 -4 6 1 7 12 4 12 -4 10 0 -7 14 -23 20 -64 27 -54 10 3 -5 10 -6
15 -3 5 4 14 3 20 -1 8 -5 8 -9 -1 -14 -7 -5 8 -24 44 -55 56 -47 67 -67 27
-46 -17 9 -20 9 -15 -3 3 -9 9 -14 12 -13 4 1 19 -11 34 -26 34 -34 27 -34
-31 -1 -77 45 -275 219 -266 234 2 4 -18 26 -46 50 -28 23 -48 45 -45 48 12
11 -213 232 -235 232 -7 0 15 -27 49 -61 33 -33 64 -60 68 -59 4 1 10 -3 13
-8 30 -48 165 -194 178 -193 4 0 8 -5 8 -12 0 -22 137 -166 218 -229 43 -33
76 -63 72 -66 -3 -3 -11 0 -17 6 -7 7 -19 12 -28 12 -21 -1 49 -60 71 -60 9 0
28 -9 43 -21 14 -11 26 -17 26 -12 0 4 -5 37 -10 73 -21 138 -23 204 -6 269
20 79 79 192 124 240 l34 36 20 -40 c11 -22 46 -98 79 -170 75 -164 83 -178
103 -181 9 -1 25 5 35 14 19 17 19 18 -5 97 -24 79 -53 160 -80 222 -8 17 -14
36 -14 42 0 7 -9 31 -20 53 -11 23 -20 43 -20 44 0 1 19 10 43 20 37 17 66 18
251 16 l209 -3 30 28 c16 15 42 47 58 69 24 36 38 45 97 63 37 11 109 45 160
76 51 31 97 53 102 50 6 -4 17 -20 26 -36 15 -30 15 -31 -23 -67 -21 -21 -101
-91 -178 -157 -76 -66 -180 -156 -229 -200 -185 -165 -284 -250 -371 -320 -49
-40 -243 -207 -430 -370 -406 -355 -398 -349 -427 -341 -13 3 -48 36 -78 73
-121 149 -365 440 -393 470 -28 30 -31 31 -53 16 -21 -13 -27 -13 -41 -2 -14
12 -16 12 -9 -1 11 -20 -39 37 -65 75 -15 21 -11 19 13 -8 32 -36 36 -38 61
-26 28 13 34 24 17 34 -6 4 -62 71 -125 150 -63 79 -150 182 -193 228 -43 47
-85 100 -92 118 l-14 33 70 64 c60 56 139 124 347 295 28 24 44 32 40 21 -4
-12 -3 -15 5 -10 8 4 28 -10 53 -36 l40 -43 -40 55 c-23 30 -41 58 -41 61 0 4
50 51 112 105 62 55 133 117 158 140 162 146 259 231 448 393 117 100 265 229
329 286 64 58 124 105 133 105 9 0 32 -17 51 -37z m639 -765 c0 -5 -6 -8 -14
-8 -8 0 -18 -5 -22 -12 -5 -7 -3 -8 6 -3 8 5 11 3 8 -6 -2 -8 -27 -29 -54 -46
-27 -18 -42 -33 -33 -33 8 0 21 6 28 13 11 10 14 9 18 -1 3 -6 9 -10 14 -7 5
4 7 0 4 -7 -13 -32 -209 -128 -315 -154 -74 -18 -79 -18 -73 7 4 14 0 25 -10
30 -10 6 -14 18 -11 34 3 17 -1 27 -12 32 -11 4 -1 14 38 35 57 31 156 105
258 193 l65 55 52 -57 c29 -32 53 -61 53 -65z m210 -123 c13 -14 21 -25 18
-25 -2 0 -15 11 -28 25 -13 14 -21 25 -18 25 2 0 15 -11 28 -25z m-563 -207
c-3 -8 -6 -5 -6 6 -1 11 2 17 5 13 3 -3 4 -12 1 -19z m40 16 c-3 -3 -12 -4
-19 -1 -8 3 -5 6 6 6 11 1 17 -2 13 -5z m53 -77 c-32 -17 -120 -30 -120 -18 0
10 77 24 91 16 5 -4 9 -1 9 4 0 6 10 11 23 11 21 0 21 -1 -3 -13z m-135 -27
c-3 -6 -14 -10 -24 -10 -9 0 -21 -4 -27 -10 -5 -5 -47 -12 -93 -16 -66 -5 -85
-4 -92 7 -16 25 -10 28 64 31 39 2 96 4 125 5 33 2 51 -1 47 -7z m-1825 -14
c0 -2 -8 -10 -17 -17 -16 -13 -17 -12 -4 4 13 16 21 21 21 13z m2560 -10 c0
-2 -8 -10 -17 -17 -16 -13 -17 -12 -4 4 13 16 21 21 21 13z m-790 -37 c-64
-11 -132 -11 -125 0 3 6 42 9 88 9 72 -1 77 -2 37 -9z m454 -257 c-17 -15 -60
-51 -95 -81 -51 -42 -47 -37 21 28 47 44 90 80 95 80 6 0 -4 -12 -21 -27z
m-2133 -269 c13 -16 12 -17 -3 -4 -10 7 -18 15 -18 17 0 8 8 3 21 -13z m65
-80 c21 -26 33 -44 27 -40 -14 9 -77 87 -70 87 3 0 22 -21 43 -47z m1225 -377
c-6 -8 -46 -42 -89 -77 -91 -74 -77 -56 23 30 71 61 86 72 66 47z m-421 -360
c0 -2 -8 -10 -17 -17 -16 -13 -17 -12 -4 4 13 16 21 21 21 13z"/>
<path d="M1625 3601 c-16 -19 -16 -21 5 -51 12 -17 26 -27 33 -23 7 4 6 8 -3
11 -16 6 -39 32 -40 45 0 5 6 5 13 1 6 -4 9 -4 5 1 -4 4 -3 14 3 22 18 20 4
15 -16 -6z"/>
<path d="M1525 3500 c-3 -5 1 -10 9 -10 9 0 16 5 16 10 0 6 -4 10 -9 10 -6 0
-13 -4 -16 -10z"/>
<path d="M1736 3491 c-13 -15 -15 -24 -7 -38 18 -35 38 -46 60 -33 31 16 26
33 -7 25 -40 -8 -66 20 -37 41 10 8 16 16 13 19 -2 3 -13 -4 -22 -14z"/>
<path d="M1363 3347 c-31 -14 -37 -37 -15 -59 16 -16 22 -17 45 -7 32 14 32
16 9 50 -14 22 -21 25 -39 16z"/>
<path d="M1560 3270 c0 -5 5 -10 11 -10 5 0 7 5 4 10 -3 6 -8 10 -11 10 -2 0
-4 -4 -4 -10z"/>
<path d="M1220 3241 c0 -5 10 -7 23 -4 16 3 18 2 9 -5 -11 -7 -10 -10 3 -16
14 -5 15 -9 5 -21 -10 -12 -9 -15 3 -15 9 0 22 10 28 22 10 18 8 24 -7 35 -20
15 -64 18 -64 4z"/>
<path d="M847 2910 c9 -16 21 -30 26 -30 5 0 -1 14 -13 30 -12 17 -24 30 -26
30 -3 0 3 -13 13 -30z"/>
<path d="M920 2886 c0 -2 8 -10 18 -17 15 -13 16 -12 3 4 -13 16 -21 21 -21
13z"/>
<path d="M990 2706 c0 -2 8 -10 18 -17 15 -13 16 -12 3 4 -13 16 -21 21 -21
13z"/>
<path d="M583 2543 c-45 -38 -82 -70 -82 -73 0 -3 16 -23 35 -45 20 -22 34
-32 30 -22 -3 9 -1 17 3 17 5 0 11 -5 13 -12 3 -7 24 6 51 31 26 24 45 47 42
51 -5 9 25 39 40 39 5 0 11 4 13 10 2 6 -1 11 -8 11 -6 0 -8 5 -5 10 3 6 -1
10 -9 10 -9 0 -15 3 -15 8 8 49 -16 41 -108 -35z m37 -27 c0 -3 -4 -8 -10 -11
-5 -3 -10 -1 -10 4 0 6 5 11 10 11 6 0 10 -2 10 -4z m40 -41 c0 -12 -19 -12
-23 0 -4 9 -1 12 9 8 7 -3 14 -7 14 -8z m-117 -19 c4 -10 1 -13 -9 -9 -7 3
-14 9 -14 14 0 14 17 10 23 -5z"/>
<path d="M689 2503 c-13 -16 -12 -17 4 -4 9 7 17 15 17 17 0 8 -8 3 -21 -13z"/>
<path d="M667 2447 c-71 -67 -97 -104 -62 -91 9 4 16 -3 21 -20 8 -32 9 -32
56 1 23 15 37 32 34 40 -3 7 1 13 9 13 14 0 75 47 75 59 0 4 -12 21 -27 38
l-28 32 -78 -72z"/>
<path d="M768 2392 c-26 -27 -63 -59 -82 -73 -41 -27 -41 -27 -21 -53 13 -18
17 -16 72 33 31 28 62 51 67 51 6 0 -17 -26 -52 -58 -59 -53 -62 -58 -49 -77
14 -18 17 -17 84 37 38 32 77 66 88 77 17 20 17 22 0 41 -10 11 -22 17 -26 14
-5 -3 -6 1 -4 9 3 7 -3 21 -13 30 -17 16 -21 14 -64 -31z"/>
<path d="M813 2258 c-40 -33 -73 -66 -73 -72 0 -6 14 -26 31 -45 l31 -33 31
29 c18 16 56 44 84 63 29 19 53 38 53 42 0 13 -62 78 -74 78 -6 0 -44 -28 -83
-62z"/>
<path d="M904 2177 c-74 -54 -91 -74 -77 -88 8 -8 13 -5 18 10 4 12 15 21 26
21 11 0 17 5 14 10 -3 6 -1 10 4 10 11 0 27 15 65 58 28 33 15 27 -50 -21z"/>
<path d="M943 2127 c-34 -29 -65 -56 -69 -60 -4 -4 5 -18 19 -31 15 -14 27
-32 27 -40 0 -26 38 -9 100 46 33 29 60 54 60 56 0 11 -57 82 -65 81 -5 0 -38
-23 -72 -52z"/>
<path d="M2001 2164 c0 -11 3 -14 6 -6 3 7 2 16 -1 19 -3 4 -6 -2 -5 -13z"/>
<path d="M1213 2097 c-2 -15 0 -18 6 -8 7 10 12 8 25 -10 9 -13 16 -19 16 -13
0 6 -10 20 -23 32 l-23 22 -1 -23z"/>
<path d="M1021 2014 c-77 -71 -76 -69 -28 -128 l24 -29 76 52 c42 29 81 58 86
65 7 8 -2 26 -30 59 -22 26 -44 47 -49 47 -4 0 -40 -30 -79 -66z"/>
<path d="M1210 2050 c-22 -5 -23 -7 -7 -13 10 -4 26 -3 34 2 21 11 4 19 -27
11z"/>
<path d="M1120 1900 c-41 -33 -76 -63 -77 -67 -1 -5 16 -29 40 -55 l42 -47 83
60 83 61 -28 37 c-39 51 -57 71 -63 71 -3 0 -39 -27 -80 -60z m45 -115 c-16
-13 -37 -24 -45 -25 -8 0 1 11 20 25 46 31 64 32 25 0z"/>
<path d="M1374 1852 l-21 -18 22 -28 c17 -21 28 -26 44 -21 32 10 43 38 25 63
-18 26 -42 27 -70 4z"/>
<path d="M1212 1766 l-72 -53 46 -57 c26 -31 52 -56 58 -56 7 0 42 27 78 59
l66 59 -41 50 c-23 28 -47 51 -53 51 -6 1 -43 -23 -82 -53z"/>
<path d="M1329 1643 c-35 -31 -66 -60 -68 -65 -5 -13 59 -78 77 -78 18 0 122
99 122 117 0 15 -50 83 -61 83 -4 0 -35 -25 -70 -57z m76 -43 c-3 -5 -10 -10
-16 -10 -5 0 -9 5 -9 10 0 6 7 10 16 10 8 0 12 -4 9 -10z"/>
<path d="M4586 3695 c4 -8 11 -15 16 -15 6 0 5 6 -2 15 -7 8 -14 15 -16 15 -2
0 -1 -7 2 -15z"/>
<path d="M4602 3653 c-11 -4 -10 -8 1 -22 8 -9 42 -55 76 -104 50 -72 59 -92
55 -116 -6 -30 12 -53 26 -31 6 9 9 9 16 -1 4 -7 3 -14 -4 -17 -20 -6 9 -51
38 -57 31 -7 121 -96 141 -140 8 -16 19 -30 26 -30 6 0 15 -4 20 -9 5 -5 3 -6
-4 -2 -7 4 -13 4 -13 1 0 -8 141 -205 147 -205 5 0 -1 11 -49 81 -39 58 -46
75 -26 63 7 -5 8 -3 4 5 -5 7 -11 10 -14 7 -7 -7 -42 24 -42 37 0 5 8 3 17 -4
9 -8 -13 27 -50 77 -37 50 -85 122 -108 160 -42 69 -87 127 -145 188 -16 18
-43 54 -60 79 -16 26 -31 47 -34 46 -3 0 -11 -3 -18 -6z"/>
<path d="M5080 3021 c5 -11 15 -23 21 -27 6 -3 3 5 -6 20 -20 30 -30 35 -15 7z"/>
<path d="M4375 2829 c-105 -69 -182 -156 -214 -241 -17 -46 -5 -32 35 40 47
83 121 158 196 197 32 17 58 33 58 38 0 13 -13 7 -75 -34z"/>
<path d="M10175 2793 c46 -71 65 -97 65 -89 0 11 -71 116 -78 116 -2 0 4 -12
13 -27z"/>
<path d="M4517 2675 c4 -16 15 -49 25 -73 11 -24 17 -50 14 -58 -3 -8 1 -14
10 -14 12 0 15 6 10 24 -9 38 -66 154 -59 121z"/>
<path d="M4120 2525 c-13 -14 -19 -25 -13 -25 6 0 18 11 27 25 9 14 15 25 13
25 -2 0 -14 -11 -27 -25z"/>
<path d="M3223 2073 c-18 -10 -81 -61 -140 -114 -124 -111 -961 -828 -1827
-1568 -324 -276 -406 -354 -406 -383 0 -5 144 -8 319 -8 l319 0 8 32 c9 45 43
149 55 174 20 39 8 59 -36 59 -27 0 -39 4 -37 13 1 9 -6 10 -23 6 -42 -10 -28
3 23 22 169 61 277 113 382 183 149 100 153 102 100 52 -39 -37 -42 -42 -20
-37 14 3 36 -2 50 -9 14 -8 21 -15 15 -15 -5 0 5 -13 22 -29 18 -15 30 -31 27
-34 -3 -3 -1 -14 5 -25 10 -18 8 -19 -32 -11 -128 25 -143 23 -87 -16 15 -11
51 -37 80 -59 48 -36 50 -40 34 -57 -9 -10 -13 -23 -9 -29 9 -14 16 -18 -145
84 -79 51 -119 71 -127 64 -6 -5 -10 -15 -7 -23 3 -7 -19 -29 -57 -53 l-62
-41 39 -10 c22 -5 86 -17 144 -26 162 -25 177 -28 157 -33 -10 -2 -31 -17 -46
-33 -16 -16 -34 -29 -40 -29 -7 0 -9 -4 -6 -10 3 -5 -1 -10 -9 -10 -9 0 -16
-7 -16 -16 0 -8 -4 -13 -8 -10 -5 3 -9 -1 -9 -9 0 -14 18 -2 141 90 l60 45
117 0 c64 0 154 6 200 14 46 8 104 16 129 18 l45 3 6 -115 c4 -63 7 -116 8
-117 0 -2 202 -3 449 -3 l447 0 130 116 c72 64 171 150 220 192 259 217 463
393 487 419 41 43 45 80 14 126 -14 21 -113 144 -218 274 -106 130 -245 301
-308 379 -483 598 -457 568 -500 579 -15 3 -37 -1 -57 -12z m45 -133 c7 -11
11 -20 9 -20 -2 0 -12 9 -22 20 -10 11 -14 20 -9 20 5 0 15 -9 22 -20z m29
-207 c8 -13 22 -23 29 -23 19 0 18 10 -3 25 -9 7 -17 22 -18 33 -2 21 -1 21
23 1 14 -10 31 -19 39 -19 8 0 11 -4 8 -10 -3 -5 2 -10 12 -10 11 0 25 -6 33
-12 20 -19 -28 50 -74 107 -23 27 -36 46 -30 42 24 -14 759 -926 843 -1045 28
-40 31 -36 -103 -149 -50 -42 -81 -65 -68 -51 45 50 28 172 -22 164 -24 -3
-58 25 -38 32 9 3 8 7 -2 18 -8 8 -18 14 -22 14 -15 0 -44 34 -44 52 0 10 -7
18 -16 18 -14 0 -14 -3 -4 -15 10 -13 9 -15 -9 -15 -13 0 -21 6 -21 18 0 22
-17 48 -26 39 -4 -3 -1 -13 6 -22 8 -10 9 -19 3 -27 -15 -19 -15 -105 -2 -163
17 -76 76 -195 96 -195 15 0 14 -3 -5 -22 -25 -25 -21 -28 -84 62 -17 25 -46
64 -65 87 -19 24 -32 47 -29 52 3 5 -2 15 -12 22 -16 13 -16 12 -3 -6 7 -11
-1 -4 -19 15 -17 19 -57 72 -87 118 -54 79 -72 99 -59 67 3 -8 3 -15 1 -15 -2
0 -21 34 -41 75 -21 41 -40 72 -43 70 -2 -3 -10 0 -18 6 -10 9 -13 5 -13 -22
0 -23 9 -43 33 -68 36 -39 34 -38 -78 45 -102 76 -313 224 -319 224 -10 0
-156 73 -153 76 2 2 18 -1 37 -6 l33 -10 -25 28 c-14 15 -28 36 -32 47 -6 17
-4 16 20 -5 15 -14 24 -19 20 -12 -4 7 -11 26 -16 43 -8 27 -7 29 11 24 13 -4
19 -2 19 9 0 9 7 16 16 16 23 0 11 57 -27 132 -31 61 -36 84 -17 72 6 -4 53
-8 103 -8 l92 -1 -36 73 -36 73 50 45 50 45 63 -68 c35 -37 70 -78 79 -90z
m-246 -594 c-5 -26 -9 -34 -10 -19 -1 27 9 73 15 67 2 -2 0 -23 -5 -48z m91
-29 c29 -41 71 -102 92 -135 22 -33 67 -96 100 -140 67 -88 118 -165 110 -165
-3 0 -35 18 -72 39 -142 84 -139 82 -134 106 2 12 -1 26 -7 29 -7 5 -11 -3
-11 -21 0 -57 -37 9 -75 132 -20 66 -45 146 -55 178 -11 32 -15 57 -10 55 4
-2 32 -37 62 -78z m-133 11 c-11 -29 -43 -87 -71 -128 l-51 -76 -18 48 c-10
27 -16 51 -13 54 2 3 7 -5 11 -17 7 -28 15 -28 32 1 26 43 124 177 127 174 2
-2 -6 -27 -17 -56z m-195 -383 c-4 -7 -19 -29 -34 -48 -47 -61 -46 -67 5 -110
21 -17 25 -19 14 -5 -15 19 -15 21 5 40 23 22 76 31 76 13 0 -16 29 24 30 40
0 6 -9 12 -20 12 -22 0 -40 28 -32 49 3 9 0 11 -8 6 -9 -6 -11 -4 -5 4 8 14
116 6 148 -10 27 -15 21 -27 -36 -63 -30 -19 -74 -53 -98 -76 l-44 -41 65 -61
c115 -107 125 -115 149 -121 24 -6 24 -5 17 55 -3 34 -6 68 -6 78 0 10 -19 26
-45 39 -25 12 -45 25 -45 29 0 12 20 37 20 26 0 -6 11 -10 25 -9 20 3 25 -1
25 -20 0 -13 4 -26 8 -29 4 -3 7 37 5 87 -2 66 0 85 7 67 5 -14 13 -112 17
-218 l8 -192 -45 6 c-62 8 -212 41 -243 53 -30 12 -29 10 -62 176 -30 155 -30
152 -7 132 20 -18 34 -22 30 -9 -3 7 71 112 79 112 2 0 1 -6 -3 -12z m-345
-350 c29 -26 54 -39 86 -44 46 -6 66 -21 47 -33 -6 -3 -38 -4 -72 -1 l-63 5
-44 62 c-40 57 -42 61 -19 55 13 -4 43 -24 65 -44z m125 -225 c23 -66 19 -88
-5 -28 -29 75 -32 88 -21 81 6 -3 17 -27 26 -53z m-1069 7 c-3 -5 -16 -15 -28
-21 -21 -10 -21 -9 2 10 25 23 36 27 26 11z"/>
<path d="M3315 1750 c3 -5 8 -10 11 -10 2 0 4 5 4 10 0 6 -5 10 -11 10 -5 0
-7 -4 -4 -10z"/>
<path d="M3216 1431 c-4 -5 -4 -16 -1 -25 3 -9 7 -24 10 -33 7 -22 21 -6 30
35 6 28 4 32 -14 32 -11 0 -22 -4 -25 -9z"/>
<path d="M3882 873 c6 -7 14 -10 19 -7 15 9 10 20 -10 20 -15 0 -17 -3 -9 -13z"/>
<path d="M3615 850 c9 -16 18 -30 21 -30 2 0 -2 14 -11 30 -9 17 -18 30 -21
30 -2 0 2 -13 11 -30z"/>
<path d="M3650 791 c5 -11 15 -23 21 -27 6 -3 3 5 -6 20 -20 30 -30 35 -15 7z"/>
<path d="M3257 823 c-4 -3 -7 -13 -7 -22 1 -13 3 -13 11 2 11 19 8 33 -4 20z"/>
<path d="M2845 610 c-3 -5 -1 -10 4 -10 6 0 11 5 11 10 0 6 -2 10 -4 10 -3 0
-8 -4 -11 -10z"/>
<path d="M0 1619 c0 -13 356 -448 527 -644 41 -47 50 -74 37 -108 -3 -8 -92
-93 -197 -188 -257 -233 -370 -344 -366 -357 4 -11 112 86 457 406 63 58 118
116 123 130 14 37 -6 89 -60 151 -25 29 -70 83 -99 120 -118 145 -380 461
-408 491 -12 12 -14 12 -14 -1z"/>
<path d="M10189 1413 c-13 -21 -26 -40 -29 -43 -10 -7 -32 -51 -28 -55 2 -2
23 26 47 61 24 35 42 67 39 70 -3 3 -16 -12 -29 -33z"/>
<path d="M9065 1419 c-185 -52 -173 -46 -167 -74 5 -28 0 -30 -29 -14 -11 5
-16 15 -13 21 5 8 1 9 -12 4 -10 -4 -81 -26 -156 -48 -76 -23 -136 -43 -134
-46 2 -2 20 1 40 6 42 12 48 -1 17 -37 -10 -12 -28 -45 -39 -74 -11 -29 -27
-70 -36 -92 l-16 -40 6 35 c4 19 19 70 34 113 15 42 23 77 18 77 -5 0 -11 -7
-14 -15 -3 -8 -14 -17 -25 -20 -10 -4 -19 -14 -19 -23 -1 -21 -46 -56 -64 -49
-8 3 -17 23 -21 44 -4 21 -9 33 -12 27 -7 -20 87 -389 213 -834 13 -47 33
-123 44 -170 12 -47 30 -113 41 -148 l21 -62 134 0 c121 0 134 2 134 18 0 30
-12 62 -21 56 -18 -11 -9 16 12 34 66 62 222 33 323 -59 53 -48 54 -49 121
-49 l67 0 -40 48 c-63 76 -140 199 -163 264 -21 55 -26 61 -78 88 -53 26 -145
112 -168 155 -6 11 -16 54 -22 95 -15 95 -35 163 -60 204 -20 32 -71 222 -71
261 1 30 16 -1 25 -50 11 -66 65 -166 115 -216 26 -26 79 -63 117 -83 113 -56
175 -68 373 -71 110 -2 205 -9 255 -19 44 -9 85 -16 91 -16 15 0 22 27 34 122
11 94 38 149 91 188 46 33 129 67 189 76 40 7 40 7 40 52 0 42 -1 44 -17 31
-35 -28 -83 -50 -83 -39 0 7 -15 2 -35 -10 -20 -12 -44 -20 -54 -17 -14 3 -17
0 -14 -13 4 -13 -6 -22 -39 -34 -23 -8 -50 -17 -58 -18 -8 -2 -22 -25 -31 -53
l-16 -50 -7 85 c-12 131 -40 259 -75 330 -30 63 -32 61 -5 -10 16 -46 23 -101
13 -120 -4 -8 -12 -35 -19 -60 -6 -25 -19 -58 -28 -75 -8 -16 -33 -65 -54
-108 -40 -83 -95 -147 -126 -147 -10 0 -31 -14 -47 -30 -44 -46 -49 -36 -16
26 34 61 40 81 13 47 -21 -28 -32 -21 -57 36 -24 54 -71 121 -85 121 -6 0 -30
-18 -52 -40 -46 -43 -62 -49 -72 -23 -6 15 -8 14 -20 -2 -13 -18 -15 -17 -40
8 -17 17 -35 25 -53 24 -24 -2 -33 7 -67 65 -22 37 -43 66 -46 66 -30 -3 -43
26 -55 120 -4 41 -1 63 14 97 11 25 25 45 30 45 6 0 31 20 55 45 25 25 44 45
43 44 -1 0 -33 -9 -72 -20z m-262 -581 c33 -20 68 -52 89 -81 18 -26 52 -67
76 -90 30 -30 41 -48 36 -60 -9 -24 -50 -21 -76 5 -13 13 -26 22 -30 21 -5 -2
-8 2 -8 8 0 6 -7 3 -16 -5 -31 -31 -149 -90 -174 -87 -37 4 -45 15 -65 81 -10
33 -22 60 -27 60 -4 0 -8 10 -8 21 0 12 -9 37 -21 55 -20 32 -19 54 2 54 6 0
8 -4 5 -9 -9 -14 17 -19 42 -8 12 6 22 19 22 29 0 10 7 21 15 24 8 4 12 11 8
17 -13 21 76 -3 130 -35z m12 -288 c-3 -5 3 -10 14 -10 11 0 23 -4 26 -10 3
-5 0 -8 -7 -5 -8 3 -14 -4 -15 -21 0 -16 2 -22 7 -15 4 8 10 -9 14 -40 5 -38
4 -54 -6 -60 -20 -13 -23 -11 -37 29 -8 20 -26 56 -42 80 -24 36 -26 42 -11
44 9 0 22 2 29 2 6 1 15 5 19 9 11 10 16 9 9 -3z m-115 -260 c0 -5 -7 -10 -15
-10 -8 0 -15 6 -15 14 0 8 -3 22 -7 32 -5 14 -2 13 15 -4 12 -12 22 -26 22
-32z m316 -57 c-17 -18 -22 -19 -24 -7 -2 9 2 29 8 45 l13 30 12 -23 c9 -19 8
-26 -9 -45z m4 -65 c39 6 38 -9 -1 -32 -36 -21 -49 -11 -40 32 3 16 6 20 8 11
3 -11 12 -14 33 -11z"/>
<path d="M8164 1334 c-16 -24 -16 -30 1 -102 17 -74 34 -121 35 -95 0 7 -7 38
-15 70 -18 69 -19 125 -3 141 7 7 9 12 5 12 -3 0 -14 -12 -23 -26z"/>
<path d="M0 786 l0 -238 43 39 c208 184 310 278 314 291 7 17 -9 68 -20 65 -4
-2 -22 5 -39 15 -42 24 -65 29 -163 37 -44 4 -86 12 -94 19 -12 8 -13 8 -7 -1
9 -16 -6 -17 -22 -1 -9 9 -12 -41 -12 -226z"/>
<path d="M7004 893 c-43 -49 -63 -74 -45 -58 37 34 135 145 128 145 -2 0 -40
-39 -83 -87z"/>
<path d="M7200 873 c-131 -117 -199 -183 -209 -201 -7 -14 29 -62 175 -232
102 -118 191 -221 198 -229 12 -11 26 -2 92 61 44 40 114 104 157 142 42 37
77 71 77 75 0 4 -53 69 -119 145 -65 75 -152 177 -192 226 -41 49 -78 89 -84
89 -5 0 -48 -34 -95 -76z"/>
<path d="M7068 853 c-21 -5 -24 -33 -4 -33 16 0 40 27 29 32 -4 3 -16 3 -25 1z"/>
<path d="M6910 800 c0 -5 5 -10 11 -10 5 0 7 5 4 10 -3 6 -8 10 -11 10 -2 0
-4 -4 -4 -10z"/>
<path d="M7690 224 c-52 -46 -96 -88 -98 -92 -1 -4 26 -36 61 -70 l63 -63 169
3 169 3 -127 144 c-70 79 -127 148 -127 153 0 17 -18 5 -110 -78z"/>
<path d="M10011 205 c-2 -27 -3 -54 -2 -58 1 -5 -12 -14 -29 -20 -21 -8 -30
-18 -30 -33 0 -12 5 -24 12 -26 6 -2 11 -18 10 -36 0 -25 3 -32 18 -32 15 0
20 10 25 53 3 28 5 86 3 127 -3 62 -5 66 -7 25z"/>
</g>
</svg>
