<?xml version="1.0" standalone="no"?>
<!DOCTYPE svg PUBLIC "-//W3C//DTD SVG 20010904//EN"
 "http://www.w3.org/TR/2001/REC-SVG-20010904/DTD/svg10.dtd">
<svg version="1.0" xmlns="http://www.w3.org/2000/svg"
 width="500.000000pt" height="500.000000pt" viewBox="0 0 500.000000 500.000000"
 preserveAspectRatio="xMidYMid meet">
<metadata>
Created by potrace 1.14, written by Peter Selinger 2001-2017
</metadata>
<g transform="translate(0.000000,500.000000) scale(0.100000,-0.100000)"
fill="#000000" stroke="none">
<path d="M1765 4441 c-65 -23 -113 -57 -176 -123 -29 -29 -51 -53 -49 -53 2 0
0 -10 -4 -22 -4 -13 -11 -23 -16 -23 -5 0 -7 -11 -4 -24 4 -22 1 -24 -23 -20
-86 14 -183 73 -183 110 0 22 23 64 34 65 53 3 72 19 24 19 -40 0 -76 -30
-101 -83 -21 -43 -32 -143 -18 -152 6 -3 9 -10 6 -15 -3 -5 3 -15 14 -22 15
-9 17 -15 9 -25 -6 -7 -17 -13 -25 -13 -20 0 -84 -35 -118 -65 -56 -50 -117
-59 -172 -25 -24 14 -31 24 -26 37 3 10 3 15 -2 11 -10 -10 -10 -91 0 -108 6
-9 4 -11 -6 -5 -8 5 -5 -1 5 -13 11 -12 25 -22 33 -22 7 0 13 -4 13 -9 0 -5
10 -12 23 -16 20 -6 18 -8 -15 -17 -20 -5 -58 -29 -83 -52 -37 -35 -45 -48
-44 -77 l1 -34 8 35 c11 46 57 83 125 102 l55 15 -20 -36 c-18 -34 -40 -105
-39 -125 0 -5 -4 -12 -11 -16 -6 -4 -12 -14 -13 -22 -4 -20 -47 -73 -77 -91
-60 -36 -142 -26 -169 20 -10 17 -10 17 -11 1 0 -9 5 -20 10 -23 6 -3 10 -13
10 -22 0 -15 52 -86 90 -124 9 -9 35 -28 58 -43 l42 -26 -22 -35 c-24 -36 -52
-44 -89 -25 -16 9 -18 8 -16 -7 13 -67 72 -145 127 -169 l38 -17 -16 -34 c-16
-34 -62 -57 -70 -35 -2 7 -8 12 -13 12 -4 0 -6 -7 -3 -15 4 -10 0 -15 -11 -15
-17 0 -17 -1 0 -20 22 -24 83 -27 125 -5 36 19 38 7 5 -29 -22 -24 -36 -31
-57 -27 -5 0 -8 -3 -8 -8 0 -13 69 -44 84 -38 33 13 55 -43 34 -85 -8 -17 -58
-22 -58 -6 0 4 -6 8 -12 8 -7 0 -1 -11 13 -26 31 -31 104 -39 154 -18 46 19
46 19 43 -21 -1 -19 -7 -35 -13 -35 -5 0 -4 -4 4 -9 11 -7 9 -13 -8 -30 -11
-11 -29 -21 -39 -22 -13 0 -12 -2 5 -9 15 -6 36 -4 64 5 50 18 56 13 96 -71
21 -43 36 -61 57 -69 23 -8 30 -6 42 10 18 24 18 46 0 23 -16 -21 -39 -23 -55
-4 -8 10 -7 22 4 49 l15 36 34 -14 c27 -11 35 -12 39 -2 3 9 9 9 26 0 11 -7
34 -13 51 -13 35 0 41 -15 8 -17 -51 -4 -64 -13 -88 -65 -19 -40 -32 -55 -55
-62 -16 -5 -44 -15 -62 -22 -17 -8 -34 -14 -38 -14 -15 0 -102 -45 -149 -77
-59 -41 -131 -115 -153 -158 -9 -16 -19 -32 -24 -35 -10 -7 -99 -5 -244 5 -60
4 -137 9 -170 10 -63 2 -131 -18 -153 -44 -12 -16 -12 -93 2 -166 3 -16 10
-65 16 -108 11 -76 15 -99 25 -162 2 -16 7 -48 10 -70 4 -22 11 -69 16 -105 6
-36 13 -83 16 -105 3 -22 11 -77 17 -123 9 -61 9 -85 1 -92 -6 -5 -38 -12 -71
-15 -32 -3 -70 -8 -84 -11 -27 -5 -26 -2 -21 -96 1 -18 40 -32 121 -42 25 -3
54 -8 65 -10 52 -9 121 -19 127 -18 3 1 44 -5 90 -13 45 -8 103 -18 128 -21
52 -6 64 -8 145 -23 33 -6 76 -13 95 -15 19 -3 44 -7 55 -9 11 -3 45 -8 75
-12 30 -4 62 -9 71 -10 35 -7 96 -16 129 -21 19 -2 46 -6 60 -9 46 -10 143
-27 175 -31 11 -1 20 -3 20 -4 0 -1 11 -3 25 -4 33 -4 102 -14 165 -26 61 -11
139 -22 180 -26 17 -2 47 -7 67 -12 46 -12 155 -13 206 -2 20 4 62 11 92 14
30 3 69 8 85 10 17 3 57 7 90 10 33 3 71 8 85 11 14 3 50 7 80 10 30 3 66 7
80 10 14 3 45 7 70 11 25 3 86 12 135 21 50 8 101 16 115 18 14 1 36 5 50 9
14 3 41 8 60 10 19 2 62 9 95 14 55 10 94 16 180 27 48 7 110 15 136 20 13 2
76 11 139 20 63 9 126 18 140 20 14 2 45 6 70 10 25 3 56 8 70 10 14 2 50 7
80 10 30 4 66 8 80 10 14 2 43 6 65 10 23 3 52 7 65 10 14 3 45 7 70 10 25 3
70 10 100 15 30 5 80 13 110 16 60 6 94 20 85 34 -3 4 -1 20 5 34 10 26 -7 55
-33 57 -7 0 -20 2 -30 4 -10 2 -48 6 -85 9 -37 3 -76 8 -87 10 -17 3 -86 9
-260 22 -22 1 -56 3 -75 3 -19 1 -42 6 -50 11 -13 9 -12 12 4 25 11 8 21 21
23 28 1 6 18 71 37 144 35 131 45 170 51 208 1 11 8 38 13 60 6 22 14 56 17
75 3 19 11 53 17 75 6 22 12 54 13 70 2 17 11 62 19 100 9 39 18 81 20 95 2
14 12 59 20 100 9 41 19 93 23 115 3 22 9 49 12 60 12 33 5 115 -10 130 -13
12 -54 19 -189 30 -30 3 -66 7 -80 10 -23 4 -63 9 -180 20 -25 2 -63 7 -85 9
-22 3 -71 8 -110 12 -38 3 -83 8 -100 10 -16 2 -52 6 -80 8 -70 6 -205 18
-235 21 -61 6 -98 -26 -106 -89 -3 -17 -9 -58 -14 -91 -6 -33 -12 -71 -14 -85
-2 -14 -12 -65 -21 -115 -10 -49 -19 -101 -21 -115 -3 -14 -7 -32 -9 -40 -2
-8 -7 -31 -10 -50 -3 -19 -15 -71 -26 -115 -11 -44 -23 -93 -25 -110 -3 -16
-9 -53 -15 -81 -5 -28 -12 -64 -14 -80 -5 -29 -17 -95 -20 -104 -2 -7 -19 -92
-21 -105 -1 -5 -3 -12 -4 -15 -2 -5 -10 -62 -12 -87 -2 -14 -18 -7 -18 8 0 20
-66 86 -95 96 -11 3 -25 14 -32 23 -7 10 -26 23 -43 30 -34 14 -38 33 -11 52
10 7 57 48 103 91 71 65 84 81 80 102 l-4 25 -26 -21 c-15 -11 -62 -54 -105
-94 l-78 -74 -27 27 c-34 35 -69 98 -75 138 -10 63 -50 108 -97 106 -31 -1
-61 30 -67 67 -1 8 -22 33 -46 56 -24 22 -52 56 -62 75 -36 72 -187 189 -297
230 -56 21 -73 33 -117 82 l-24 27 29 -4 c16 -2 51 -8 78 -13 27 -6 63 -8 80
-5 36 5 136 53 136 65 0 4 5 8 10 8 6 0 51 29 100 65 142 105 175 172 183 380
4 115 5 120 31 140 54 40 165 155 151 155 -3 0 4 9 15 20 24 24 50 84 50 116
0 29 10 30 32 5 31 -37 24 -101 -14 -118 -12 -5 -17 -12 -12 -16 15 -9 68 21
79 46 6 12 8 37 4 55 -3 17 -3 32 1 32 4 0 5 15 0 33 -4 18 -3 43 1 54 4 12 9
45 10 73 2 46 6 53 33 67 51 26 85 66 95 111 11 50 0 61 -31 33 -12 -12 -18
-21 -12 -22 5 0 -4 -5 -20 -10 -26 -7 -36 -4 -71 23 -40 31 -50 52 -35 73 11
16 11 75 0 75 -5 0 -7 7 -4 15 4 8 2 15 -4 15 -16 0 -7 52 17 98 32 62 35 105
11 127 -11 10 -21 14 -22 9 0 -5 -2 -14 -2 -19 -1 -6 -9 -21 -18 -33 -15 -22
-23 -24 -94 -23 -42 0 -79 3 -82 6 -2 2 -14 0 -25 -6 -12 -7 -17 -7 -13 -1 3
6 0 12 -6 15 -10 3 -10 7 0 20 7 8 13 34 14 56 0 22 4 38 8 36 5 -3 12 0 16 6
5 8 3 9 -6 4 -10 -6 -12 -4 -6 10 5 14 4 16 -7 6 -12 -9 -14 -7 -14 11 -1 13
-1 31 -2 40 -2 27 -117 135 -167 159 -57 25 -69 16 -25 -18 41 -32 81 -114 81
-166 l0 -38 -32 17 c-21 11 -59 17 -108 18 -69 1 -78 4 -116 34 -22 18 -57 37
-77 43 -22 6 -37 16 -37 25 0 17 36 33 62 28 16 -3 16 -1 2 21 -15 23 -52 39
-86 38 -25 -1 -78 -24 -78 -34 0 -5 -7 -9 -15 -9 -8 0 -15 -4 -15 -8 0 -4 -17
-9 -37 -10 -21 -2 -58 -12 -82 -24 -24 -12 -51 -21 -60 -20 -9 1 -26 2 -38 2
-51 0 -14 114 47 149 22 12 40 24 40 27 0 10 -59 2 -105 -15z m-816 -1157
c-17 -21 -31 -17 -19 6 6 11 15 18 21 14 6 -4 6 -11 -2 -20z"/>
<path d="M3007 1805 c-16 -14 -33 -23 -38 -20 -5 4 -9 1 -9 -4 0 -25 39 -6 69
32 19 24 11 21 -22 -8z"/>
</g>
</svg>
