<?xml version="1.0" standalone="no"?>
<!DOCTYPE svg PUBLIC "-//W3C//DTD SVG 20010904//EN"
 "http://www.w3.org/TR/2001/REC-SVG-20010904/DTD/svg10.dtd">
<svg version="1.0" xmlns="http://www.w3.org/2000/svg"
 width="1024.000000pt" height="1024.000000pt" viewBox="0 0 1024.000000 1024.000000"
 preserveAspectRatio="xMidYMid meet">
<metadata>
Created by potrace 1.14, written by Peter Selinger 2001-2017
</metadata>
<g transform="translate(0.000000,1024.000000) scale(0.100000,-0.100000)"
fill="#000000" stroke="none">
<path d="M7615 9666 c-9 -19 -22 -33 -29 -30 -7 3 -21 -4 -31 -16 -10 -11 -27
-20 -37 -20 -10 0 -33 -7 -49 -16 -17 -8 -37 -13 -44 -10 -9 3 -15 -11 -21
-47 -8 -48 -9 -43 -12 56 -1 59 -7 107 -11 107 -11 0 -21 -25 -21 -51 0 -10
-6 -19 -14 -19 -8 0 -16 -6 -19 -14 -3 -8 -19 -17 -36 -21 -17 -4 -33 -11 -36
-16 -4 -5 -17 -9 -29 -9 -13 0 -39 -7 -59 -15 -19 -8 -37 -11 -41 -8 -3 4 -6
-6 -6 -21 0 -16 -4 -25 -10 -21 -6 3 -10 48 -10 101 0 97 -12 121 -29 58 -10
-37 -44 -74 -67 -74 -7 0 -17 -8 -23 -17 -5 -10 -13 -16 -18 -14 -4 1 -27 0
-51 -3 -48 -6 -112 -51 -112 -78 0 -16 14 -18 143 -19 l142 0 -45 -21 c-25
-11 -66 -31 -92 -44 -27 -13 -54 -24 -60 -24 -15 -1 -58 -35 -58 -46 0 -4 -7
-15 -15 -23 -10 -13 -15 -58 -20 -186 -5 -171 -15 -238 -15 -107 0 41 -4 72
-10 72 -5 0 -10 -9 -10 -19 0 -17 -33 -57 -72 -87 -17 -14 -90 -27 -145 -26
-25 0 -43 -4 -43 -11 0 -6 -7 -2 -15 9 -13 17 -14 17 -15 2 0 -16 -13 -18
-122 -18 -67 0 -119 -2 -117 -4 2 -2 199 -7 437 -11 l433 -7 -3 133 -3 134
335 1 c184 0 363 -1 397 -3 l62 -5 3 -41 c2 -23 -4 -70 -12 -104 -18 -75 -28
-81 -152 -85 l-87 -3 -8 50 -7 50 -6 -50 -5 -50 -60 -6 c-33 -3 -48 -7 -32 -9
15 -1 32 -4 37 -5 6 -1 78 -3 160 -4 150 -1 150 -1 146 -23 -3 -13 -8 -44 -11
-70 -4 -29 -11 -48 -19 -48 -7 0 -21 -9 -31 -20 -10 -11 -30 -20 -44 -20 -14
0 -47 -7 -72 -14 l-47 -14 -6 30 c-3 17 -7 63 -8 102 -1 55 -2 60 -5 21 -7
-109 -13 -133 -36 -140 -12 -3 -64 -9 -115 -13 -106 -8 -99 -14 -105 88 l-3
55 -2 -63 c-2 -58 -4 -63 -29 -74 -16 -6 -64 -14 -108 -18 l-80 -7 95 -2 c52
-2 156 -3 230 -4 l135 -2 -3 -24 c-3 -28 -33 -94 -39 -87 -3 2 -13 -3 -23 -12
-54 -49 -87 -67 -92 -50 -3 8 -12 1 -22 -15 -35 -53 -46 -36 -47 76 -1 91 -2
97 -11 57 -27 -129 -36 -149 -73 -154 -9 -1 -20 -7 -23 -13 -4 -6 -26 -14 -49
-18 -70 -11 -49 -25 40 -27 45 0 67 -3 50 -5 -18 -2 -33 -9 -33 -14 0 -8 -60
-36 -67 -31 -2 1 -14 -9 -29 -23 -14 -13 -35 -25 -47 -27 -18 -2 -23 -12 -28
-48 -3 -25 -7 57 -7 182 -2 207 0 228 16 237 15 9 15 10 -5 11 -21 0 -23 5
-23 48 l-1 47 -13 -31 c-20 -46 -24 -48 -176 -59 -47 -3 -93 -9 -102 -11 -15
-4 -18 1 -18 33 0 21 -5 45 -10 53 -8 12 -10 10 -10 -11 0 -55 -17 -63 -154
-69 l-126 -5 0 24 c0 23 -1 23 -18 8 -24 -22 -95 -32 -244 -36 -16 -1 -28 -5
-28 -11 0 -6 55 -10 143 -11 139 -1 141 -2 56 -23 -9 -3 -36 -14 -59 -26 -23
-12 -52 -23 -64 -26 -11 -2 -27 -11 -33 -21 -7 -9 -13 -13 -13 -9 0 4 -7 1
-15 -8 -10 -10 -15 -35 -15 -78 l0 -63 117 1 118 0 -110 -3 c-90 -3 -112 -7
-123 -21 -12 -16 -14 -16 -28 3 -11 15 -17 17 -23 7 -9 -16 -58 -6 -69 13 -10
18 -62 31 -62 15 0 -6 5 -8 12 -4 7 4 8 3 4 -4 -4 -7 -16 -12 -27 -12 -10 0
-18 -3 -18 -7 1 -5 0 -12 -1 -18 -1 -5 -3 -19 -4 -29 -1 -13 -12 -22 -32 -28
-22 -6 -37 -18 -48 -42 -9 -19 -24 -37 -34 -40 -9 -3 -31 -19 -48 -35 -27 -25
-36 -28 -76 -24 -33 4 -46 2 -49 -8 -2 -8 -2 -70 1 -139 l5 -125 44 -11 c36
-8 41 -12 25 -18 -19 -7 -19 -8 0 -22 11 -8 14 -14 7 -14 -9 0 -8 -5 3 -16 9
-8 16 -20 16 -26 0 -5 7 -7 16 -4 11 4 18 -1 21 -14 3 -11 10 -20 15 -20 6 0
7 -7 4 -16 -8 -22 23 -44 52 -37 14 3 30 -1 40 -11 13 -11 26 -13 47 -8 l30 8
5 95 5 94 52 3 51 3 0 43 c-1 55 8 69 40 63 17 -3 30 1 38 11 13 17 36 8 28
-12 -4 -10 2 -12 22 -8 16 3 25 1 21 -5 -3 -5 -22 -9 -41 -8 -30 1 -33 -2 -25
-17 5 -9 13 -20 19 -23 22 -13 -4 -35 -44 -36 l-41 -2 50 -7 c28 -5 77 -9 110
-9 l60 -1 1 -35 c1 -19 -3 -35 -7 -35 -5 0 -9 5 -9 10 0 6 -4 10 -10 10 -5 0
-10 -16 -10 -36 0 -31 -3 -35 -20 -29 -13 4 -20 2 -20 -6 0 -7 -3 -10 -6 -7
-3 4 -14 -1 -24 -10 -48 -45 -76 -67 -82 -67 -15 0 -58 -50 -58 -67 0 -17 12
-18 148 -20 l147 -1 -123 -6 c-138 -7 -137 -6 -147 -86 -4 -27 -12 -55 -17
-62 -13 -16 -24 -268 -11 -276 16 -10 784 -10 793 -1 5 5 11 90 12 189 l3 180
214 3 c123 1 219 -2 224 -7 5 -5 10 -186 11 -433 l1 -423 290 -5 290 -5 5
-140 c6 -175 -6 -166 215 -162 l160 2 3 40 c2 22 7 43 11 48 4 4 431 7 949 7
l942 0 -1 963 c-1 643 -4 948 -11 919 -8 -39 -14 -45 -56 -63 -26 -11 -56 -21
-67 -22 -11 0 -24 -4 -30 -8 -5 -4 -25 -10 -42 -14 -25 -5 -33 -12 -34 -28 0
-12 -4 -31 -9 -42 -5 -13 -9 25 -9 103 l-1 122 130 0 130 0 -1 128 c-2 122 -2
124 -9 50 -6 -65 -12 -81 -31 -97 -27 -22 -95 -34 -160 -30 -34 3 -44 0 -50
-16 -4 -12 -8 26 -8 87 -1 59 -5 109 -10 112 -4 3 -11 -26 -15 -65 -10 -105
-10 -106 -112 -110 -58 -3 -89 -8 -92 -17 -2 -6 -8 -12 -13 -12 -5 0 -9 45 -9
99 0 56 -4 103 -10 106 -6 4 -10 -14 -10 -47 0 -29 -3 -70 -6 -90 -7 -43 -18
-47 -132 -50 -40 -1 -75 -5 -78 -10 -15 -24 -24 -1 -24 60 0 37 -5 74 -10 82
-7 11 -10 -1 -10 -42 0 -84 -14 -92 -164 -107 l-74 -7 -6 29 c-3 16 -7 66 -7
111 -1 70 -2 76 -10 41 -4 -22 -8 -59 -8 -82 -1 -63 -32 -83 -127 -83 -40 0
-76 -4 -79 -10 -15 -25 -23 -3 -31 83 l-8 92 -7 -55 c-3 -30 -12 -67 -19 -81
-11 -25 -16 -26 -123 -32 -61 -3 -114 -4 -119 -1 -4 3 -8 47 -8 99 0 72 4 97
16 109 17 17 5 17 923 16 l384 0 -6 68 c-4 37 -7 85 -8 107 -1 38 -2 38 -9
-12 -17 -117 -20 -120 -133 -125 -42 -2 -77 -7 -77 -11 0 -5 -4 -5 -10 -2 -6
4 -10 57 -10 125 l0 118 28 5 c15 3 128 6 251 6 123 1 226 3 228 5 2 2 2 37 0
77 -2 53 -5 68 -11 52 -5 -13 -12 -23 -17 -23 -5 0 -14 -11 -20 -23 -9 -19
-19 -24 -52 -26 -60 -2 -88 -7 -119 -19 -33 -14 -38 -4 -39 86 0 60 -2 64 -11
37 -6 -16 -17 -37 -24 -46 -8 -8 -14 -21 -14 -27 0 -7 -7 -12 -15 -12 -8 0
-15 -5 -15 -11 0 -5 -5 -7 -10 -4 -6 3 -13 -1 -16 -10 -6 -14 -8 -14 -20 2
-11 15 -13 15 -14 3 0 -13 -1 -13 -10 0 -8 13 -10 12 -10 -2 0 -14 -8 -18 -35
-18 l-35 0 0 106 0 106 -100 -4 c-55 -1 -100 1 -100 5 0 5 -12 7 -27 5 l-28
-3 -5 145 -5 145 -107 3 -108 3 0 -42 c0 -23 -3 -40 -6 -37 -3 4 -5 71 -5 150
1 78 -2 148 -7 153 -4 7 -52 9 -129 7 l-123 -4 -2 -92 -2 -91 -5 90 c-5 78 -9
90 -25 93 -10 2 -23 -3 -27 -11 -8 -14 -32 -20 -133 -32 -53 -7 -56 -10 -56
-66 0 -27 -4 -49 -10 -49 -6 0 -10 35 -10 86 0 78 -2 85 -17 79 -10 -4 -23 -8
-30 -8 -7 0 -10 -4 -7 -9 3 -4 -1 -8 -8 -9 -40 -2 -83 -10 -92 -19 -7 -5 -17
-5 -26 0 -22 14 -30 12 -30 -6 0 -8 -4 -13 -9 -10 -5 3 -13 -36 -19 -87 l-9
-92 -2 118 c-1 89 -4 117 -14 117 -7 0 -20 -15 -29 -32 -15 -33 -41 -44 -148
-64 -14 -3 -33 -14 -42 -25 -10 -12 -18 -17 -19 -13 -1 5 -7 -11 -14 -36 -13
-44 -13 -43 -14 63 -1 86 -4 107 -15 107 -8 0 -18 -9 -21 -21 -4 -11 -21 -27
-38 -36 -18 -8 -43 -20 -57 -28 -20 -11 -73 -21 -122 -24 -5 -1 -9 -25 -9 -53
-2 -66 -7 -40 -17 82 l-8 95 -22 -42 c-22 -42 -66 -64 -93 -47 -8 4 -9 3 -5
-4 7 -11 3 -13 -36 -16 -7 -1 -20 -8 -29 -16 -9 -8 -24 -20 -34 -25 -9 -6 -21
-28 -25 -50 -6 -34 -8 -27 -9 40 -1 93 -10 155 -22 155 -4 0 -15 -15 -24 -34z
m193 -224 c-42 -2 -68 -7 -68 -14 0 -6 -3 -9 -6 -5 -3 3 -19 1 -35 -5 -29 -10
-29 -10 -29 -96 0 -47 -2 -83 -4 -81 -4 3 -10 194 -7 209 1 3 49 3 108 0 92
-4 98 -5 41 -8z m-453 3 c-5 -1 -28 -7 -50 -13 -107 -29 -161 -46 -172 -55 -7
-5 -13 -26 -14 -46 -1 -20 -5 -47 -9 -61 -5 -16 -8 11 -9 78 l-1 102 133 -1
c72 0 128 -2 122 -4z m259 -9 c-20 -14 -38 -20 -99 -31 -36 -7 -45 -10 -67
-19 -9 -4 -22 -5 -28 -1 -6 4 -10 -13 -11 -47 -2 -108 -17 -104 -18 5 l-1 107
122 0 c109 0 120 -2 102 -14z m453 7 c-110 -5 -124 -15 -130 -93 -3 -47 -4
-44 -5 23 l-2 77 113 -2 c110 -2 110 -2 24 -5z m256 0 c-57 -2 -103 -5 -103
-6 -1 -1 -3 -29 -7 -62 -8 -83 -13 -82 -13 3 l0 72 113 -2 112 -2 -102 -3z
m256 3 c-3 -3 -23 -7 -44 -9 l-40 -4 -6 -104 -5 -104 -2 113 -2 112 52 0 c28
0 49 -2 47 -4z m174 -16 c-3 -11 -7 -20 -8 -20 -1 0 -5 9 -8 20 -3 12 0 20 8
20 8 0 11 -8 8 -20z m249 -32 c-5 -95 -9 -104 -11 -25 0 42 2 77 7 77 4 0 6
-24 4 -52z m-255 -20 c-3 -8 -6 -5 -6 6 -1 11 2 17 5 13 3 -3 4 -12 1 -19z
m-1789 -225 c-27 -2 -69 -2 -95 0 -27 2 -5 3 47 3 52 0 74 -1 48 -3z m1529
-60 c-2 -16 -4 -5 -4 22 0 28 2 40 4 28 2 -13 2 -35 0 -50z m-322 -138 c36 6
46 3 63 -15 17 -18 27 -21 56 -16 29 6 36 4 36 -9 0 -12 12 -15 55 -15 30 0
55 -4 55 -10 0 -5 -7 -10 -16 -10 -9 0 -18 -9 -21 -20 -3 -11 -9 -20 -13 -20
-5 0 -12 -9 -15 -20 -3 -11 -14 -20 -23 -20 -12 0 -13 -3 -4 -12 26 -26 13
-52 -38 -80 -27 -15 -56 -25 -65 -22 -10 4 -15 0 -15 -15 0 -16 -6 -21 -24
-21 -13 0 -26 5 -28 11 -3 9 -11 8 -28 -1 -36 -20 -60 -19 -71 2 -8 15 -14 16
-31 7 -15 -8 -26 -8 -43 1 -20 10 -22 18 -17 52 3 26 1 43 -8 48 -9 5 -10 24
-5 68 6 52 10 61 28 64 13 2 23 13 27 27 3 13 12 27 20 31 8 4 24 11 35 17 16
8 23 6 33 -9 11 -16 21 -18 57 -13z m460 -62 c-141 -5 -134 1 -137 -96 l-3
-82 -5 93 -5 92 120 -2 c108 -2 111 -2 30 -5z m228 0 l-103 -4 0 -39 c0 -21
-4 -42 -10 -45 -6 -4 -10 13 -10 44 l0 51 113 -2 112 -2 -102 -3z m240 0
c-118 -4 -110 3 -116 -113 -3 -53 -4 -47 -5 28 l-2 92 113 -2 112 -2 -102 -3z
m349 0 c-6 -2 -10 -8 -7 -13 6 -10 -56 -40 -83 -40 -11 0 -39 -7 -62 -15 -24
-8 -46 -13 -49 -9 -3 3 -11 -25 -17 -63 l-11 -68 -2 108 -1 107 123 -1 c67 0
116 -3 109 -6z m273 -50 c-12 -112 -24 -141 -62 -154 -19 -6 -46 -9 -61 -6
-14 3 -46 -1 -71 -9 -25 -7 -46 -12 -47 -11 -1 1 -4 55 -6 120 l-4 117 129 0
128 0 -6 -57z m-1891 -184 c-3 -5 -11 -9 -18 -9 -22 0 -63 -40 -48 -47 26 -10
-26 -35 -62 -29 -30 5 -35 2 -45 -22 -5 -15 -12 -43 -14 -62 -2 -19 -5 14 -5
73 l-2 108 100 -2 c55 -1 97 -5 94 -10z m-1085 -13 c-2 -2 -43 -6 -90 -10 -48
-3 -98 -10 -112 -15 -14 -5 -28 -7 -31 -4 -3 4 -7 -18 -7 -48 l-2 -54 -8 45
c-4 25 -8 56 -8 70 l-1 25 131 -3 c72 -2 130 -5 128 -6z m63 -36 c-2 -22 -6
-40 -8 -40 -2 0 -4 18 -4 40 0 22 3 40 8 40 4 0 6 -18 4 -40z m1376 -152 c20
-20 14 -37 -10 -30 -29 7 -41 24 -25 34 16 10 21 10 35 -4z m-1648 -62 c0 -9
-40 -13 -46 -5 -3 5 6 9 20 9 14 0 26 -2 26 -4z m57 -2 c-3 -3 -12 -4 -19 -1
-8 3 -5 6 6 6 11 1 17 -2 13 -5z m939 -1 c-50 -2 -95 -8 -102 -14 -8 -7 -14
-6 -17 3 -3 7 -6 -18 -7 -57 -3 -116 -18 -133 -19 -22 l-1 97 118 -2 c111 -2
112 -2 28 -5z m182 0 l-67 -4 -4 -32 c-4 -31 -4 -31 -5 6 l-2 37 73 -2 72 -2
-67 -3z m115 0 c-7 -2 -19 -2 -25 0 -7 3 -2 5 12 5 14 0 19 -2 13 -5z m187
-33 c0 -5 -8 -10 -17 -10 -15 0 -16 2 -3 10 19 12 20 12 20 0z m914 -27 c-13
-98 -15 -104 -40 -113 -14 -6 -28 -9 -32 -8 -8 1 -58 -10 -82 -19 -19 -8 -29
-10 -57 -11 -16 -2 -25 -11 -30 -29 -7 -24 -8 -21 -14 27 -4 30 -7 85 -8 123
l-1 67 134 0 135 0 -5 -37z m258 25 c-5 -7 -13 -28 -17 -46 -5 -26 -15 -36
-50 -52 -24 -11 -51 -20 -60 -20 -8 0 -23 -4 -33 -9 -9 -5 -24 -12 -33 -14
-10 -3 -19 -23 -24 -49 -10 -52 -13 -34 -17 100 l-4 102 124 0 c98 0 122 -3
114 -12z m262 -15 c-4 -16 -17 -43 -29 -60 -16 -25 -24 -30 -33 -21 -9 9 -12
9 -12 0 0 -6 -18 -15 -40 -18 -22 -4 -43 -10 -46 -15 -2 -4 -11 -6 -19 -2 -9
3 -15 -1 -15 -8 0 -12 -2 -12 -9 -1 -5 9 -11 -4 -15 -38 -4 -29 -8 -51 -10
-49 -2 2 -7 57 -10 122 l-7 117 125 0 126 0 -6 -27z m259 -10 c-6 -39 -34 -79
-56 -80 -19 0 -110 -14 -135 -20 -21 -5 -26 -16 -35 -73 -3 -14 -5 18 -6 70
-1 52 -4 105 -7 118 -6 22 -6 22 119 22 l126 0 -6 -37z m257 32 c0 -3 -4 -13
-9 -23 -5 -9 -15 -31 -21 -49 -7 -18 -19 -31 -28 -31 -23 0 -124 -12 -139 -17
-8 -3 -13 -23 -13 -52 0 -35 -3 -44 -10 -33 -5 8 -10 59 -10 113 l0 97 115 0
c63 0 115 -2 115 -5z m-2848 -230 c-6 -34 -12 -32 -12 6 0 16 4 28 9 25 4 -3
6 -17 3 -31z m3006 -43 l-116 -3 -7 -67 c-10 -103 -13 -105 -14 -7 l-1 90 127
-5 128 -5 -117 -3z m-1268 1 c-47 -3 -80 -9 -91 -19 -9 -8 -23 -12 -32 -8 -25
9 -41 -33 -48 -121 l-6 -80 -2 80 c-1 44 -3 97 -4 118 l-2 37 130 -2 c86 -1
105 -3 55 -5z m225 -2 l-110 -6 -6 -105 -5 -105 -2 113 -2 112 118 -2 117 -2
-110 -5z m258 2 l-113 -4 -1 -97 c-2 -109 -7 -98 -11 26 l-3 82 120 -2 120 -2
-112 -3z m260 0 l-112 -4 -4 -87 -3 -87 -2 93 -2 92 118 -2 117 -2 -112 -3z
m250 0 l-93 -4 0 -56 c0 -70 -5 -66 -14 10 l-7 57 103 -2 103 -2 -92 -3z
m-3324 -100 c11 -47 10 -54 -7 -71 -10 -10 -23 -17 -29 -15 -6 2 -13 -5 -16
-17 -4 -16 -11 -19 -39 -14 -56 10 -58 12 -58 53 0 22 -5 43 -10 46 -15 9 7
35 29 35 9 0 24 9 33 19 11 13 28 19 51 18 32 -2 34 -5 46 -54z m27 12 c-3
-20 -16 -31 -16 -13 0 13 8 28 16 28 1 0 1 -7 0 -15z m172 -162 c9 -8 9 -13 2
-13 -6 0 -10 -6 -8 -12 6 -35 -45 -108 -75 -108 -6 0 -7 -3 -4 -7 11 -11 -36
-38 -60 -35 -13 2 -23 -1 -23 -7 0 -6 -7 -11 -15 -11 -8 0 -15 -5 -15 -11 0
-6 -7 -8 -17 -5 -9 4 -20 1 -25 -6 -6 -10 -8 -8 -8 5 0 14 -4 16 -19 7 -17 -8
-20 -6 -26 20 -4 17 -10 30 -15 30 -4 0 -6 9 -3 20 4 14 0 20 -11 20 -13 0
-17 7 -14 28 2 17 8 26 17 24 9 -2 12 4 8 18 -5 21 18 54 33 45 5 -3 32 -7 62
-9 29 -3 61 -7 70 -11 11 -4 20 0 27 12 8 15 20 19 58 19 26 -1 54 -7 61 -13z
m2045 -11 l-83 -3 -2 -77 -2 -77 -5 80 c-3 44 -5 82 -4 85 0 3 41 3 90 0 l88
-5 -82 -3z m199 -44 c-5 -89 -9 -97 -11 -20 0 39 2 72 7 72 4 0 6 -24 4 -52z
m255 0 c-2 -13 -4 -5 -4 17 -1 22 1 32 4 23 2 -10 2 -28 0 -40z m265 17 c-2
-19 -6 -35 -8 -35 -2 0 -4 16 -4 35 0 19 4 35 8 35 4 0 6 -16 4 -35z m-997
-125 c-3 -5 1 -10 9 -10 9 0 16 -4 16 -10 0 -13 -43 4 -48 18 -2 7 4 12 13 12
9 0 13 -4 10 -10z m-2038 -106 c-3 -3 -12 -4 -19 -1 -8 3 -5 6 6 6 11 1 17 -2
13 -5z m1541 -366 l2 -308 -210 0 -210 0 0 304 0 305 23 4 c12 2 105 4 207 3
l185 -1 3 -307z m432 222 l0 -80 -34 0 c-19 0 -36 -3 -39 -7 -2 -5 -2 -2 0 6
5 19 -56 6 -72 -16 -7 -10 -17 -13 -25 -8 -9 5 -11 4 -6 -4 10 -16 -2 -63 -14
-56 -5 3 -12 -6 -16 -20 -4 -16 -13 -25 -26 -25 -20 0 -20 -4 -14 -97 3 -54 6
-99 6 -100 0 -1 14 -4 30 -8 32 -7 40 -32 15 -42 -19 -7 -14 -52 9 -87 16 -25
78 -43 69 -20 -3 8 4 10 22 6 16 -3 30 -14 35 -28 5 -13 16 -24 24 -24 8 0 16
-4 18 -9 2 -4 13 -11 25 -15 15 -5 28 0 45 18 22 23 25 24 88 13 36 -5 68 -15
72 -20 4 -6 19 -4 41 6 29 14 71 17 256 17 l221 0 0 -105 0 -105 -495 0 -495
0 0 445 0 445 130 0 130 0 0 -80z"/>
<path d="M8010 8870 c0 -5 5 -10 10 -10 6 0 10 5 10 10 0 6 -4 10 -10 10 -5 0
-10 -4 -10 -10z"/>
<path d="M7360 8945 c0 -29 -14 -34 -120 -38 -65 -3 -61 -3 28 -5 l102 -2 0
35 c0 19 -2 35 -5 35 -3 0 -5 -11 -5 -25z"/>
<path d="M10228 8749 c-3 -27 -10 -55 -16 -61 -12 -12 -177 -32 -204 -24 -14
3 -18 0 -16 -12 3 -15 19 -17 126 -17 l122 0 0 83 c0 45 -2 82 -4 82 -2 0 -6
-23 -8 -51z"/>
<path d="M1330 8230 c0 -5 5 -10 11 -10 5 0 7 5 4 10 -3 6 -8 10 -11 10 -2 0
-4 -4 -4 -10z"/>
<path d="M1336 7995 c-3 -8 -1 -15 4 -15 6 0 10 7 10 15 0 8 -2 15 -4 15 -2 0
-6 -7 -10 -15z"/>
<path d="M1666 7765 c-3 -8 -1 -15 4 -15 6 0 10 7 10 15 0 8 -2 15 -4 15 -2 0
-6 -7 -10 -15z"/>
<path d="M1330 7760 c-13 -8 -12 -10 3 -10 9 0 17 5 17 10 0 12 -1 12 -20 0z"/>
<path d="M1048 7753 c6 -2 18 -2 25 0 6 3 1 5 -13 5 -14 0 -19 -2 -12 -5z"/>
<path d="M6925 6480 c-67 -5 -120 -19 -145 -38 -2 -2 -7 -42 -11 -90 l-6 -87
-1 108 c-1 59 -6 107 -11 107 -5 0 -33 -12 -62 -28 -75 -38 -133 -62 -151 -62
-8 0 -20 -12 -26 -26 -7 -14 -16 -23 -21 -20 -10 6 -24 -101 -16 -115 4 -5 18
-9 33 -10 l27 -1 -25 -7 c-24 -7 -25 -11 -31 -106 l-5 -100 -2 98 c-2 107 -5
111 -63 82 -16 -9 -34 -13 -39 -10 -6 3 -10 2 -10 -3 0 -12 -104 -36 -129 -29
-28 7 -33 -5 -41 -83 l-7 -65 -3 80 c-1 44 -6 91 -10 105 l-8 25 -7 -31 c-4
-16 -16 -36 -28 -43 -55 -35 -107 -61 -121 -61 -9 0 -16 -4 -16 -10 0 -5 -19
-14 -42 -21 -47 -12 -78 -34 -78 -56 0 -10 26 -13 121 -13 141 0 154 -13 17
-18 -74 -3 -95 -7 -103 -20 -23 -39 -35 -91 -35 -152 0 -36 -6 -72 -13 -81 -7
-8 -34 -21 -62 -29 -27 -7 -54 -16 -60 -20 -5 -4 -18 -6 -27 -5 -10 2 -18 -1
-18 -5 0 -16 -52 -70 -61 -64 -5 3 -9 -21 -9 -55 l0 -60 113 -4 112 -3 -113
-2 -113 -2 3 -142 3 -143 317 -3 318 -2 2 -233 3 -232 223 -3 222 -2 0 -188
c0 -103 5 -204 11 -224 l10 -38 397 0 c333 -1 400 -3 416 -15 11 -8 28 -15 38
-15 17 0 18 -16 18 -256 0 -157 4 -263 10 -275 10 -18 25 -19 370 -19 l360 0
0 -570 0 -570 -44 0 -44 0 -5 -67 c-3 -38 -8 -83 -12 -101 l-7 -32 -84 0 -84
0 0 -63 0 -63 398 3 c218 2 416 5 440 6 23 1 42 -1 42 -5 0 -5 -35 -8 -78 -8
-43 0 -82 -4 -88 -9 -10 -10 -137 -20 -352 -26 -78 -2 -146 -6 -150 -9 -5 -3
-56 -8 -115 -11 -76 -5 -107 -4 -107 4 0 6 -5 11 -11 11 -5 0 -7 -4 -4 -10 3
-5 2 -10 -3 -10 -6 0 -12 7 -16 15 -3 9 -19 15 -41 15 -22 0 -34 -4 -30 -10 3
-6 2 -10 -4 -10 -5 0 -12 6 -14 13 -3 6 -6 -3 -6 -20 l-1 -33 1160 0 1160 0
-2 2153 c-1 1183 -4 2113 -5 2064 -5 -107 -13 -114 -123 -118 -41 -2 -84 -9
-96 -16 -20 -13 -22 -11 -28 33 -3 26 -7 81 -7 123 -1 56 -3 68 -9 46 -4 -16
-8 -46 -9 -65 -2 -59 -20 -108 -42 -115 -11 -4 -46 -7 -77 -7 -31 0 -69 -6
-84 -13 l-28 -13 0 114 c0 129 -15 154 -22 37 -7 -97 -18 -107 -124 -116 -43
-4 -88 -14 -100 -22 l-22 -14 -8 122 c-8 122 -20 127 -23 9 0 -30 -5 -51 -10
-47 -5 3 -12 -3 -16 -14 -8 -26 -55 -41 -124 -41 -32 0 -62 -5 -69 -12 -22
-22 -32 11 -32 115 0 113 -14 122 -24 15 -11 -119 -5 -113 -142 -124 -43 -3
-82 -10 -85 -16 -6 -10 -19 116 -19 189 0 85 -17 41 -23 -58 -3 -55 -7 -102
-9 -104 -2 -2 -52 -7 -111 -11 -59 -4 -110 -11 -113 -16 -16 -25 -24 15 -25
120 -1 74 -4 108 -9 92 -4 -14 -8 -46 -9 -71 -1 -59 -18 -107 -41 -119 -10 -6
-47 -10 -82 -10 -87 0 -138 -10 -138 -26 0 -11 27 -14 131 -14 114 0 130 -2
119 -14 -11 -15 -78 -42 -92 -38 -4 1 -23 -5 -42 -13 -20 -9 -36 -12 -36 -8 0
4 -15 -8 -33 -25 -18 -18 -36 -30 -39 -27 -10 11 -18 -262 -18 -667 l0 -418
662 -2 662 -3 -3 -115 c-1 -63 -4 -116 -5 -117 -1 -2 -17 -6 -34 -9 l-32 -6
-1 108 -2 109 -9 -65 c-18 -129 -16 -127 -131 -133 -42 -2 -83 -10 -92 -17
-13 -11 -15 -3 -16 66 0 44 -4 97 -8 119 -7 37 -8 34 -16 -42 -4 -46 -13 -91
-20 -100 -10 -13 -34 -19 -92 -24 -43 -3 -86 -10 -95 -14 -17 -7 -18 2 -18
101 0 74 -3 104 -10 94 -5 -8 -10 -40 -10 -70 0 -30 -4 -60 -8 -66 -15 -23
-53 -34 -116 -34 -44 0 -69 -5 -80 -15 -31 -31 -36 -17 -37 98 0 72 -3 105 -9
92 -5 -11 -9 -42 -10 -70 -2 -59 -11 -87 -31 -91 -42 -8 -157 -33 -176 -39
-23 -7 -23 -6 -24 89 -2 112 -2 112 -11 122 -5 4 -8 -11 -8 -33 0 -22 -3 -60
-6 -85 -6 -39 -10 -46 -39 -57 -18 -6 -63 -14 -99 -18 -36 -3 -66 -10 -66 -14
0 -5 -4 -9 -10 -9 -6 0 -10 44 -10 112 0 124 -16 139 -22 20 -5 -101 -17 -112
-128 -114 -64 -1 -88 -5 -97 -17 -9 -12 -13 9 -19 99 -8 112 -8 114 -17 60
-12 -77 -28 -130 -41 -131 -78 -3 -145 -13 -162 -24 -12 -8 -24 -11 -28 -8 -3
4 -6 52 -6 107 -1 110 -13 113 -24 6 -3 -35 -12 -70 -19 -77 -7 -7 -41 -13
-79 -14 -37 -1 -79 -8 -94 -15 -14 -8 -28 -14 -30 -14 -2 0 -4 28 -5 63 0 34
-4 82 -8 107 -7 43 -7 42 -15 -37 -4 -47 -13 -89 -21 -96 -8 -9 -50 -17 -104
-21 -50 -4 -98 -9 -106 -12 -13 -5 -15 10 -15 101 l0 108 -31 -7 c-17 -3 -74
-6 -125 -6 l-94 0 0 -200 0 -200 -72 0 -71 0 7 337 c4 186 9 339 11 341 2 3
213 4 468 3 l465 -2 8 28 c5 15 7 251 4 523 l-5 495 -140 5 -140 5 -5 135 -5
135 -170 3 c-93 2 -212 0 -262 -3 l-93 -7 -2 -71 -2 -72 -5 74 c-3 41 -10 75
-16 76 -5 1 -46 -1 -90 -5z m-132 -268 c-20 -3 -22 -10 -26 -65 l-3 -62 -2 71
-2 71 28 -6 c24 -5 25 -6 5 -9z m54 2 c-3 -3 -12 -4 -19 -1 -8 3 -5 6 6 6 11
1 17 -2 13 -5z m2298 -86 c-16 -23 -26 -26 -127 -31 -37 -2 -71 -7 -75 -11 -4
-4 -10 -50 -13 -104 l-5 -97 -5 130 c-3 72 -4 132 -3 135 0 3 56 4 122 2 l121
-3 -15 -21z m814 16 c7 -7 -4 -13 -27 -17 -11 -2 -30 -11 -40 -20 -13 -12 -32
-16 -60 -14 -23 2 -42 0 -42 -5 0 -4 -9 -8 -20 -8 -17 0 -20 -7 -21 -52 0 -29
-4 -62 -9 -73 -6 -13 -9 19 -9 90 l-1 110 112 -3 c62 -2 115 -6 117 -8z
m-1069 -4 c0 -6 -8 -13 -17 -16 -10 -3 -25 -9 -33 -12 -8 -3 -33 -7 -55 -8
-56 -4 -78 -8 -92 -17 -7 -5 -17 -6 -22 -3 -13 8 -21 -30 -22 -114 l-2 -75 -7
55 c-5 30 -8 88 -9 128 l-1 72 130 0 c83 0 130 -4 130 -10z m540 1 c0 -5 -10
-13 -22 -17 -13 -4 -23 -6 -23 -4 0 1 -17 -5 -39 -14 -21 -9 -49 -16 -62 -16
-12 0 -26 -4 -29 -10 -3 -5 -14 -10 -24 -10 -22 0 -30 -25 -32 -100 l-2 -55
-7 65 c-4 36 -8 89 -9 118 l-1 52 125 0 c71 0 125 -4 125 -9z m260 -21 c-17
-23 -25 -28 -43 -21 -32 11 -137 3 -150 -12 -7 -6 -14 -28 -16 -47 -2 -19 -7
-69 -11 -110 -6 -66 -7 -57 -9 73 l-1 147 126 0 125 0 -21 -30z m540 20 c0 -6
-30 -10 -70 -10 -38 0 -70 -4 -70 -9 0 -5 -14 -13 -32 -16 -49 -11 -58 -27
-58 -96 0 -92 -7 -68 -12 44 l-5 97 123 0 c76 0 124 -4 124 -10z m-4020 -180
c0 -5 -4 -10 -10 -10 -5 0 -11 -44 -13 -97 l-3 -98 -2 108 c-2 89 0 107 13
107 8 0 15 -4 15 -10z m282 -3 c-6 -7 -13 -42 -15 -77 l-3 -65 -2 78 c-2 65 0
77 14 77 12 0 14 -3 6 -13z m-459 -254 l-122 -4 -3 -107 -3 -107 -5 113 -5
112 130 -2 130 -2 -122 -3z m180 0 c-20 -4 -22 -12 -26 -71 l-3 -67 -2 73 -2
72 28 -1 c22 -1 23 -2 5 -6z m-301 -285 c-5 -71 -10 -77 -11 -15 0 31 2 57 7
57 4 0 6 -19 4 -42z m782 -294 c3 -26 6 -75 6 -110 l0 -64 -120 0 -120 0 0
103 c0 57 3 107 7 110 3 4 54 7 113 7 l107 0 7 -46z m734 -466 l107 -2 -85 -5
c-80 -6 -85 -7 -88 -30 -3 -17 -6 -20 -12 -11 -13 22 -33 -27 -46 -115 l-11
-80 -2 129 c-1 113 1 127 15 122 9 -3 64 -7 122 -8z m341 -8 c-8 -5 -54 -10
-101 -11 l-86 -2 -6 -51 c-3 -28 -7 -80 -8 -116 -1 -39 -4 -16 -8 60 -3 69 -4
127 -3 130 0 3 52 4 115 2 71 -2 107 -7 97 -12z m1539 5 c-2 -2 -47 -5 -101
-6 l-97 -2 0 -68 c0 -37 -4 -71 -10 -74 -6 -4 -10 24 -10 77 l0 83 111 -3 c61
-2 109 -5 107 -7z m-1368 -4 l-105 -6 -5 -85 c-4 -74 -6 -80 -12 -45 -4 22 -8
64 -8 93 l0 52 118 -2 117 -2 -105 -5z m260 0 l-115 -6 -5 -120 -5 -120 -5
128 -5 127 125 -2 125 -2 -115 -5z m255 0 l-100 -6 -6 -105 -5 -105 -2 90 c-1
50 -5 100 -8 113 -6 22 -6 22 107 20 l114 -2 -100 -5z m255 0 l-105 -6 -5 -80
c-6 -93 -20 -70 -20 33 l0 62 118 -2 117 -2 -105 -5z m248 2 l-108 -4 -1 -52
c-2 -99 -17 -119 -18 -24 l-1 87 118 -2 117 -2 -107 -3z m505 0 l-101 -4 -6
-62 c-4 -34 -8 -87 -9 -117 -2 -30 -4 0 -5 68 l-2 122 113 -2 112 -2 -102 -3z
m197 -9 c0 -8 -4 -13 -8 -10 -4 2 -14 1 -22 -4 -10 -6 -17 -37 -21 -102 -5
-85 -6 -87 -7 -27 -1 36 -5 87 -8 113 l-7 46 37 0 c26 0 36 -4 36 -16z m-2532
-221 c-10 -2 -28 -2 -40 0 -13 2 -5 4 17 4 22 1 32 -1 23 -4z m1239 -348 l1
-155 -268 0 c-148 0 -275 3 -284 6 -14 5 -16 28 -16 155 l0 149 283 0 282 0 2
-155z m-370 -1931 c-3 -3 -12 -4 -19 -1 -8 3 -5 6 6 6 11 1 17 -2 13 -5z"/>
<path d="M222 4328 c-2 -16 -15 -18 -112 -18 l-110 0 0 -1105 0 -1105 1781 0
c1620 0 1781 1 1775 16 -3 9 -7 66 -7 127 -1 62 -3 104 -6 95 -4 -16 -18 -18
-118 -18 l-113 0 -7 69 c-4 38 -4 107 0 154 11 129 18 123 -135 119 l-130 -3
0 34 0 34 -122 -1 c-120 -1 -123 0 -126 22 -3 20 -5 20 -18 7 -12 -12 -42 -15
-135 -15 l-119 0 0 208 0 207 -140 -3 -140 -3 -1 78 c0 43 -3 72 -6 66 -3 -10
-39 -13 -128 -13 l-124 0 -4 38 -4 37 -1 -38 -2 -37 -192 2 -193 3 -3 40 -3
40 -139 -3 -140 -4 0 186 0 186 -135 0 -135 0 0 50 0 49 -132 3 -133 3 -6 95
c-3 52 -6 78 -7 58 l-2 -38 -130 0 -130 0 0 58 0 57 -127 0 -128 0 -5 140 c-3
77 -7 132 -8 123z"/>
<path d="M6610 3368 c0 -24 -4 -28 -27 -28 -16 0 -39 -3 -52 -7 -21 -5 -23
-10 -18 -49 4 -41 3 -44 -19 -44 -24 0 -24 -1 -24 -114 0 -92 3 -115 15 -120
10 -3 15 -19 15 -46 0 -36 2 -40 25 -40 21 0 25 -5 25 -30 0 -20 5 -30 16 -30
8 0 28 -14 43 -30 27 -30 30 -31 107 -28 62 2 79 6 79 18 0 8 15 21 33 29 22
10 35 24 40 45 6 21 14 31 28 31 15 0 20 9 24 40 4 28 10 41 25 45 19 5 21 14
24 117 l3 111 -31 7 c-26 5 -31 11 -31 35 0 24 -6 31 -35 41 -27 10 -35 19
-37 42 l-3 29 -113 2 -112 1 0 -27z"/>
<path d="M6608 2763 c-27 -2 -48 -9 -48 -15 0 -6 11 -8 25 -6 23 5 25 2 25
-33 0 -38 -1 -39 -35 -39 -30 0 -35 -3 -35 -24 0 -24 -16 -36 -50 -36 -13 0
-20 10 -25 40 -10 57 -35 54 -35 -4 0 -39 -3 -45 -22 -48 -19 -2 -24 -10 -26
-41 -2 -29 -7 -37 -18 -33 -12 4 -14 -15 -14 -120 0 -102 -3 -126 -15 -130
-13 -5 -15 -35 -15 -185 0 -173 1 -179 20 -179 11 0 23 -7 26 -15 4 -10 20
-15 50 -15 39 0 44 -2 44 -23 0 -20 -4 -23 -35 -19 -32 4 -35 2 -35 -21 0 -22
6 -26 40 -32 37 -6 40 -9 40 -40 0 -33 -1 -33 -52 -37 -29 -3 -304 -6 -612 -7
-411 -1 -562 1 -572 10 -10 8 -14 8 -14 0 0 -8 -687 -11 -2610 -11 l-2610 0 0
-30 0 -30 3230 0 3230 0 0 -70 0 -69 -3221 -1 c-1771 0 -3225 -2 -3230 -6 -5
-3 -9 -312 -9 -750 l0 -744 5120 0 5120 0 0 750 0 750 -1177 0 c-648 0 -1183
-4 -1189 -8 -6 -4 -16 -16 -22 -27 -11 -19 -11 -18 -12 8 l0 28 -414 -1 c-228
-1 -430 -5 -449 -10 l-35 -7 -6 51 c-3 28 -6 63 -6 79 l0 27 1655 0 1655 0 0
30 0 30 -1655 0 -1655 0 0 44 c0 51 30 101 76 125 24 13 29 21 23 36 -11 29
-11 233 1 237 6 2 6 87 2 228 -7 218 -8 225 -28 228 -16 2 -23 14 -30 48 -9
44 -27 57 -29 22 -1 -9 -12 -26 -25 -36 l-24 -19 22 -12 c18 -10 22 -20 20
-56 -1 -40 -4 -45 -25 -45 -22 0 -23 3 -23 80 0 63 3 80 14 80 18 0 32 38 19
51 -16 16 -43 -2 -43 -27 0 -21 -5 -24 -35 -24 -19 0 -35 -3 -35 -7 0 -5 -43
-8 -95 -8 -52 0 -95 3 -95 8 0 4 42 7 94 7 l95 0 3 33 c2 24 8 33 26 35 14 2
22 10 22 23 0 18 -7 19 -102 17 -57 -1 -124 -3 -150 -5z m200 -235 l-3 -33
-107 -3 -107 -3 -3 -32 c-3 -30 -5 -32 -35 -29 -30 3 -33 1 -33 -22 0 -23 4
-26 34 -26 19 0 38 5 42 11 4 7 10 7 16 1 5 -5 24 -6 41 -2 61 13 169 12 178
-2 7 -10 9 -10 9 0 0 6 10 11 23 11 16 -1 18 -2 5 -6 -10 -2 -18 -11 -18 -19
0 -8 4 -13 9 -9 5 3 12 1 16 -5 4 -7 -39 -10 -132 -9 -219 1 -213 2 -213 -22
0 -12 -5 -19 -12 -16 -8 2 -12 20 -11 45 1 32 -2 41 -18 45 -23 6 -27 57 -4
57 8 0 16 -8 16 -17 1 -10 4 -2 8 17 5 31 10 35 39 38 28 3 32 7 32 33 l0 29
116 0 115 0 -3 -32z m72 -78 c0 -27 -3 -30 -30 -30 -27 0 -30 3 -30 30 0 27 3
30 30 30 27 0 30 -3 30 -30z m-60 -139 c0 -10 8 -21 18 -23 15 -4 17 -16 14
-106 -3 -95 -5 -102 -24 -102 -18 0 -19 -5 -16 -60 l3 -60 -137 0 -138 0 0 24
c0 19 -6 25 -27 28 -16 2 -28 9 -27 16 1 6 2 28 3 47 1 30 4 35 26 35 25 0 25
1 25 93 0 50 4 97 8 103 11 18 38 22 160 23 103 1 112 0 112 -18z m-100 -680
c0 -76 -4 -132 -10 -136 -6 -4 -10 42 -10 129 0 84 4 136 10 136 6 0 10 -50
10 -129z m20 -190 c0 -10 -9 -21 -20 -24 -16 -4 -20 0 -20 19 0 17 6 24 20 24
13 0 20 -7 20 -19z m-222 2 c-10 -2 -26 -2 -35 0 -10 3 -2 5 17 5 19 0 27 -2
18 -5z m70 -28 c1 -1 7 -40 12 -86 6 -46 13 -101 16 -121 l6 -38 -72 0 -73 0
6 68 c4 37 7 95 7 128 l0 62 48 -6 c26 -2 48 -6 50 -7z m309 -9 c7 -7 -10 -36
-18 -30 -5 3 -9 -4 -9 -15 0 -28 -1 -32 -12 -60 -7 -19 -4 -28 12 -43 21 -20
19 -38 -6 -38 -8 0 -14 -9 -14 -19 0 -16 -9 -20 -51 -23 -28 -1 -53 0 -55 3
-2 3 -1 59 3 124 l6 118 71 -7 c38 -4 71 -8 73 -10z m-92 -302 c20 7 24 -3 13
-35 -9 -26 -15 -30 -42 -27 -24 2 -32 8 -34 26 -6 40 4 55 29 42 11 -6 27 -9
34 -6z m-207 -7 c6 0 12 -8 12 -17 0 -13 -6 -16 -25 -12 -14 2 -25 9 -25 16 0
6 -7 3 -15 -7 -19 -26 -59 -19 -63 11 -3 21 -1 22 50 16 29 -4 59 -7 66 -7z"/>
<path d="M3633 2103 c37 -2 96 -2 130 0 34 2 4 3 -68 3 -71 0 -99 -1 -62 -3z"/>
<path d="M2372 1900 c0 -14 2 -19 5 -12 2 6 2 18 0 25 -3 6 -5 1 -5 -13z"/>
<path d="M8677 1914 c-9 -9 -22 -12 -97 -23 l-55 -7 78 -8 c43 -5 80 -6 83 -3
3 3 4 15 2 27 -2 12 -7 18 -11 14z"/>
<path d="M661 1896 c-28 -10 -31 -14 -17 -19 34 -13 56 -8 56 13 0 11 -1 20
-2 19 -2 0 -18 -6 -37 -13z"/>
<path d="M2327 1903 c-4 -3 -24 -9 -44 -13 l-38 -8 48 -1 c36 -1 47 3 47 14 0
16 -3 18 -13 8z"/>
<path d="M2981 1896 l-24 -13 27 -5 c20 -4 26 -1 26 13 0 22 2 22 -29 5z"/>
<path d="M526 1885 c-3 -8 -1 -15 4 -15 13 0 22 18 11 24 -5 3 -11 -1 -15 -9z"/>
<path d="M5745 1890 c-18 -8 -17 -9 8 -9 16 -1 26 3 22 9 -3 6 -7 10 -8 9 -1
0 -11 -4 -22 -9z"/>
<path d="M8710 1886 c0 -9 5 -16 10 -16 6 0 10 4 10 9 0 6 -4 13 -10 16 -5 3
-10 -1 -10 -9z"/>
<path d="M7063 1883 c9 -2 25 -2 35 0 9 3 1 5 -18 5 -19 0 -27 -2 -17 -5z"/>
<path d="M7802 1885 c9 -10 134 -13 149 -4 9 5 -16 9 -70 9 -46 0 -82 -2 -79
-5z"/>
<path d="M8148 1883 c7 -3 16 -2 19 1 4 3 -2 6 -13 5 -11 0 -14 -3 -6 -6z"/>
<path d="M8198 1883 c7 -3 16 -2 19 1 4 3 -2 6 -13 5 -11 0 -14 -3 -6 -6z"/>
<path d="M8477 1879 c8 -8 16 -8 30 0 16 9 14 10 -11 11 -22 0 -27 -3 -19 -11z"/>
<path d="M9620 1886 c0 -2 9 -6 20 -9 11 -3 20 -1 20 4 0 5 -9 9 -20 9 -11 0
-20 -2 -20 -4z"/>
</g>
</svg>
