<?xml version="1.0" standalone="no"?>
<!DOCTYPE svg PUBLIC "-//W3C//DTD SVG 20010904//EN"
 "http://www.w3.org/TR/2001/REC-SVG-20010904/DTD/svg10.dtd">
<svg version="1.0" xmlns="http://www.w3.org/2000/svg"
 width="925.000000pt" height="925.000000pt" viewBox="0 0 925.000000 925.000000"
 preserveAspectRatio="xMidYMid meet">
<metadata>
Created by potrace 1.14, written by Peter Selinger 2001-2017
</metadata>
<g transform="translate(0.000000,925.000000) scale(0.100000,-0.100000)"
fill="#000000" stroke="none">
<path d="M4334 9158 c-20 -10 -40 -15 -45 -13 -4 3 -11 1 -14 -5 -4 -6 -26
-20 -51 -31 -24 -12 -62 -38 -84 -59 -22 -20 -42 -35 -45 -32 -3 3 -5 -2 -5
-11 0 -9 -5 -17 -11 -17 -5 0 -7 -4 -4 -10 3 -5 2 -10 -4 -10 -16 0 -53 -86
-66 -156 -2 -10 -4 -21 -5 -24 -1 -3 -2 -12 -1 -21 2 -21 -58 -20 -84 1 -14
11 -17 11 -11 1 5 -8 -3 -6 -20 5 -21 14 -26 15 -20 4 7 -12 6 -12 -4 -3 -7 6
-19 9 -28 6 -11 -5 -13 -2 -7 6 6 10 3 11 -14 2 -16 -9 -21 -9 -22 1 0 7 -4 4
-9 -7 -5 -11 -9 -15 -9 -9 -1 18 -40 24 -55 9 -7 -8 -16 -11 -20 -8 -3 4 -6 1
-6 -6 0 -7 -6 -11 -12 -8 -7 2 -20 1 -28 -4 -12 -5 -16 -2 -16 12 0 10 8 22
18 25 10 3 18 10 18 15 0 6 -6 7 -12 3 -9 -5 -9 -2 1 9 7 9 22 17 32 17 11 0
19 5 19 11 0 8 4 8 14 0 12 -10 13 -8 9 8 -4 15 -1 21 10 21 17 0 40 33 31 43
-3 3 3 4 13 4 12 -1 18 5 18 17 0 13 -8 20 -22 21 -12 1 -20 -2 -17 -7 3 -4
-2 -8 -10 -8 -8 0 -19 -6 -23 -14 -4 -8 -17 -16 -28 -18 -11 -2 -19 -10 -17
-16 1 -7 -7 -12 -19 -12 -11 0 -17 -4 -14 -10 3 -6 -4 -10 -17 -10 -18 0 -20
-2 -8 -10 13 -8 12 -10 -3 -10 -9 0 -16 -4 -15 -9 2 -5 0 -8 -4 -7 -10 2 -37
-37 -32 -46 3 -5 0 -8 -6 -8 -18 0 -37 -24 -32 -39 3 -9 0 -11 -8 -6 -9 6 -12
4 -8 -7 7 -17 -26 -50 -38 -40 -4 4 -4 2 -1 -4 4 -7 0 -17 -8 -24 -8 -7 -12
-16 -9 -21 3 -5 1 -9 -5 -9 -6 0 -15 -10 -22 -21 -9 -17 -8 -20 3 -14 7 3 5 0
-4 -8 -10 -8 -14 -18 -10 -22 4 -5 2 -5 -5 -1 -6 3 -14 3 -17 -2 -5 -9 -122
-6 -145 4 -9 4 -18 8 -21 9 -46 16 -98 62 -103 92 -1 10 -6 24 -10 31 -5 7 -3
12 4 12 7 0 10 3 7 6 -4 3 -15 1 -26 -5 -13 -7 -22 -7 -29 0 -8 8 -13 7 -18 0
-3 -6 -1 -10 5 -9 12 3 17 -12 22 -54 1 -10 6 -18 10 -18 4 0 8 -6 8 -14 0 -8
6 -17 13 -19 9 -4 9 -6 -1 -6 -10 -1 -10 -5 2 -17 9 -8 13 -20 10 -26 -4 -7
-2 -8 4 -4 7 4 12 2 12 -4 0 -18 25 -39 72 -60 24 -11 39 -20 33 -20 -5 0 -3
-5 5 -11 12 -9 11 -10 -7 -6 -15 3 -20 1 -16 -9 4 -10 0 -12 -11 -8 -18 7 -22
-11 -4 -22 6 -4 8 -3 5 3 -3 5 4 9 16 8 12 -1 28 3 36 9 11 8 13 8 7 -1 -4 -7
-3 -13 3 -13 6 0 8 -8 5 -17 -5 -17 -4 -17 9 0 9 10 18 14 21 9 3 -6 14 -8 24
-5 19 5 50 -23 38 -34 -4 -4 -11 -1 -16 7 -8 13 -10 12 -10 -3 0 -15 -3 -16
-22 -6 -22 12 -22 11 -8 -6 8 -10 10 -16 3 -12 -6 4 -18 1 -26 -7 -8 -8 -17
-13 -20 -10 -7 7 -57 -18 -57 -29 0 -6 -3 -7 -7 -4 -3 4 -12 2 -20 -4 -7 -6
-13 -8 -13 -5 0 4 -11 -5 -25 -20 -14 -15 -25 -23 -25 -19 0 4 -8 1 -18 -8
-10 -10 -22 -14 -25 -10 -4 3 -7 1 -7 -5 0 -6 -16 -16 -35 -23 -19 -7 -35 -17
-35 -22 0 -4 -4 -5 -10 -2 -5 3 -10 0 -10 -7 0 -10 -2 -10 -9 1 -5 7 -13 11
-19 7 -6 -4 -8 2 -5 14 5 18 15 24 35 21 4 0 5 6 2 14 -8 19 14 47 29 38 6 -3
7 -1 3 6 -4 6 -12 8 -18 5 -7 -4 -8 -2 -4 4 4 6 13 9 21 5 8 -3 15 0 15 7 0 6
5 8 12 4 7 -4 8 -3 4 4 -4 7 -16 17 -26 22 -16 8 -18 7 -14 -4 3 -9 -4 -21
-19 -30 -18 -12 -23 -23 -19 -41 2 -15 0 -25 -7 -25 -7 0 -9 6 -5 13 5 9 4 9
-6 0 -13 -12 -18 -26 -22 -65 -1 -10 -6 -18 -10 -18 -4 0 -7 -6 -6 -12 2 -7
-5 -12 -14 -10 -9 1 -20 -3 -24 -9 -5 -8 -3 -10 7 -4 15 8 -18 -22 -75 -70
-20 -16 -36 -36 -36 -43 0 -7 -3 -11 -7 -9 -5 3 -14 -1 -21 -9 -7 -8 -10 -14
-6 -14 4 0 -5 -11 -19 -24 -20 -18 -23 -26 -14 -36 9 -10 9 -11 0 -6 -8 5 -13
1 -13 -9 0 -9 -4 -14 -9 -11 -5 4 -8 -5 -7 -18 2 -14 -3 -27 -11 -30 -8 -3
-11 -10 -8 -16 3 -5 1 -18 -5 -27 -10 -16 -11 -16 -6 2 5 19 5 19 -9 -1 -28
-39 -176 -14 -204 33 -6 10 -11 13 -11 6 0 -16 -46 31 -65 67 -8 16 -21 32
-27 36 -9 5 -8 2 1 -9 12 -15 12 -17 -3 -11 -11 4 -16 1 -16 -10 0 -9 -6 -16
-12 -17 -7 0 -4 -4 7 -9 11 -5 14 -9 7 -9 -10 -1 -10 -5 0 -23 7 -13 16 -25
20 -28 3 -3 8 -12 10 -20 3 -14 40 -59 85 -105 12 -13 19 -26 16 -29 -4 -3 1
-6 10 -6 10 0 17 -5 17 -11 0 -5 5 -7 10 -4 6 3 10 1 10 -4 0 -6 6 -11 13 -11
7 0 23 -9 35 -20 12 -12 22 -17 22 -13 0 4 4 2 9 -6 10 -16 -47 -79 -66 -73
-7 2 -13 -1 -13 -6 0 -11 -38 -28 -52 -24 -5 1 -8 -2 -8 -8 0 -12 -70 -25 -79
-14 -3 5 -12 9 -18 9 -7 0 -14 5 -15 10 -6 35 -57 49 -69 18 -10 -27 31 -80
52 -67 11 6 11 3 -1 -12 -8 -10 -11 -16 -6 -12 8 7 18 1 57 -34 10 -10 24 -18
30 -18 5 0 7 -4 4 -10 -3 -5 1 -10 10 -10 9 0 13 -5 10 -10 -4 -6 -3 -9 2 -8
12 4 54 -28 46 -35 -3 -4 1 -7 11 -7 9 0 14 -4 11 -10 -3 -5 2 -10 12 -11 10
0 13 -3 7 -5 -6 -3 -9 -16 -6 -31 3 -18 1 -24 -7 -19 -7 5 -11 -2 -11 -18 0
-14 -5 -28 -10 -31 -6 -4 -8 -10 -5 -15 3 -4 -2 -13 -10 -20 -7 -6 -11 -19 -8
-28 3 -9 2 -13 -2 -9 -8 6 -15 -14 -39 -103 -3 -8 -5 -21 -5 -27 -1 -14 -60
-47 -68 -39 -3 3 -14 1 -24 -5 -13 -6 -19 -6 -19 1 0 5 -7 10 -15 10 -8 0 -15
6 -15 12 0 7 -10 2 -22 -10 -23 -23 -23 -23 -3 -34 11 -7 22 -11 25 -11 3 1
13 -3 22 -8 11 -6 19 -5 24 2 5 8 9 8 14 -1 5 -8 15 -10 26 -5 11 5 24 7 29 6
28 -8 54 -7 49 0 -8 13 10 11 24 -3 7 -7 12 -8 12 -4 0 5 8 2 17 -5 14 -12 16
-12 8 0 -5 10 -4 12 4 7 9 -6 9 -11 -1 -24 -11 -13 -11 -14 1 -7 11 6 13 3 9
-13 -4 -14 -2 -19 7 -16 15 6 28 -11 32 -41 7 -49 8 -123 1 -119 -5 3 -8 -2
-8 -12 0 -19 -115 -134 -142 -142 -5 -1 -8 -4 -8 -7 0 -3 0 -13 0 -23 0 -20
32 -24 58 -9 6 5 17 5 24 1 7 -4 8 -3 4 4 -7 11 6 17 27 13 5 -1 6 3 2 9 -3 5
-3 15 1 22 5 7 11 5 21 -7 12 -18 13 -18 13 3 0 12 4 22 9 22 15 0 22 -18 11
-25 -8 -5 -8 -11 0 -20 7 -8 9 -19 6 -24 -4 -5 -2 -12 4 -16 6 -4 8 -10 5 -15
-3 -5 1 -32 9 -60 8 -27 13 -50 10 -50 -2 0 2 -12 9 -27 18 -36 16 -62 -9 -99
-18 -26 -37 -64 -34 -72 0 -1 -6 -15 -14 -31 -9 -16 -18 -42 -21 -57 -2 -16
-7 -40 -11 -54 -10 -45 -2 -189 12 -212 5 -7 10 -22 11 -32 5 -31 83 -186 94
-186 6 0 7 -4 4 -10 -3 -5 -1 -10 6 -10 7 0 9 -3 6 -7 -4 -3 6 -18 21 -33 15
-15 28 -33 30 -40 2 -7 14 -22 27 -32 14 -11 25 -26 25 -33 0 -8 8 -16 18 -19
20 -7 52 -56 52 -81 0 -10 5 -13 12 -9 6 4 3 -5 -8 -19 -10 -15 -23 -27 -27
-27 -5 0 -15 -7 -24 -15 -8 -8 -19 -12 -25 -9 -7 4 -8 2 -4 -4 4 -7 2 -12 -3
-12 -15 0 -14 -27 2 -32 21 -7 90 -2 133 10 68 20 76 11 72 -73 -2 -41 -7 -73
-13 -72 -8 2 -10 -2 -14 -34 0 -5 -5 -8 -10 -4 -5 3 -9 -8 -9 -25 1 -29 3 -31
40 -28 22 1 42 6 44 10 3 5 10 6 15 3 5 -4 9 -2 9 2 0 9 52 43 65 43 4 0 4 -8
1 -17 -4 -10 -4 -14 0 -11 3 4 13 0 21 -8 13 -12 10 -19 -22 -50 -20 -19 -39
-33 -42 -31 -2 3 -13 -2 -23 -11 -30 -28 -45 -39 -66 -49 -19 -11 -177 -9
-194 2 -5 3 -31 -14 -56 -39 -25 -26 -44 -46 -41 -46 7 0 -24 -38 -79 -96 -22
-24 -39 -46 -37 -48 2 -2 -22 -2 -54 1 -90 6 -146 6 -173 0 -43 -10 -65 -15
-70 -17 -3 -1 -27 -2 -55 -2 -27 0 -56 -4 -65 -9 -8 -4 -26 -10 -40 -13 -14
-3 -50 -28 -80 -56 -30 -27 -61 -50 -69 -50 -8 0 -12 -3 -9 -6 3 -3 -10 -20
-29 -39 -21 -20 -30 -36 -23 -40 14 -9 2 -27 -13 -19 -8 5 -8 3 0 -7 17 -17
16 -39 0 -39 -8 0 -20 -11 -27 -25 -7 -13 -17 -22 -22 -19 -4 3 -8 -2 -8 -11
0 -9 -4 -13 -10 -10 -5 3 -10 1 -10 -4 0 -6 -7 -11 -15 -11 -7 0 -19 -8 -24
-17 -6 -10 -11 -15 -11 -11 0 5 -12 -2 -26 -15 -28 -23 -60 -77 -47 -77 5 -1
-3 -10 -16 -20 -13 -11 -20 -20 -16 -20 7 0 -78 -104 -107 -131 -10 -9 -18
-22 -18 -28 0 -7 -4 -10 -9 -7 -5 4 -8 -5 -7 -18 2 -14 -2 -24 -8 -23 -6 1
-10 -4 -9 -10 2 -7 -2 -13 -8 -13 -5 0 -8 -4 -4 -9 3 -5 -1 -16 -9 -24 -8 -8
-11 -19 -6 -27 5 -8 -3 -32 -21 -62 -16 -27 -29 -53 -29 -58 0 -6 -4 -10 -10
-10 -5 0 -10 -5 -10 -11 0 -6 -9 -22 -20 -36 -11 -14 -17 -29 -14 -34 3 -5 0
-9 -5 -9 -6 0 -11 -7 -11 -15 0 -8 -4 -15 -10 -15 -5 0 -9 -3 -8 -7 1 -5 -5
-21 -12 -38 -7 -16 -13 -33 -12 -37 1 -5 -3 -8 -9 -8 -6 0 -9 -6 -6 -14 3 -7
0 -19 -6 -25 -6 -6 -7 -11 -3 -11 5 0 3 -6 -3 -14 -8 -10 -9 -16 -1 -21 6 -3
8 -11 5 -16 -4 -5 0 -9 7 -9 10 0 10 -2 -1 -9 -9 -6 -10 -11 -3 -15 7 -4 4
-19 -10 -41 -11 -20 -18 -42 -15 -49 3 -8 0 -17 -7 -19 -9 -4 -12 -17 -10 -36
2 -17 0 -31 -5 -31 -4 0 -7 -10 -6 -22 3 -40 -22 -106 -50 -132 -15 -14 -31
-26 -35 -26 -3 0 -16 -18 -29 -40 -12 -22 -20 -40 -16 -40 3 0 -2 -14 -11 -31
-11 -23 -12 -29 -2 -23 10 6 11 5 2 -7 -6 -8 -12 -29 -12 -48 0 -18 -3 -35 -5
-38 -3 -2 -1 -18 3 -34 5 -18 5 -29 -1 -29 -6 0 -7 -4 -4 -10 3 -5 1 -20 -6
-32 -11 -22 -20 -33 -88 -106 -17 -18 -31 -37 -31 -42 0 -4 -3 -10 -7 -12 -14
-6 -44 -68 -39 -77 4 -5 2 -11 -3 -13 -9 -3 -18 -39 -20 -78 -1 -8 -10 -21
-22 -28 -17 -11 -20 -11 -13 0 4 7 -1 6 -12 -3 -10 -9 -35 -24 -54 -34 -54
-27 -113 -95 -134 -154 -26 -73 -23 -200 5 -254 5 -9 6 -17 2 -17 -4 0 -2 -4
4 -8 15 -9 18 -43 10 -87 -6 -32 -20 -163 -19 -180 0 -5 3 -57 6 -115 6 -113
8 -129 19 -147 4 -6 10 -37 13 -68 5 -43 2 -62 -11 -82 -9 -14 -12 -22 -5 -18
14 9 -9 -36 -25 -47 -5 -4 -6 -8 -2 -8 4 0 2 -10 -5 -22 -7 -13 -12 -27 -13
-31 0 -4 -6 -11 -13 -16 -7 -4 -12 -12 -10 -17 1 -5 -3 -19 -10 -32 -7 -12
-10 -28 -6 -34 4 -6 3 -9 -2 -6 -5 3 -15 0 -21 -8 -8 -7 -9 -15 -3 -19 5 -3 7
-12 4 -20 -5 -12 12 -13 108 -8 62 3 129 6 148 7 19 1 41 5 49 10 10 6 12 5 7
-3 -5 -8 0 -10 18 -7 14 3 26 2 26 -2 0 -4 15 -8 32 -9 91 -4 162 -14 176 -25
13 -11 14 -11 8 1 -6 9 -1 8 16 -3 25 -17 118 -28 118 -14 0 4 7 4 17 1 10 -4
14 -2 9 5 -3 6 -2 13 4 17 5 3 10 1 10 -5 0 -6 5 -8 10 -5 6 4 8 11 5 16 -11
16 7 10 21 -8 10 -13 12 -13 9 -3 -4 11 2 15 19 15 13 0 22 -5 19 -11 -2 -6 3
-11 12 -11 8 0 15 5 15 10 0 5 5 5 13 -1 7 -6 25 -9 40 -8 15 2 27 0 27 -3 0
-3 24 -6 53 -6 28 0 56 -2 62 -4 15 -8 59 -11 177 -14 64 -1 108 -6 108 -12 0
-5 4 -4 9 4 6 9 10 10 16 2 4 -8 11 -9 18 -2 18 14 29 14 38 -1 7 -11 9 -11 9
1 0 11 3 11 17 0 15 -12 16 -12 8 1 -8 13 -7 13 8 1 12 -9 17 -10 17 -2 0 7 5
9 13 4 16 -10 70 -10 78 -1 12 16 69 16 80 -1 9 -13 10 -12 5 7 -3 18 -2 21 9
12 9 -8 15 -8 20 0 4 7 13 6 28 -2 12 -7 25 -11 29 -10 3 1 4 -12 1 -28 -3
-20 0 -30 9 -30 9 0 9 -3 -2 -10 -13 -8 -12 -10 3 -10 9 0 16 -3 15 -7 -3 -17
14 -42 26 -37 6 2 21 -3 31 -13 11 -10 29 -19 40 -20 31 -3 49 -8 64 -17 10
-7 12 -5 6 5 -5 8 2 5 15 -6 14 -12 20 -14 15 -5 -7 12 -6 13 7 3 8 -7 18 -10
21 -6 4 3 7 2 7 -4 0 -6 7 -14 16 -17 8 -3 12 -2 9 4 -3 6 1 7 9 4 9 -3 16
-11 16 -18 0 -6 5 -4 10 4 7 12 10 12 10 1 0 -7 6 -11 15 -7 8 3 15 1 15 -3 0
-5 8 -8 18 -7 9 2 20 -1 23 -6 3 -5 20 -10 37 -11 18 -1 32 -6 32 -11 0 -5 8
-2 17 5 11 10 14 10 9 1 -6 -11 11 -17 37 -13 4 0 7 -4 7 -10 0 -6 9 -8 21 -4
16 5 19 4 14 -6 -6 -9 -4 -11 8 -6 9 3 18 1 21 -6 3 -9 8 -8 15 3 6 8 11 10
11 4 0 -7 7 -15 16 -18 8 -3 12 -2 9 4 -3 6 1 7 9 4 9 -3 16 -10 16 -14 0 -5
9 -7 19 -5 11 2 22 -3 25 -12 5 -13 9 -13 23 -2 9 8 14 9 10 3 -4 -7 3 -14 18
-16 14 -3 25 -1 25 6 0 6 7 3 14 -6 7 -10 23 -18 35 -18 11 0 21 -6 21 -12 0
-9 4 -8 10 2 7 11 10 11 10 2 0 -7 4 -11 9 -7 5 3 12 1 16 -4 3 -5 14 -8 25
-6 13 3 20 -2 21 -13 0 -10 3 -12 6 -5 3 10 12 9 35 -3 20 -10 28 -11 23 -3
-6 9 -4 10 6 3 8 -5 23 -9 34 -9 11 0 27 -5 35 -10 8 -5 25 -10 38 -11 13 -2
31 -9 40 -16 13 -11 15 -11 7 2 -6 12 -5 13 6 2 7 -6 21 -12 31 -12 10 0 18
-4 18 -9 0 -5 8 -8 18 -6 9 1 27 -4 40 -12 12 -7 27 -11 32 -8 6 3 10 0 10 -7
0 -11 2 -10 9 0 6 11 10 10 15 -4 5 -13 9 -15 18 -6 9 9 17 7 32 -6 11 -9 16
-11 12 -5 -5 9 -2 11 8 7 9 -3 14 -10 11 -14 -3 -4 9 -7 25 -6 17 1 30 -1 30
-5 0 -3 11 -4 25 -1 15 2 25 0 25 -7 0 -6 11 -11 25 -11 14 0 25 -4 25 -10 0
-5 5 -10 11 -10 5 0 7 6 3 12 -6 10 -4 10 8 0 9 -7 36 -13 62 -15 25 -1 46 -4
46 -7 0 -3 9 -6 20 -7 13 -1 18 2 13 10 -4 7 0 6 10 -2 9 -7 14 -18 10 -24 -3
-6 -1 -7 6 -3 6 4 9 12 6 17 -4 5 3 6 17 0 13 -4 29 -6 37 -3 10 3 11 0 5 -9
-6 -12 -5 -12 8 -1 13 10 17 10 21 0 3 -10 7 -10 17 -1 10 9 18 9 34 1 25 -14
26 -13 37 4 5 8 9 9 9 2 0 -15 78 -8 99 9 12 10 13 9 7 -1 -6 -10 -1 -12 26
-7 18 3 54 7 81 8 26 1 47 6 47 11 0 5 3 6 7 3 3 -4 13 -1 21 6 11 8 14 8 9 0
-4 -6 -3 -14 3 -18 5 -3 10 -1 10 5 0 6 5 8 10 5 6 -3 10 -2 10 2 0 5 12 8 28
7 15 -1 32 2 37 7 6 4 17 4 25 -1 7 -5 24 -4 38 1 17 7 29 6 40 -3 11 -9 14
-9 9 -1 -6 9 4 11 33 10 22 -2 40 2 40 7 0 5 3 6 7 3 3 -4 13 -1 21 6 13 9 14
9 8 -1 -9 -15 -1 -15 25 -2 14 8 19 7 19 -2 0 -9 3 -9 8 -2 4 5 17 10 30 11
12 0 23 2 25 3 1 1 13 3 27 4 14 0 31 5 38 9 7 5 12 3 12 -5 0 -8 3 -9 8 -3 4
6 21 12 37 12 54 2 113 11 124 17 6 4 11 2 11 -5 0 -8 4 -8 13 -2 6 6 20 9 29
8 10 -2 20 0 23 5 2 4 16 6 30 5 14 -2 25 0 25 4 0 4 9 7 20 7 11 0 20 -4 20
-9 0 -4 5 -5 12 -1 13 8 75 16 122 14 15 0 35 5 44 12 12 11 16 11 20 0 2 -8
8 -10 15 -3 18 14 29 14 38 -1 7 -10 9 -10 9 0 0 6 9 12 20 12 11 0 20 6 20
13 0 6 5 4 11 -6 9 -15 13 -16 26 -5 9 7 18 12 20 11 1 -2 4 -2 6 -2 1 1 13 2
27 3 14 1 31 5 38 9 7 5 12 3 12 -4 0 -8 4 -8 13 -1 6 5 22 8 34 6 12 -2 25 1
28 6 3 6 11 10 16 10 6 0 7 -6 3 -13 -5 -8 -2 -8 9 2 9 7 17 10 17 7 0 -4 10
-2 21 5 15 8 19 8 15 0 -4 -6 -2 -11 3 -11 6 0 11 4 11 9 0 4 12 7 26 5 15 -1
37 2 50 6 17 7 24 6 24 -3 0 -9 2 -9 8 0 4 6 26 10 50 10 23 -1 42 3 42 8 0 6
5 3 10 -5 5 -8 10 -10 10 -4 0 9 28 14 88 14 12 0 22 5 22 11 0 8 4 8 13 1 8
-7 18 -7 27 -2 8 5 18 6 22 3 5 -2 15 1 23 7 12 10 15 10 15 0 0 -8 4 -9 13
-3 6 5 30 11 52 12 49 4 88 8 95 11 3 1 9 2 13 1 4 -1 17 3 27 9 14 8 20 8 20
0 0 -6 5 -8 12 -4 7 4 24 8 38 9 14 1 32 5 39 10 10 6 12 4 6 -4 -5 -10 -3
-11 11 -4 11 5 40 9 66 9 27 -1 48 2 48 5 0 3 10 5 23 4 12 -1 25 3 29 9 5 7
8 6 8 -4 0 -13 1 -13 10 0 7 11 10 11 10 2 0 -8 5 -10 13 -5 20 12 37 12 37 0
0 -7 5 -4 11 7 7 12 14 14 18 8 5 -8 14 -7 32 2 18 9 32 10 44 3 12 -6 16 -6
11 1 -4 7 12 10 48 9 30 -1 52 2 49 6 -2 4 11 6 31 4 19 -2 33 0 30 4 -3 5 2
9 10 9 9 0 16 -6 16 -12 0 -10 2 -10 8 -1 4 7 24 14 43 16 20 2 41 7 47 11 7
4 12 2 12 -5 0 -8 4 -8 13 -2 6 6 20 9 30 8 9 -2 17 1 17 6 0 5 5 9 11 9 5 0
8 -4 5 -9 -3 -4 7 -6 22 -4 15 2 47 6 72 7 63 5 62 5 55 19 -4 6 1 3 9 -7 9
-11 16 -15 16 -10 0 9 14 13 58 16 6 1 12 5 12 9 0 5 7 6 15 3 8 -4 21 -1 29
5 7 6 16 8 19 4 4 -3 7 0 7 7 0 7 3 10 6 7 6 -6 58 28 52 35 -1 2 7 13 17 26
11 12 20 26 20 30 1 4 6 17 13 29 7 12 11 26 11 30 -1 4 3 22 10 38 7 17 14
35 15 40 1 6 4 15 8 20 3 6 9 26 13 45 4 19 10 40 13 45 4 6 8 19 10 30 4 24
7 36 15 55 3 8 10 33 15 55 6 22 18 60 27 85 18 48 24 70 32 113 3 15 9 27 12
27 4 0 8 6 8 13 0 6 9 39 20 72 19 56 33 103 39 133 1 8 6 21 10 30 4 9 8 19
9 22 0 3 12 39 25 80 13 41 24 78 26 83 1 4 3 10 4 15 1 4 3 12 4 17 1 6 6 19
10 30 4 11 11 29 15 40 5 11 7 28 5 38 -1 9 2 17 7 17 5 0 9 10 9 23 0 12 7
35 15 51 9 16 13 31 11 33 -2 3 2 20 10 39 8 19 11 34 7 34 -5 0 -3 4 2 8 6 4
17 27 24 51 7 25 16 54 21 65 4 12 8 24 9 28 1 4 8 26 16 48 8 22 12 40 8 40
-3 0 0 7 7 15 7 8 10 15 7 15 -4 0 1 19 9 43 9 23 17 47 18 52 1 6 4 15 8 20
3 6 9 27 13 48 4 20 11 40 16 42 4 3 6 12 2 20 -3 8 -1 15 5 15 8 0 25 55 19
63 -1 2 6 15 16 30 9 15 15 27 13 27 -3 0 4 25 14 56 11 31 17 60 14 65 -3 5
0 9 5 9 6 0 11 9 11 20 0 11 4 20 9 20 5 0 8 11 6 25 -1 14 2 25 7 25 5 0 6 5
3 10 -3 6 -1 10 6 10 7 0 9 3 6 7 -4 3 -2 12 4 20 6 7 9 13 5 13 -4 0 0 13 8
29 8 15 17 41 20 56 3 16 9 31 13 34 8 6 14 30 17 61 0 8 7 21 14 29 8 8 11
22 9 32 -3 11 -2 21 3 24 19 11 -7 110 -37 142 -16 18 -63 35 -63 23 0 -6 -9
-6 -22 -1 -25 9 -64 8 -74 -1 -3 -4 -16 -3 -29 2 -14 5 -26 5 -33 -2 -7 -7
-16 -6 -30 1 -10 6 -22 8 -25 5 -9 -10 -127 -12 -133 -2 -3 4 -11 5 -17 1 -7
-4 -59 -8 -117 -9 -392 -7 -796 -16 -799 -20 -2 -2 -12 1 -22 7 -11 5 -19 6
-19 2 0 -10 -151 -10 -167 0 -6 4 -14 3 -17 -2 -4 -5 -31 -8 -61 -6 -31 2 -53
-1 -49 -6 3 -5 -7 -4 -21 1 -33 13 -48 13 -40 0 4 -7 -3 -7 -20 0 -33 13 -38
13 -30 0 4 -7 -2 -7 -19 -1 -19 8 -26 6 -31 -6 -5 -15 -7 -15 -21 -1 -12 12
-24 14 -44 8 -18 -5 -32 -4 -40 3 -10 9 -11 9 -5 -2 6 -10 2 -11 -15 -6 -17 6
-21 4 -14 -6 6 -12 5 -12 -8 -1 -12 9 -18 10 -23 2 -5 -8 -11 -8 -21 1 -11 9
-14 9 -14 -1 0 -10 -3 -10 -15 0 -12 10 -15 10 -15 -1 0 -10 -2 -11 -8 -2 -8
12 -29 13 -49 0 -6 -4 -15 -2 -19 4 -5 8 -3 9 6 4 8 -5 11 -4 6 3 -4 6 -13 9
-21 6 -8 -4 -13 -9 -10 -13 5 -9 -32 -7 -41 2 -4 4 -18 7 -32 7 -19 0 -22 3
-14 13 8 10 6 13 -8 13 -10 0 -16 -5 -12 -11 3 -5 -1 -5 -9 2 -8 6 -31 10 -51
9 -32 -3 -37 0 -54 33 -10 20 -18 38 -19 41 -1 3 -10 23 -20 45 -10 22 -19 42
-20 45 -1 3 -5 12 -8 20 -4 8 -9 26 -11 40 -3 14 -5 25 -6 25 -7 0 -4 83 3 93
6 8 5 12 -3 12 -8 0 -10 3 -7 6 10 11 -14 46 -28 41 -7 -3 -18 0 -24 6 -9 9
-11 7 -6 -8 6 -18 5 -18 -5 -2 -6 9 -18 17 -26 17 -8 0 -12 5 -9 10 3 6 0 10
-8 10 -7 0 -19 12 -25 26 -7 14 -17 22 -22 19 -6 -3 -10 0 -10 7 0 8 -13 25
-30 38 -16 14 -29 28 -30 32 0 4 -14 23 -32 42 -17 19 -33 43 -35 54 -5 37
-23 73 -33 67 -5 -3 -10 -1 -10 4 0 6 -9 11 -20 11 -11 0 -20 5 -20 11 0 5 -4
8 -10 4 -5 -3 -16 7 -24 22 -8 15 -17 27 -20 26 -14 -6 -27 -2 -21 6 6 11 -46
30 -92 33 -18 1 -33 6 -33 11 0 4 -4 6 -9 2 -5 -3 -12 -1 -16 5 -3 5 -14 10
-24 10 -10 0 -24 7 -31 15 -7 9 -15 13 -18 11 -2 -3 -14 0 -26 6 -21 12 -27
14 -46 17 -7 1 -7 8 0 21 6 11 16 17 22 14 6 -4 8 -3 5 3 -3 5 12 28 33 51 22
23 40 39 40 36 0 -3 14 10 30 28 17 18 30 36 30 41 0 4 5 5 10 2 6 -3 10 1 10
10 0 8 7 18 15 21 8 4 12 10 9 15 -3 5 0 9 6 9 6 0 8 5 5 10 -3 6 -2 10 3 10
10 0 62 77 62 91 0 5 5 18 10 29 6 11 15 29 20 40 6 12 8 25 5 30 -4 6 -2 10
3 10 8 0 23 47 21 66 0 4 4 10 10 13 6 4 14 27 17 51 10 73 12 85 14 85 2 0 9
34 15 75 2 19 6 44 9 55 7 38 19 110 21 135 2 14 8 37 14 53 6 15 9 27 6 27
-2 0 2 10 9 23 33 59 52 87 59 87 4 0 7 10 7 22 0 12 3 18 7 15 8 -8 39 34 35
47 -2 5 4 4 12 -4 12 -9 16 -10 16 0 0 6 10 26 22 43 12 17 23 36 24 42 1 5 3
15 5 20 1 6 -3 23 -10 39 -15 36 -12 113 5 127 9 8 11 5 7 -12 -4 -15 -3 -20
5 -15 11 7 18 -29 12 -59 -1 -5 2 -7 6 -2 4 4 16 -10 25 -30 10 -21 20 -37 23
-35 13 5 27 2 22 -6 -2 -4 11 -9 31 -10 20 -2 39 -4 42 -6 3 -2 12 2 18 9 10
11 7 16 -17 27 -17 7 -30 19 -30 25 0 7 -4 13 -8 13 -7 0 -8 18 -4 76 1 11 13
34 26 49 13 15 30 40 38 54 7 14 19 32 26 39 6 7 13 23 13 35 1 17 2 18 6 4 2
-9 9 -15 14 -12 8 5 14 -24 10 -47 0 -5 4 -8 10 -8 5 0 8 -4 5 -9 -14 -21 7
-41 39 -39 24 1 31 6 27 17 -3 8 -1 12 4 8 6 -3 11 11 12 33 3 46 28 110 43
110 6 0 19 -5 30 -10 19 -11 82 -13 129 -6 14 3 39 5 57 5 25 1 31 5 26 17 -3
8 -12 13 -19 10 -7 -3 -18 3 -23 12 -8 13 -12 14 -22 5 -8 -8 -18 -9 -31 -2
-13 7 -18 6 -18 -3 0 -10 -2 -10 -9 0 -7 12 -24 18 -53 21 -5 1 -8 7 -8 15 0
8 -4 16 -10 18 -5 2 -11 13 -13 25 -2 12 -6 25 -9 29 -4 3 -5 11 -3 17 2 7 6
43 9 81 4 37 11 77 17 87 6 13 6 19 -1 19 -5 0 -10 5 -10 10 0 24 37 2 69 -41
36 -47 90 -89 116 -89 8 0 15 -4 15 -9 0 -18 37 -18 48 0 12 19 6 49 -10 49
-5 0 -7 3 -5 8 6 9 -19 33 -27 25 -5 -6 -11 49 -7 71 1 4 4 29 6 55 2 25 5 47
5 49 1 1 2 22 3 45 l1 44 50 2 c77 4 95 7 102 14 4 4 15 7 24 7 9 0 25 9 35
20 10 11 20 18 23 16 6 -7 38 26 46 48 7 21 -10 47 -27 40 -24 -8 -128 -10
-133 -2 -3 4 -9 6 -14 3 -5 -3 -18 3 -30 15 -11 11 -24 20 -30 20 -5 0 -10 4
-10 9 0 5 -10 11 -23 15 -22 5 -51 59 -39 71 11 11 9 150 -2 164 -9 12 -8 13
3 6 10 -5 12 -4 7 4 -4 6 -10 23 -12 38 -3 15 -8 31 -12 37 -3 6 -7 18 -9 26
-3 23 -36 93 -52 114 -9 11 -10 16 -3 12 6 -4 12 -3 12 1 0 5 8 10 18 11 9 1
24 3 32 6 8 2 30 7 48 11 17 4 32 11 32 16 0 5 6 9 13 9 7 0 23 9 35 20 12 11
26 20 32 20 5 0 10 4 10 8 0 14 36 52 44 47 3 -3 2 0 -3 6 -6 8 -5 17 5 26 11
11 12 18 3 29 -6 7 -7 19 -3 25 5 8 3 9 -6 4 -7 -4 -16 -2 -21 6 -7 11 -9 11
-9 1 0 -8 -5 -10 -12 -6 -8 5 -9 2 -5 -10 5 -14 3 -15 -13 -6 -16 9 -18 8 -14
-5 4 -9 3 -15 -2 -14 -25 4 -45 -2 -38 -13 5 -7 3 -8 -7 -2 -8 4 -23 10 -34
11 -10 2 -22 9 -26 15 -4 6 -14 8 -23 5 -9 -4 -15 -1 -13 6 1 7 -7 12 -18 12
-11 0 -23 3 -26 8 -3 4 -16 10 -30 12 -13 3 -25 9 -27 15 -2 5 -10 10 -17 10
-8 0 -19 8 -24 19 -9 16 -5 21 22 35 17 8 28 16 22 16 -5 0 1 6 14 13 13 6 29
21 35 32 6 11 13 22 16 25 29 28 48 169 29 215 -4 11 -8 14 -8 8 -1 -7 -6 -13
-12 -13 -5 0 -7 5 -3 12 5 7 3 8 -5 4 -7 -5 -10 -14 -7 -22 3 -8 2 -14 -3 -14
-5 0 -7 -10 -7 -22 1 -13 -2 -31 -7 -42 -6 -12 -6 -16 2 -12 6 4 1 -11 -11
-33 -11 -22 -30 -42 -40 -45 -13 -3 -17 -9 -12 -17 5 -9 2 -10 -10 -6 -13 5
-17 3 -13 -7 5 -11 -39 -42 -52 -36 -2 1 -7 -4 -11 -10 -5 -8 -12 -7 -24 5 -9
9 -16 13 -16 9 0 -4 -9 2 -20 14 -11 12 -20 24 -20 27 0 12 -28 34 -34 28 -3
-4 -6 1 -6 10 0 8 -9 19 -20 22 -11 3 -20 13 -20 21 0 8 -3 13 -7 11 -9 -4
-47 35 -50 51 -2 7 4 9 14 5 10 -4 14 -2 10 4 -4 6 -1 10 5 8 39 -9 57 -18 53
-25 -9 -14 24 -32 50 -28 13 3 22 1 19 -4 -3 -5 0 -15 6 -24 10 -11 16 -12 26
-3 11 9 14 8 14 -5 0 -14 3 -14 20 -4 24 15 26 28 4 28 -9 0 -12 5 -8 13 5 7
0 6 -11 -3 -11 -9 -16 -10 -11 -2 5 8 -6 18 -33 31 -23 10 -38 22 -33 27 4 4
-1 2 -11 -6 -16 -11 -18 -11 -15 1 2 8 -4 13 -14 13 -10 -1 -16 1 -14 5 3 4
-4 13 -16 20 -11 7 -17 8 -13 2 3 -6 1 -11 -4 -11 -6 0 -11 5 -11 10 0 6 -7
10 -16 10 -9 0 -12 5 -8 13 5 9 4 9 -6 0 -14 -12 -60 2 -60 19 0 5 -4 7 -9 4
-5 -3 -8 8 -7 24 0 17 3 30 6 30 9 0 13 78 13 255 1 162 0 172 -23 210 -13 22
-29 43 -35 47 -5 4 -6 8 -1 8 5 0 3 7 -4 15 -7 8 -9 15 -4 15 4 0 -1 7 -12 15
-10 8 -16 15 -12 15 8 0 -6 19 -59 80 -18 20 -29 40 -25 44 4 4 3 7 -3 5 -17
-4 -45 13 -45 27 0 8 -7 14 -15 14 -9 0 -18 7 -21 15 -4 8 -10 12 -15 9 -5 -3
-9 0 -9 6 0 6 -4 9 -9 6 -5 -3 -11 1 -15 9 -3 8 -12 15 -21 15 -8 0 -15 5 -15
11 0 8 -5 7 -15 -1 -13 -11 -14 -10 -9 5 5 13 4 16 -4 11 -7 -4 -12 -2 -12 5
0 8 -4 8 -15 -1 -20 -16 -19 -6 1 14 8 9 11 16 5 16 -5 0 -13 -5 -16 -10 -4
-6 -11 -8 -16 -4 -6 3 -8 -5 -5 -20 3 -14 1 -28 -4 -31 -5 -3 -7 3 -5 15 2 11
-1 23 -7 26 -6 4 -8 2 -4 -4 3 -6 -2 -15 -11 -21 -12 -7 -13 -10 -4 -11 8 0
11 -6 7 -16 -3 -8 -2 -12 3 -9 5 3 13 -4 16 -15 5 -16 10 -18 20 -10 9 8 14 6
19 -5 3 -9 11 -13 17 -9 8 4 9 0 4 -15 -3 -12 -3 -20 2 -19 5 2 20 -7 33 -20
22 -20 22 -22 5 -17 -15 4 -14 3 3 -6 13 -7 21 -18 18 -26 -3 -7 -1 -13 5 -13
6 0 8 -4 4 -9 -3 -5 -1 -12 4 -15 5 -4 8 -17 6 -31 -1 -14 1 -27 4 -30 4 -2 8
-25 10 -50 1 -31 -2 -45 -8 -40 -6 3 -11 1 -11 -5 0 -7 -6 -10 -14 -7 -7 3
-19 0 -25 -6 -9 -9 -14 -9 -20 2 -6 9 -10 10 -12 2 -3 -7 -11 -13 -19 -14 -8
-2 -19 -5 -25 -9 -5 -3 -26 -9 -45 -13 -19 -4 -40 -11 -47 -17 -14 -11 -65 0
-57 13 3 5 -2 9 -11 9 -9 0 -14 4 -11 9 3 4 -8 23 -24 41 -17 19 -30 39 -30
45 0 7 -9 20 -20 30 -11 10 -20 24 -20 32 0 8 -4 11 -10 8 -9 -6 -14 8 -11 28
0 4 -3 7 -9 7 -5 0 -23 13 -38 30 -16 16 -32 27 -35 23 -4 -3 -7 1 -7 11 0 10
-5 14 -11 11 -5 -4 -20 1 -31 12 -14 12 -18 13 -13 3 7 -12 6 -13 -6 -3 -26
21 -225 37 -266 22 -15 -6 -23 -5 -23 2 0 6 -7 8 -15 5 -8 -3 -23 -9 -32 -12
-16 -5 -16 -4 -3 8 8 7 15 19 15 26 0 6 4 13 10 15 5 1 21 13 36 27 38 36 72
60 82 60 5 0 22 9 38 21 16 11 29 18 29 16 0 -3 19 1 43 7 23 7 55 12 70 11
15 -1 30 2 33 7 3 4 11 5 17 2 7 -4 8 -3 4 1 -7 8 -28 15 -54 17 -7 1 -10 5
-7 9 2 5 12 6 22 3 13 -5 14 -4 3 4 -13 9 -106 8 -178 -3 -101 -15 -265 -66
-294 -91 -8 -8 -19 -14 -23 -14 -10 0 -175 -113 -203 -139 -12 -12 -27 -21
-33 -21 -5 0 -10 -4 -10 -8 0 -14 -29 -10 -34 5 -3 7 -12 13 -20 13 -7 0 -16
6 -19 14 -3 8 -18 20 -34 28 -15 8 -48 26 -73 41 -25 14 -63 28 -83 32 -20 4
-37 11 -37 17 0 5 -4 7 -8 4 -5 -3 -16 3 -24 13 -12 15 -13 22 -5 31 9 10 9
11 -1 6 -10 -6 -13 12 -11 88 1 53 6 96 11 96 5 0 7 4 4 9 -7 11 31 61 46 61
6 0 17 8 24 18 10 12 13 13 14 3 0 -10 5 -8 18 6 9 11 23 18 30 16 7 -3 12 5
12 22 0 18 4 24 13 19 7 -4 7 -2 -2 7 -10 11 -15 11 -18 2 -3 -7 -9 -13 -14
-13 -6 0 -8 4 -4 9 9 15 -31 9 -71 -11z m-534 -443 c14 -3 38 -8 54 -10 16 -3
32 -8 35 -13 3 -5 18 -12 32 -15 15 -4 41 -20 58 -36 31 -29 31 -30 9 -37 -12
-3 -37 -8 -56 -10 -62 -6 -103 -14 -121 -24 -10 -5 -21 -6 -25 -3 -3 3 -6 1
-6 -6 0 -7 -5 -9 -10 -6 -6 4 -16 2 -23 -3 -40 -31 -167 -47 -167 -21 0 5 -6
9 -14 9 -8 0 -16 7 -19 14 -4 11 -1 13 11 9 13 -5 14 -3 6 6 -8 8 -9 22 -3 39
5 15 11 38 14 52 8 41 21 53 59 54 20 1 36 3 36 6 0 6 97 3 130 -5z m-948
-824 c-3 -9 -10 -19 -16 -23 -7 -5 -7 -8 2 -8 6 0 12 -5 12 -11 0 -22 -25 -1
-26 22 -2 30 1 36 20 36 9 0 12 -6 8 -16z m-42 -43 c0 -25 -3 -29 -12 -20 -14
14 -20 45 -7 36 5 -3 9 0 9 5 0 6 2 11 5 11 3 0 5 -14 5 -32z m3473 -8 c3 6 4
5 3 -2 -4 -19 -23 -20 -30 -2 -5 14 -4 15 8 5 10 -8 16 -9 19 -1z m-32 -22
c11 -21 11 -22 -4 -9 -10 7 -17 17 -17 22 0 15 9 10 21 -13z m-3461 2 c0 -5
-2 -10 -4 -10 -3 0 -8 5 -11 10 -3 6 -1 10 4 10 6 0 11 -4 11 -10z m-266 -915
c-5 -11 -1 -14 12 -9 18 5 18 5 1 -6 -10 -7 -21 -9 -24 -6 -6 6 3 36 11 36 3
0 3 -7 0 -15z"/>
<path d="M3095 8730 c-3 -5 -1 -10 4 -10 6 0 11 5 11 10 0 6 -2 10 -4 10 -3 0
-8 -4 -11 -10z"/>
<path d="M3166 8405 c5 -12 4 -16 -4 -11 -6 3 -13 2 -17 -4 -4 -6 -11 -8 -16
-5 -5 4 -12 0 -15 -8 -3 -9 -19 -21 -35 -27 -16 -7 -29 -16 -29 -21 0 -14 24
-23 28 -11 2 7 8 10 13 6 5 -3 9 -1 9 5 0 6 7 8 15 5 8 -4 15 -1 15 6 0 6 5 8
12 4 7 -4 8 -3 4 4 -4 7 -1 12 9 12 9 0 13 4 10 10 -3 5 0 8 7 5 7 -3 27 -1
43 3 23 7 33 5 43 -7 8 -9 11 -10 7 -3 -4 7 -1 19 5 27 10 12 8 13 -12 9 -34
-9 -69 -5 -85 7 -11 10 -12 8 -7 -6z"/>
<path d="M6506 7725 c-19 -14 -19 -15 0 -21 10 -4 22 -11 25 -16 3 -5 6 5 6
22 0 34 -4 36 -31 15z"/>
<path d="M6473 3345 c0 -8 4 -12 9 -9 5 3 6 10 3 15 -9 13 -12 11 -12 -6z"/>
<path d="M2120 730 c-9 -6 -10 -10 -3 -10 6 0 15 5 18 10 8 12 4 12 -15 0z"/>
</g>
</svg>
