<?xml version="1.0" standalone="no"?>
<!DOCTYPE svg PUBLIC "-//W3C//DTD SVG 20010904//EN"
 "http://www.w3.org/TR/2001/REC-SVG-20010904/DTD/svg10.dtd">
<svg version="1.0" xmlns="http://www.w3.org/2000/svg"
 width="1024.000000pt" height="1024.000000pt" viewBox="0 0 1024.000000 1024.000000"
 preserveAspectRatio="xMidYMid meet">
<metadata>
Created by potrace 1.14, written by Peter Selinger 2001-2017
</metadata>
<g transform="translate(0.000000,1024.000000) scale(0.100000,-0.100000)"
fill="#000000" stroke="none">
<path d="M1320 10127 c-550 -378 -1112 -754 -1158 -775 -53 -24 -97 -26 -144
-7 -17 7 -18 -6 -18 -176 l0 -184 36 -40 c20 -22 87 -96 148 -165 62 -69 148
-165 191 -215 181 -208 216 -236 291 -238 67 -1 120 31 659 398 72 49 258 175
415 280 157 106 373 252 480 325 107 73 235 161 284 194 128 86 166 125 166
167 0 19 -8 46 -18 60 -20 30 -350 395 -409 452 l-39 37 -214 -2 -213 -3 189
-208 c343 -378 369 -406 411 -443 l43 -35 -28 -23 c-15 -13 -101 -72 -192
-132 -91 -61 -214 -144 -275 -185 -60 -42 -179 -123 -263 -180 -84 -57 -214
-146 -290 -198 -323 -221 -447 -301 -467 -301 -23 0 -68 43 -171 165 -85 99
-204 232 -354 395 -113 122 -201 228 -168 202 12 -9 18 -10 23 -2 4 6 13 9 21
6 8 -3 13 0 11 7 -2 13 6 13 38 1 19 -8 19 -7 3 18 l-18 27 51 37 51 37 24
-27 c14 -14 29 -24 35 -21 10 7 -20 54 -35 55 -6 0 8 14 31 30 26 19 48 28 59
24 14 -4 16 -3 5 4 -8 6 -9 12 -3 16 6 3 12 1 14 -6 3 -8 11 -7 28 5 29 20 52
23 24 3 -10 -8 -16 -17 -12 -21 9 -10 58 25 58 42 0 10 6 12 19 8 16 -5 18 -2
14 15 -4 16 -2 19 12 13 14 -5 16 -3 11 8 -4 8 -1 6 7 -4 10 -12 24 -17 39
-14 21 4 21 4 2 6 -26 1 -41 31 -22 42 7 4 24 17 37 28 13 12 28 21 33 21 4 0
8 4 8 10 0 5 -17 0 -37 -12 -65 -37 -34 -13 161 122 104 72 195 129 202 126 8
-3 14 -1 14 5 0 18 24 36 45 32 11 -2 14 -1 7 3 -17 8 -5 24 14 17 9 -3 14 0
12 7 -2 6 8 19 22 28 13 9 21 11 16 5 -10 -17 4 -16 28 2 23 18 40 20 30 4 -3
-6 -1 -15 6 -19 11 -7 11 -11 -1 -22 -8 -8 -23 -17 -33 -21 -10 -4 -16 -10
-13 -13 10 -10 97 50 92 63 -2 7 2 10 8 7 7 -2 21 2 31 9 16 12 17 15 3 20 -9
3 -27 -5 -42 -19 -20 -18 -31 -22 -38 -15 -8 8 -7 11 1 11 10 0 10 3 0 14 -11
13 -16 12 -35 0 -13 -8 -23 -11 -23 -7 1 14 198 143 202 131 6 -16 48 0 48 19
0 8 -6 13 -12 10 -7 -2 -12 -10 -10 -16 1 -7 -2 -10 -8 -6 -18 11 10 36 31 30
14 -5 17 -2 13 8 -3 8 0 18 7 23 8 4 10 3 5 -4 -10 -16 26 -16 42 0 7 7 12 9
12 4 0 -4 10 0 21 8 23 16 52 11 43 -8 -3 -6 0 -4 8 5 7 9 20 18 28 22 8 3
-32 6 -90 6 l-105 1 -165 -113z m-630 -512 c-7 -8 -17 -15 -23 -15 -6 0 -2 7
9 15 25 19 30 19 14 0z"/>
<path d="M7621 10108 c-13 -73 -34 -186 -47 -252 -13 -65 -24 -140 -24 -167
l0 -48 75 -46 c68 -43 91 -65 66 -65 -5 0 -38 14 -75 31 -89 42 -132 26 -178
-66 -11 -22 -118 -182 -237 -355 -119 -173 -253 -369 -298 -435 -130 -191
-432 -652 -454 -695 -31 -59 -15 -82 101 -148 131 -75 403 -235 600 -353 91
-54 171 -99 178 -99 16 0 16 -17 0 -23 -7 -2 -10 -8 -5 -12 4 -5 13 0 21 10
12 17 19 15 120 -40 87 -48 105 -62 100 -77 -4 -12 0 -18 11 -18 19 0 380
-197 739 -405 188 -108 230 -105 312 23 21 32 39 50 46 46 7 -4 8 -3 4 4 -4 7
0 22 8 34 9 12 16 18 16 12 0 -5 -5 -15 -12 -22 -8 -8 -8 -12 -1 -12 12 0 27
29 24 48 -1 6 5 12 14 12 8 0 15 7 15 15 0 8 5 15 10 15 6 0 10 6 10 14 0 8 4
16 8 18 5 2 30 35 56 73 27 39 56 79 65 90 9 11 25 38 36 59 11 21 32 52 47
69 16 16 28 32 28 35 0 3 11 20 25 38 14 18 25 40 25 49 0 10 5 13 12 9 7 -4
8 -3 4 5 -5 7 15 41 46 84 72 96 171 232 248 342 34 50 80 109 101 131 20 23
67 87 104 142 105 157 100 193 -36 273 -65 39 -69 43 -54 59 16 17 19 17 80
-11 70 -31 95 -35 127 -18 34 18 39 35 190 689 91 397 178 810 178 849 0 38
-22 54 -196 149 l-132 72 -1039 0 -1040 0 -22 -132z m1005 -203 c15 -14 31
-25 35 -25 5 0 9 -9 9 -21 0 -11 -3 -18 -7 -16 -5 3 -16 -6 -26 -19 -16 -21
-16 -24 -2 -24 10 0 13 -5 9 -12 -4 -8 -3 -9 2 -5 5 5 9 14 9 20 0 7 4 13 10
15 11 3 26 -58 18 -72 -4 -5 -1 -6 4 -3 13 8 23 57 12 57 -5 0 -9 7 -9 15 0
19 17 19 36 1 18 -19 18 -35 -1 -42 -8 -4 -13 -10 -10 -15 7 -11 -5 -60 -14
-55 -3 2 -7 -7 -7 -20 -1 -13 3 -22 8 -21 22 4 18 -23 -4 -32 -19 -7 -23 -16
-23 -47 0 -30 -4 -38 -16 -36 -31 5 -41 -23 -23 -62 10 -19 21 -33 26 -30 4 3
8 0 8 -5 0 -6 -8 -11 -18 -11 -10 0 -26 -6 -37 -13 -17 -13 -16 -14 14 -20 39
-8 32 -27 -9 -27 -16 0 -32 -4 -35 -10 -3 -5 -25 -10 -48 -10 -38 0 -42 -2
-42 -25 0 -14 4 -25 10 -25 18 0 -12 -21 -33 -23 -12 0 -24 -7 -26 -14 -3 -8
1 -10 11 -6 13 5 15 2 10 -12 -5 -11 -1 -23 10 -32 28 -22 -36 10 -187 95 -74
42 -136 77 -138 78 -1 1 22 27 53 59 34 36 55 66 55 81 0 33 34 104 69 144 31
35 46 62 115 212 20 42 41 78 48 81 17 6 99 -36 134 -68z m565 -78 c-13 -13
-26 -3 -16 12 3 6 11 8 17 5 6 -4 6 -10 -1 -17z m-1431 3 c0 -5 -4 -10 -10
-10 -5 0 -10 5 -10 10 0 6 5 10 10 10 6 0 10 -4 10 -10z m1470 -4 c0 -3 -4 -8
-10 -11 -5 -3 -10 -1 -10 4 0 6 5 11 10 11 6 0 10 -2 10 -4z m-480 -146 c0 -5
-4 -10 -10 -10 -5 0 -10 5 -10 10 0 6 5 10 10 10 6 0 10 -4 10 -10z m1116
-212 c-8 -45 -37 -173 -63 -283 -38 -158 -49 -193 -53 -165 -5 35 -5 35 -51
32 -35 -2 -48 1 -52 13 -7 16 -47 21 -47 6 0 -5 -6 -11 -14 -14 -10 -4 -12 0
-8 16 3 12 1 19 -3 15 -4 -4 -16 -3 -26 3 -13 7 -26 6 -40 -2 -15 -8 -24 -8
-32 0 -6 6 -20 11 -30 11 -16 0 -19 6 -15 36 4 35 4 36 -26 29 -17 -4 -37 -7
-44 -8 -7 0 -11 -6 -8 -12 2 -6 -5 -17 -15 -23 -10 -7 -19 -21 -19 -33 0 -13
-4 -18 -12 -13 -8 5 -9 2 -5 -9 4 -12 -2 -21 -22 -32 -30 -15 -31 -27 -7 -116
9 -31 -16 -59 -79 -90 l-39 -19 -76 48 c-55 36 -74 54 -73 68 5 37 14 89 19
107 3 10 0 24 -6 32 -10 12 -10 18 0 30 10 12 9 16 -4 21 -11 4 -13 11 -6 23
5 10 9 40 10 67 2 77 5 97 18 122 9 14 9 22 2 22 -6 0 -10 8 -8 18 2 13 -4 17
-29 17 -58 0 -35 15 25 17 63 2 62 1 148 12 41 5 75 3 105 -5 24 -7 51 -14 59
-15 8 -1 20 -3 25 -4 16 -4 75 12 75 20 0 4 21 10 48 14 49 7 117 27 128 39 4
4 18 7 31 7 16 0 22 4 17 12 -5 8 -2 9 10 5 13 -5 24 1 38 18 22 28 53 33 62
10 3 -8 13 -15 23 -15 16 1 16 2 -2 16 -20 16 -20 16 1 10 15 -5 24 -1 28 10
4 10 13 14 26 11 11 -3 20 0 20 6 0 6 3 8 6 5 3 -4 -1 -44 -10 -90z m-1086
-88 c-8 -5 -33 -9 -55 -8 l-40 1 40 7 c65 12 73 12 55 0z m967 -422 c-3 -8 -6
-5 -6 6 -1 11 2 17 5 13 3 -3 4 -12 1 -19z m-2047 -741 c41 -23 92 -51 113
-62 20 -11 37 -24 37 -28 0 -5 -6 -4 -14 2 -7 6 -22 9 -32 5 -16 -5 -16 -4 -4
5 13 9 13 11 -1 11 -9 0 -22 7 -29 15 -7 8 -16 12 -21 9 -5 -3 -9 0 -9 5 0 16
-17 13 -23 -3 -4 -11 -1 -13 10 -9 11 4 14 2 9 -5 -5 -8 -1 -10 10 -5 11 4 15
3 10 -5 -3 -6 -1 -14 5 -18 8 -4 9 -3 5 4 -4 7 -3 12 2 12 10 0 32 -44 32 -65
0 -8 5 -15 10 -15 6 0 10 -5 10 -11 0 -7 -10 -9 -25 -5 -16 4 -25 2 -25 -5 0
-7 -13 -10 -36 -7 l-36 4 6 -40 c8 -59 11 -70 19 -84 6 -8 3 -10 -7 -6 -9 3
-16 1 -16 -5 0 -6 7 -11 15 -11 20 0 19 -10 -6 -36 -18 -19 -28 -21 -80 -17
-41 4 -59 2 -59 -6 0 -6 4 -11 9 -11 5 0 11 -13 13 -30 4 -24 1 -30 -13 -30
-38 0 -49 -12 -50 -54 -1 -38 -2 -39 -8 -11 l-7 30 -7 -33 c-6 -28 -10 -32
-27 -27 -11 4 -20 2 -20 -4 0 -6 5 -11 10 -11 6 0 3 -11 -5 -24 -9 -13 -18
-34 -20 -47 -7 -33 -39 -62 -72 -64 -50 -3 -54 -5 -48 -15 5 -8 11 -8 20 0 10
8 22 7 45 -5 18 -9 29 -19 26 -23 -4 -3 -12 0 -18 6 -14 14 -28 16 -28 4 0 -5
11 -15 25 -22 14 -7 25 -17 25 -20 0 -4 -53 21 -117 56 -65 35 -121 64 -125
64 -17 0 -3 25 104 186 61 93 161 244 221 337 61 92 113 167 116 167 3 0 40
-19 81 -43z m175 -97 c3 -5 1 -10 -4 -10 -6 0 -11 5 -11 10 0 6 2 10 4 10 3 0
8 -4 11 -10z m40 -28 c-3 -3 -11 0 -18 7 -9 10 -8 11 6 5 10 -3 15 -9 12 -12z
m-38 2 c-3 -3 -12 -4 -19 -1 -8 3 -5 6 6 6 11 1 17 -2 13 -5z m83 -26 c0 -6
-6 -5 -15 2 -8 7 -15 14 -15 16 0 2 7 1 15 -2 8 -4 15 -11 15 -16z m45 -26
c-3 -3 -11 0 -18 7 -9 10 -8 11 6 5 10 -3 15 -9 12 -12z m40 -20 c-3 -3 -11 0
-18 7 -9 10 -8 11 6 5 10 -3 15 -9 12 -12z m80 -40 c-3 -3 -11 0 -18 7 -9 10
-8 11 6 5 10 -3 15 -9 12 -12z m-405 -184 c0 -4 -13 -8 -30 -8 -23 0 -30 5
-30 19 0 17 3 18 30 8 17 -6 30 -15 30 -19z m-243 -264 c-3 -3 -12 -4 -19 -1
-8 3 -5 6 6 6 11 1 17 -2 13 -5z"/>
<path d="M8566 9918 c3 -4 9 -8 15 -8 5 0 9 4 9 8 0 5 -7 9 -15 9 -8 0 -12 -4
-9 -9z"/>
<path d="M8590 9896 c0 -2 7 -9 15 -16 12 -10 15 -10 15 4 0 9 -7 16 -15 16
-8 0 -15 -2 -15 -4z"/>
<path d="M9065 9380 c3 -5 15 -10 26 -10 11 0 17 5 14 10 -3 6 -15 10 -26 10
-11 0 -17 -4 -14 -10z"/>
<path d="M9375 9190 c-3 -5 1 -10 9 -10 9 0 16 5 16 10 0 6 -4 10 -9 10 -6 0
-13 -4 -16 -10z"/>
<path d="M9510 9156 c0 -2 9 -6 20 -9 11 -3 20 -1 20 4 0 5 -9 9 -20 9 -11 0
-20 -2 -20 -4z"/>
<path d="M7620 8240 c0 -5 9 -12 20 -15 23 -7 26 -21 8 -28 -7 -2 2 -4 19 -3
18 1 33 3 33 6 0 3 -18 15 -40 27 -22 12 -40 18 -40 13z"/>
<path d="M7736 8113 c-6 -14 -5 -15 5 -6 7 7 10 15 7 18 -3 3 -9 -2 -12 -12z"/>
<path d="M7700 8070 c0 -5 5 -10 10 -10 6 0 10 5 10 10 0 6 -4 10 -10 10 -5 0
-10 -4 -10 -10z"/>
<path d="M7663 8014 c-6 -13 -7 -26 -2 -29 4 -3 11 6 15 20 9 34 2 40 -13 9z"/>
<path d="M7400 7900 c0 -5 5 -10 10 -10 6 0 10 5 10 10 0 6 -4 10 -10 10 -5 0
-10 -4 -10 -10z"/>
<path d="M7335 7799 c-4 -6 -5 -12 -2 -15 2 -3 7 2 10 11 7 17 1 20 -8 4z"/>
<path d="M7486 7764 c-4 -11 0 -15 16 -12 12 2 23 9 26 16 6 18 -35 15 -42 -4z"/>
<path d="M7387 7613 c-10 -10 -8 -33 2 -33 6 0 9 9 8 20 -1 23 -1 22 -10 13z"/>
<path d="M1581 10176 c-10 -12 -8 -13 8 -9 12 3 21 9 21 14 0 14 -16 11 -29
-5z"/>
<path d="M1526 10129 c-11 -10 -14 -19 -8 -19 7 0 21 9 32 20 12 12 15 20 8
19 -7 0 -22 -9 -32 -20z"/>
<path d="M1367 10083 c-37 -26 -65 -49 -62 -51 2 -3 16 -6 30 -8 22 -2 25 1
19 19 -6 20 -5 21 11 7 17 -14 17 -13 10 9 -6 20 -4 23 9 18 10 -4 15 -3 11 3
-3 6 1 10 9 10 9 0 16 -6 17 -12 0 -7 5 0 10 16 4 17 7 31 6 32 -1 2 -33 -18
-70 -43z"/>
<path d="M1450 10098 c0 -5 4 -7 9 -3 5 3 12 1 16 -5 4 -6 11 -8 16 -5 17 11
9 23 -16 23 -14 0 -25 -5 -25 -10z"/>
<path d="M1438 10068 c-3 -7 -13 -13 -23 -13 -10 0 -20 -6 -22 -12 -8 -22 27
-14 55 12 20 19 23 25 10 25 -9 0 -18 -6 -20 -12z"/>
<path d="M1217 9903 c-4 -3 -7 -11 -7 -17 0 -6 5 -5 12 2 6 6 9 14 7 17 -3 3
-9 2 -12 -2z"/>
<path d="M799 9683 c-13 -16 -12 -17 4 -4 16 13 21 21 13 21 -2 0 -10 -8 -17
-17z"/>
<path d="M3859 9573 c-86 -59 -261 -193 -296 -226 -24 -23 -45 -39 -47 -36
-10 10 96 108 156 143 35 20 86 57 113 81 l50 45 -60 -21 c-163 -59 -467 -223
-890 -482 -218 -134 -272 -170 -395 -263 -169 -128 -460 -446 -460 -502 0 -13
2 -13 18 -1 10 8 8 4 -5 -8 -29 -28 -30 -68 -2 -91 12 -9 27 -23 35 -30 11
-10 19 -10 45 3 17 9 41 18 52 21 88 17 82 18 96 -21 11 -31 16 -36 37 -31 57
15 74 25 68 43 -8 25 25 -15 86 -103 61 -89 92 -114 140 -114 153 0 545 236
590 356 15 39 12 251 -5 348 -17 96 -9 128 37 160 36 26 58 19 161 -49 142
-93 216 -127 275 -127 61 0 88 14 184 99 141 124 198 206 198 282 0 13 7 29
15 35 11 8 14 20 9 44 -5 25 -11 32 -31 32 -13 0 -26 6 -28 13 -2 6 -24 67
-50 135 -25 68 -45 130 -45 139 0 8 10 23 21 32 20 16 21 19 6 47 -8 16 -24
37 -34 46 -18 17 -21 17 -44 1z m-174 -254 c-105 -106 -252 -238 -228 -204 28
39 242 249 268 263 35 20 31 13 -40 -59z m-320 -161 c-183 -193 -299 -295
-359 -314 -97 -32 -242 -101 -505 -243 -146 -77 -266 -141 -268 -141 -2 0 6
19 18 41 37 73 343 354 440 404 21 11 61 17 122 18 l92 2 180 106 c99 59 209
121 245 139 36 18 83 50 105 71 76 74 46 38 -70 -83z m-1140 -747 c-6 -5 -41
-26 -80 -46 -82 -42 -76 -32 10 19 58 34 90 46 70 27z m915 -16 c0 -40 -81
-138 -107 -128 -19 7 -16 13 42 77 44 50 65 66 65 51z"/>
<path d="M2456 8693 c-20 -40 -32 -108 -17 -99 6 4 8 12 5 18 -5 8 -1 9 10 5
14 -5 15 -3 6 13 -13 25 -13 30 3 26 6 -1 9 -1 5 1 -12 7 -9 30 5 42 10 8 17
7 26 -2 11 -10 13 -9 9 3 -8 27 -36 23 -52 -7z"/>
<path d="M6240 9537 l-125 -32 -200 -150 c-110 -83 -224 -166 -252 -184 -43
-28 -53 -39 -52 -60 2 -26 2 -26 6 -2 3 16 7 20 12 12 6 -9 23 -7 72 9 35 12
73 27 84 34 11 7 29 16 40 19 19 7 19 6 2 -7 -16 -12 -16 -14 -2 -20 11 -4 14
-2 9 6 -5 7 0 9 14 6 24 -7 61 5 152 50 100 48 262 112 272 106 4 -3 8 -18 8
-33 0 -24 -6 -30 -42 -40 -24 -7 -118 -46 -209 -86 -91 -41 -199 -87 -240
-104 -67 -26 -74 -32 -71 -55 2 -20 -5 -29 -35 -45 -35 -18 -207 -143 -237
-173 -7 -7 -45 -35 -85 -63 -81 -56 -174 -135 -167 -143 3 -2 24 10 48 27 23
17 48 31 55 31 7 0 13 5 13 10 0 6 6 10 14 10 7 0 19 7 26 15 7 8 16 13 20 10
5 -3 15 3 22 12 22 30 90 60 73 33 -4 -6 5 -10 20 -10 15 0 24 4 20 10 -3 6
-2 10 4 10 16 0 22 -18 9 -23 -9 -3 -10 -8 -2 -16 8 -9 24 -8 65 3 75 20 124
47 214 121 52 43 65 52 151 110 29 19 58 40 65 48 8 7 47 33 87 56 39 24 72
47 72 51 0 5 9 12 21 15 12 4 29 14 39 23 39 37 85 72 93 72 4 0 6 4 2 9 -3 5
4 12 15 16 27 8 47 45 30 55 -8 5 -7 9 5 13 11 5 14 3 9 -6 -5 -9 -4 -9 5 -1
8 8 9 18 1 38 -8 22 -5 36 20 83 46 85 37 139 -25 156 -11 3 -76 -9 -145 -26z
m-546 -382 c-4 -8 -14 -15 -23 -15 -14 1 -13 3 3 15 25 19 27 19 20 0z"/>
<path d="M527 9466 c-4 -10 -1 -13 9 -9 15 6 19 23 5 23 -5 0 -11 -7 -14 -14z"/>
<path d="M461 9453 c-1 -6 4 -15 10 -18 6 -5 4 -12 -8 -21 -15 -11 -15 -13 -2
-14 16 0 39 19 39 32 0 4 -6 8 -14 8 -8 0 -17 6 -19 13 -4 9 -6 9 -6 0z"/>
<path d="M361 9385 c-19 -14 -40 -26 -45 -28 -13 -5 11 -37 27 -37 7 0 7 4 -1
12 -7 7 -12 15 -12 18 0 10 53 34 67 31 8 -1 10 4 7 14 -3 8 -7 15 -8 15 0 -1
-17 -12 -35 -25z"/>
<path d="M5406 9304 c-9 -24 -7 -57 5 -74 8 -11 9 -7 5 18 -3 19 -1 42 4 53 6
11 7 19 1 19 -5 0 -12 -7 -15 -16z"/>
<path d="M2169 9253 c-13 -16 -12 -17 4 -4 16 13 21 21 13 21 -2 0 -10 -8 -17
-17z"/>
<path d="M2070 9190 c-14 -11 -20 -20 -15 -19 13 0 50 28 44 33 -2 3 -15 -4
-29 -14z"/>
<path d="M1995 9140 c-3 -5 -2 -10 4 -10 5 0 13 5 16 10 3 6 2 10 -4 10 -5 0
-13 -4 -16 -10z"/>
<path d="M1960 9115 c-11 -13 -10 -14 4 -9 9 3 16 10 16 15 0 13 -6 11 -20 -6z"/>
<path d="M1919 9083 c-13 -16 -12 -17 4 -4 9 7 17 15 17 17 0 8 -8 3 -21 -13z"/>
<path d="M5648 9093 c7 -3 16 -2 19 1 4 3 -2 6 -13 5 -11 0 -14 -3 -6 -6z"/>
<path d="M1847 9039 c-54 -35 -73 -58 -31 -35 31 16 93 65 83 66 -3 0 -27 -14
-52 -31z"/>
<path d="M1655 8907 c-66 -45 -170 -116 -232 -157 -61 -41 -110 -77 -108 -79
5 -4 395 256 440 294 57 47 19 25 -100 -58z"/>
<path d="M1280 8655 c-11 -13 -10 -14 4 -9 9 3 16 10 16 15 0 13 -6 11 -20 -6z"/>
<path d="M1193 8598 c-48 -33 -58 -48 -15 -23 42 25 66 44 61 49 -2 2 -23 -9
-46 -26z"/>
<path d="M1116 8544 c-11 -8 -16 -14 -10 -14 13 0 39 18 34 24 -3 2 -14 -2
-24 -10z"/>
<path d="M1012 8478 c-34 -22 -60 -43 -58 -45 2 -3 35 16 73 41 37 25 63 46
58 46 -6 0 -38 -19 -73 -42z"/>
<path d="M860 8379 c-41 -28 -77 -53 -80 -56 -12 -13 97 52 159 94 2 2 2 5 0
8 -3 2 -38 -19 -79 -46z"/>
<path d="M1830 7912 c0 -12 19 -26 26 -19 2 2 -2 10 -11 17 -9 8 -15 8 -15 2z"/>
<path d="M5035 7909 c-38 -5 -94 -21 -124 -35 -45 -23 -61 -38 -102 -103 -26
-42 -52 -81 -56 -86 -81 -101 -111 -151 -133 -225 l-16 -55 -355 -5 c-411 -6
-369 5 -472 -127 -144 -183 -377 -563 -377 -614 0 -37 31 -135 95 -298 l53
-137 -9 -359 c-6 -198 -16 -441 -24 -540 -21 -252 -21 -247 18 -270 38 -22
112 -82 240 -196 l93 -83 -58 -48 c-66 -56 -103 -114 -154 -246 -72 -184 -127
-231 -217 -184 -40 21 -31 23 28 7 32 -9 86 34 115 91 14 28 36 84 50 124 l24
73 -45 41 c-70 63 -297 237 -306 235 -14 -5 -104 -263 -110 -316 -5 -43 -2
-57 17 -83 12 -17 25 -29 27 -26 10 9 65 -25 91 -56 24 -28 26 -29 39 -12 19
26 22 15 13 -36 -5 -25 -9 -65 -10 -89 0 -65 -49 -261 -65 -261 -7 0 -24 12
-39 26 l-26 27 0 -204 c0 -248 15 -512 36 -634 19 -115 51 -241 70 -277 17
-32 88 -71 207 -113 65 -23 83 -34 102 -64 31 -49 51 -66 118 -96 46 -21 81
-28 180 -35 67 -5 581 -9 1142 -10 945 0 1031 2 1167 19 179 24 227 42 265
104 16 25 33 52 38 60 6 11 38 20 89 27 46 6 93 19 112 31 41 25 117 137 138
204 53 167 59 846 10 1085 -9 41 -29 113 -45 160 -37 108 -37 116 2 88 26 -19
28 -24 15 -34 -38 -27 0 -33 42 -7 45 29 54 41 46 65 l-7 22 -21 -25 c-18 -20
-56 -29 -56 -12 0 9 44 42 57 43 21 0 53 52 53 86 0 22 -28 94 -77 197 -135
284 -171 337 -243 358 l-38 12 -6 81 c-3 44 -10 151 -16 236 -22 321 -30 489
-30 631 0 146 0 147 34 222 46 100 146 405 146 444 0 36 -33 102 -126 251
-160 255 -242 366 -306 412 l-41 30 -339 0 c-262 0 -339 3 -342 13 -2 6 -12
43 -22 81 -12 50 -32 91 -70 145 -30 42 -68 102 -85 133 -17 32 -47 68 -68 82
-71 48 -209 71 -336 55z m300 -168 c120 -47 120 -46 118 -144 -1 -45 -5 -108
-8 -139 l-7 -58 -318 0 c-181 0 -321 4 -324 9 -10 16 -19 186 -12 223 6 32 13
38 97 78 122 58 175 70 284 66 72 -3 106 -10 170 -35z m478 -1911 l38 -22 -1
-280 c-1 -189 2 -284 9 -291 12 -12 15 -118 4 -157 l-7 -25 -7 30 c-6 25 -7
22 -8 -19 0 -27 -4 -46 -7 -43 -4 3 -16 0 -28 -8 -11 -8 -28 -15 -38 -15 -10
0 -18 -5 -18 -11 0 -6 -20 -9 -52 -8 -33 2 -53 -1 -56 -9 -3 -9 20 -12 85 -12
113 0 132 5 125 33 -4 17 -2 20 8 10 8 -7 10 -22 6 -37 l-6 -26 -118 0 -117 0
-3 161 c-2 112 1 165 9 175 9 11 10 80 5 267 l-8 252 24 21 c55 50 94 54 161
14z m-1412 -3 l34 -23 5 -266 c4 -195 8 -270 18 -280 15 -15 17 -194 2 -203
-5 -3 -10 -19 -10 -36 0 -16 -5 -29 -12 -30 -7 0 -50 0 -95 1 -46 1 -84 -3
-87 -9 -11 -17 37 -23 129 -19 57 3 84 1 82 -6 -5 -14 -163 -20 -207 -9 -30 8
-35 13 -36 44 -1 19 2 39 8 46 7 8 5 39 -6 93 -10 48 -14 90 -9 103 4 12 8
146 8 297 l0 274 34 23 c44 30 98 30 142 0z m868 -909 c17 -79 45 -186 61
-238 15 -52 38 -131 50 -175 30 -115 50 -165 64 -165 8 0 12 -9 9 -22 -2 -13
11 -67 30 -121 22 -64 31 -100 23 -102 -43 -13 -104 -14 -114 -2 -19 22 -33
148 -19 166 9 12 9 13 0 8 -19 -12 -35 55 -17 69 20 16 19 26 -35 221 -60 219
-121 480 -121 518 l0 28 18 -21 c11 -13 32 -79 51 -164z m-227 67 c-4 -93 -26
-274 -48 -395 -19 -109 -73 -312 -85 -324 -5 -6 -9 -21 -9 -34 0 -15 -5 -22
-12 -19 -17 5 -17 5 46 298 27 124 51 302 62 462 6 92 8 98 28 95 20 -3 21 -8
18 -83z m-578 -420 c8 -393 3 -462 -38 -544 -49 -96 -104 -89 -158 19 l-28 55
-4 415 -3 415 112 0 112 0 7 -360z m1390 307 c3 -26 10 -132 16 -237 6 -104
17 -258 25 -341 10 -111 11 -162 4 -190 -17 -60 -61 -144 -76 -144 -22 0 -88
66 -115 117 -19 35 -29 75 -37 143 -16 143 -31 408 -31 560 l0 135 104 2 104
2 6 -47z m818 22 c44 -21 74 -62 61 -83 -5 -9 -45 -44 -89 -79 -43 -34 -92
-73 -109 -87 l-30 -24 29 -83 c37 -107 84 -196 113 -215 24 -16 102 -14 148 3
13 5 17 4 10 -3 -17 -17 -75 -33 -121 -33 -79 0 -112 43 -190 249 -48 128 -76
163 -166 204 -25 12 -44 25 -41 30 3 5 35 28 72 52 120 77 241 104 313 69z
m-2623 -421 c-48 -140 -56 -292 -51 -1003 3 -391 12 -491 51 -577 47 -100 91
-113 384 -115 196 -1 199 -1 97 -10 -58 -5 -157 -7 -220 -5 -286 12 -324 65
-340 472 -13 307 -12 873 0 1010 11 114 38 224 65 263 28 39 34 24 14 -35z
m2098 -13 c38 -75 55 -164 31 -155 -8 3 -22 33 -32 66 -9 33 -27 82 -41 110
-20 43 -21 50 -7 47 9 -2 32 -32 49 -68z m-1258 -264 c20 -11 30 -26 38 -60
l10 -46 -36 -9 c-53 -14 -111 -24 -111 -19 0 11 33 115 41 131 12 21 22 21 58
3z m1311 -135 c0 -5 -12 -17 -27 -26 l-28 -18 24 27 c26 28 31 31 31 17z
m-2074 -102 c55 -25 239 -69 290 -69 22 0 44 4 50 10 6 6 270 11 714 14 388 2
717 7 732 11 21 6 32 2 53 -20 15 -14 25 -29 21 -32 -3 -3 -38 -14 -78 -24
-59 -15 -65 -18 -30 -16 24 1 42 -2 42 -8 0 -5 4 -4 9 4 8 13 12 13 27 0 15
-12 10 -15 -52 -28 -54 -11 -227 -15 -799 -18 -761 -5 -858 -2 -848 23 3 8 0
14 -5 14 -19 0 -25 -71 -13 -149 11 -75 16 -263 6 -272 -6 -6 -112 5 -120 12
-4 4 7 212 17 345 2 17 8 21 38 20 30 -1 35 2 38 24 2 18 0 21 -7 11 -14 -21
-71 -23 -71 -2 0 10 -18 23 -45 35 -68 28 -85 55 -85 138 l0 70 38 -37 c20
-21 55 -46 78 -56z m1886 -699 c1 -82 2 -165 2 -182 1 -31 -2 -34 -49 -46 -32
-8 -124 -14 -255 -15 l-205 -2 -3 192 -2 193 182 3 c101 1 216 3 256 5 l72 2
2 -150z m-142 -469 c135 -6 135 -6 66 -15 -73 -9 -363 0 -431 14 -50 10 171
11 365 1z"/>
<path d="M5720 5575 c-19 -22 -8 -25 13 -3 9 10 13 18 8 18 -5 0 -14 -7 -21
-15z"/>
<path d="M5636 5234 c-9 -24 -8 -26 14 -19 29 9 57 -2 63 -26 5 -19 6 -19 29
4 18 18 32 23 56 19 29 -4 32 -8 32 -38 0 -18 5 -36 10 -39 6 -4 10 15 10 48
0 61 -6 67 -70 67 -31 0 -39 -4 -43 -22 l-6 -23 -21 23 c-24 26 -65 29 -74 6z"/>
<path d="M5718 4993 c7 -3 16 -2 19 1 4 3 -2 6 -13 5 -11 0 -14 -3 -6 -6z"/>
<path d="M4307 5583 c-11 -10 -8 -20 6 -26 8 -3 13 3 13 14 0 19 -8 24 -19 12z"/>
<path d="M4393 5263 c9 -2 23 -2 30 0 6 3 -1 5 -18 5 -16 0 -22 -2 -12 -5z"/>
<path d="M4363 5243 c-15 -5 -18 -53 -3 -53 6 0 10 7 10 15 0 18 50 21 68 3 9
-9 12 -7 12 13 0 21 -5 24 -37 25 -21 1 -44 -1 -50 -3z"/>
<path d="M4234 5226 c-8 -21 5 -39 19 -27 7 5 22 11 35 13 37 5 30 23 -11 26
-26 2 -39 -1 -43 -12z"/>
<path d="M4440 5154 c0 -21 3 -34 7 -31 10 11 12 56 2 62 -5 4 -9 -11 -9 -31z"/>
<path d="M4350 4780 c0 -19 11 -26 23 -14 8 8 -3 34 -14 34 -5 0 -9 -9 -9 -20z"/>
<path d="M5737 4783 c-12 -11 -8 -23 8 -23 8 0 15 7 15 15 0 16 -12 20 -23 8z"/>
<path d="M1650 7821 c0 -10 22 -31 32 -31 17 0 7 28 -12 33 -11 3 -20 2 -20
-2z"/>
<path d="M2 7751 c2 -19 14 -27 58 -41 57 -18 90 -32 223 -94 43 -20 81 -36
83 -36 3 0 31 -12 62 -26 97 -44 120 -54 126 -54 3 0 28 -9 54 -21 26 -11 61
-26 77 -34 17 -7 66 -27 110 -45 44 -17 88 -36 97 -41 10 -5 23 -9 28 -9 11 0
48 -16 155 -65 28 -13 63 -27 78 -31 20 -4 26 -11 22 -22 -3 -8 0 -21 6 -29 9
-10 9 -17 1 -25 -9 -9 -12 -9 -12 1 0 7 -4 9 -10 6 -5 -3 -10 -1 -10 4 0 6 -8
11 -17 11 -14 0 -15 -2 -4 -9 9 -6 10 -11 2 -15 -6 -4 -14 0 -17 8 -7 18 -59
22 -69 6 -3 -5 -11 -10 -16 -10 -6 0 -8 4 -4 9 3 5 -9 9 -27 9 -91 -3 -282 13
-289 23 -5 8 -8 7 -11 -2 -4 -11 -9 -10 -26 4 -13 12 -21 14 -24 7 -2 -6 -33
-14 -68 -17 -56 -5 -63 -4 -53 8 10 12 8 15 -13 17 -13 1 -24 -3 -24 -8 0 -6
-6 -10 -12 -10 -7 0 -24 -9 -37 -19 l-23 -18 233 -117 c222 -110 237 -116 295
-116 33 0 68 -6 77 -13 16 -11 15 -16 -18 -62 -41 -58 -41 -61 -16 -61 11 0
19 3 19 6 -1 17 3 23 10 12 17 -26 -52 -334 -258 -1167 -39 -154 -70 -288 -70
-298 0 -16 6 -15 51 10 39 21 53 25 56 15 3 -7 15 -24 27 -38 l21 -24 44 20
c23 11 62 35 84 52 23 18 42 32 44 31 9 -8 23 -2 18 7 -3 6 2 13 12 17 10 3
38 20 63 37 65 44 110 67 120 61 4 -3 32 7 60 22 83 44 96 53 82 53 -24 0 -3
17 28 24 17 3 29 10 25 15 -6 11 29 33 39 24 3 -3 6 0 6 8 0 8 17 23 38 35 20
11 93 55 160 97 68 43 126 77 128 77 7 0 104 72 104 77 0 3 -10 -1 -22 -9 -58
-38 -166 -103 -303 -184 -82 -48 -187 -112 -232 -141 -77 -49 -113 -64 -113
-45 0 4 27 23 60 42 75 44 427 256 539 324 119 73 231 187 234 239 0 12 9 33
19 46 10 13 18 38 18 55 0 54 12 39 -430 521 -91 99 -184 202 -206 228 -23 26
-45 47 -49 47 -4 0 -18 -9 -32 -20 -14 -11 -31 -20 -37 -20 -6 0 4 9 22 20 17
11 32 24 32 28 0 15 -36 42 -45 35 -4 -5 -5 -3 -1 4 7 13 -261 293 -281 293
-7 0 -12 3 -12 8 4 22 -3 32 -21 32 -14 0 -20 7 -20 23 0 16 -3 18 -9 8 -7
-11 -13 -10 -32 8 -26 24 -19 41 8 20 16 -13 17 -12 4 3 -8 11 -22 16 -37 14
-16 -3 -24 0 -24 10 0 16 -26 19 -35 4 -8 -13 -25 -3 -25 13 0 8 3 8 9 -2 5
-8 11 -9 15 -3 10 16 -4 41 -20 35 -10 -4 -13 0 -8 13 5 18 5 18 -10 0 -8 -10
-13 -23 -10 -27 3 -5 1 -9 -4 -9 -6 0 -13 11 -16 25 -8 31 -46 42 -87 25 -16
-7 -27 -15 -25 -18 3 -2 -5 -12 -17 -22 -17 -14 -26 -16 -42 -7 -11 6 -33 11
-50 12 -19 0 -29 5 -27 13 3 15 -49 12 -61 -3 -4 -6 -10 0 -13 13 -6 19 -13
22 -63 22 -32 0 -62 5 -69 12 -9 9 -15 10 -20 2 -9 -15 -88 8 -85 24 2 8 -4 9
-20 3 -14 -5 -30 -5 -40 0 -13 8 -15 6 -11 -5 8 -21 -8 -26 -31 -10 -10 8 -13
14 -6 14 7 0 9 5 6 10 -4 7 -12 7 -18 2 -7 -4 -25 -5 -42 -1 -16 3 -24 7 -17
8 6 0 12 6 12 12 0 7 -10 9 -26 5 -20 -5 -33 -1 -51 16 l-25 23 4 -24z m802
-120 c3 -5 -5 -8 -18 -7 -13 0 -22 4 -19 9 6 10 31 9 37 -2z m422 -411 c8 0
14 -4 14 -9 0 -11 -49 -1 -57 12 -4 7 0 8 11 4 10 -4 24 -7 32 -7z m-714 -32
c-12 -12 -54 -14 -59 -2 -2 6 12 10 32 10 19 0 32 -3 27 -8z m314 -9 c3 -6 2
-15 -4 -21 -6 -6 -11 -2 -15 11 -5 22 7 29 19 10z m464 -20 c0 -5 -4 -9 -10
-9 -5 0 -10 7 -10 16 0 8 5 12 10 9 6 -3 10 -10 10 -16z m20 -108 c0 -5 -7
-12 -16 -15 -14 -5 -15 -4 -4 9 14 17 20 19 20 6z m-69 -1467 c12 -14 11 -16
-5 -13 -11 2 -21 10 -24 17 -5 17 13 15 29 -4z"/>
<path d="M750 7684 c0 -8 5 -12 10 -9 6 4 8 11 5 16 -9 14 -15 11 -15 -7z"/>
<path d="M890 7656 c0 -4 11 -18 25 -32 14 -14 25 -21 25 -16 0 5 -11 19 -25
32 -14 13 -25 20 -25 16z"/>
<path d="M660 7620 c-12 -7 -10 -9 7 -7 12 0 19 5 17 9 -6 10 -6 10 -24 -2z"/>
<path d="M2023 7375 c-39 -16 -44 -28 -9 -19 20 5 27 0 41 -25 9 -18 13 -36
10 -41 -4 -6 1 -13 9 -16 9 -3 16 -11 16 -16 0 -6 -7 -7 -16 -4 -8 3 -12 2 -9
-4 3 -6 13 -10 22 -10 13 0 14 8 9 41 -4 23 -12 51 -18 63 -7 11 -11 27 -10
34 4 15 -5 15 -45 -3z"/>
<path d="M7399 7321 c13 -12 28 -21 35 -21 12 0 -5 14 -39 31 -16 8 -15 6 4
-10z"/>
<path d="M7464 7286 c11 -9 24 -16 30 -16 12 0 7 5 -24 19 -24 11 -24 11 -6
-3z"/>
<path d="M7510 7266 c0 -2 8 -10 18 -17 15 -13 16 -12 3 4 -13 16 -21 21 -21
13z"/>
<path d="M680 7250 c0 -5 5 -10 10 -10 6 0 10 5 10 10 0 6 -4 10 -10 10 -5 0
-10 -4 -10 -10z"/>
<path d="M420 7220 c0 -5 7 -7 15 -4 8 4 15 8 15 10 0 2 -7 4 -15 4 -8 0 -15
-4 -15 -10z"/>
<path d="M376 7206 c10 -8 21 -12 24 -10 5 6 -21 24 -34 24 -6 0 -1 -6 10 -14z"/>
<path d="M10052 6967 c-6 -7 -31 -23 -54 -35 -24 -11 -75 -49 -113 -82 -79
-69 -105 -86 -105 -70 0 6 13 18 28 28 16 9 27 23 24 31 -3 8 0 11 6 7 5 -3
21 3 33 13 24 19 24 20 4 34 -21 16 -45 12 -45 -7 0 -6 -9 -18 -20 -26 -11 -8
-20 -20 -20 -26 0 -7 -8 -10 -20 -7 -14 4 -20 0 -20 -11 0 -10 -4 -15 -9 -12
-5 3 -77 -70 -160 -163 -83 -94 -178 -193 -212 -222 -42 -38 -59 -59 -57 -73
4 -27 49 -32 385 -44 279 -10 283 -11 283 -76 0 -19 -11 -90 -25 -158 -14 -68
-44 -211 -65 -318 -22 -107 -44 -211 -50 -230 -13 -45 -13 -50 3 -44 14 5 63
-45 147 -146 25 -30 68 -80 95 -111 28 -32 66 -76 85 -99 26 -30 40 -40 53
-35 16 7 17 53 16 799 -1 435 -5 805 -9 821 -4 17 -8 24 -9 16 -2 -20 -29 5
-33 30 -2 11 -7 18 -13 17 -5 -2 -9 -9 -7 -15 4 -17 -6 -16 -23 1 -9 9 -14 43
-16 107 -1 52 -6 100 -11 107 -14 16 -53 16 -66 -1z m-462 -361 c0 -2 -8 -10
-17 -17 -16 -13 -17 -12 -4 4 13 16 21 21 21 13z m-45 -46 c-3 -5 -11 -10 -16
-10 -6 0 -7 5 -4 10 3 6 11 10 16 10 6 0 7 -4 4 -10z"/>
<path d="M9880 6905 c14 -16 40 -20 40 -6 0 9 -24 21 -42 21 -6 0 -6 -6 2 -15z"/>
<path d="M2970 6802 c-39 -26 -63 -62 -42 -62 10 0 82 63 82 73 0 11 -12 8
-40 -11z"/>
<path d="M926 6785 c-11 -8 -16 -18 -13 -22 4 -3 16 3 27 15 23 25 15 29 -14
7z"/>
<path d="M2977 6756 l-28 -22 56 -45 c30 -24 55 -47 55 -50 0 -4 7 -9 15 -13
26 -10 16 8 -35 62 -41 44 -49 57 -39 68 20 24 6 24 -24 0z"/>
<path d="M840 6695 c-7 -8 -9 -15 -6 -15 4 0 14 7 22 15 9 8 11 15 6 15 -5 0
-15 -7 -22 -15z"/>
<path d="M805 6668 c-5 -5 -57 -54 -114 -109 -89 -84 -102 -101 -91 -114 16
-20 5 -32 -14 -16 -17 14 -36 7 -36 -12 0 -7 -25 -37 -55 -67 -31 -29 -54 -59
-51 -66 3 -7 -6 -14 -20 -17 -26 -5 -31 2 -12 21 7 7 8 12 2 12 -5 0 -14 -8
-20 -18 -9 -14 -8 -22 5 -39 l17 -21 32 34 c18 18 32 38 32 44 0 5 6 10 13 10
8 0 71 56 141 125 71 69 133 125 139 125 7 0 3 7 -8 15 -18 14 -18 16 -2 32
13 13 20 15 29 5 16 -16 25 -15 32 4 3 8 2 12 -4 9 -21 -13 -31 7 -14 26 18
20 17 34 -1 17z m-55 -94 c0 -11 -28 -33 -34 -27 -10 10 -7 25 4 18 6 -3 10
-1 10 4 0 6 5 11 10 11 6 0 10 -3 10 -6z m-56 -49 c-4 -8 -12 -15 -20 -15 -8
0 -14 -9 -14 -20 0 -21 -14 -27 -25 -11 -3 5 9 21 27 35 39 30 39 30 32 11z
m-117 -120 c-15 -16 -19 -13 -11 9 3 9 10 13 15 10 5 -3 3 -11 -4 -19z"/>
<path d="M770 6590 c0 -5 7 -10 15 -10 8 0 15 5 15 10 0 6 -7 10 -15 10 -8 0
-15 -4 -15 -10z"/>
<path d="M2793 6468 l-42 -43 37 -41 c43 -49 63 -57 98 -44 18 7 24 15 20 26
-3 9 -9 28 -13 42 -6 25 -5 26 13 12 18 -14 18 -14 4 5 -8 11 -17 22 -20 25
-3 3 -13 17 -23 33 -10 15 -21 27 -25 27 -4 0 -26 -19 -49 -42z m77 -118 c0
-5 -5 -10 -11 -10 -5 0 -7 5 -4 10 3 6 8 10 11 10 2 0 4 -4 4 -10z"/>
<path d="M8345 6442 c-67 -32 -638 -474 -708 -549 -46 -50 -36 -104 37 -198
87 -113 361 -432 601 -701 344 -385 437 -497 430 -516 -3 -8 2 -21 12 -28 15
-12 16 -12 6 0 -21 23 -15 35 7 15 11 -10 18 -26 15 -35 -3 -10 19 -43 66 -93
l71 -77 55 0 c43 0 68 6 102 26 47 28 134 93 139 106 2 4 27 24 55 45 61 45
56 41 172 135 50 41 135 107 190 148 126 94 112 83 168 131 49 43 58 70 38
122 -5 13 -62 85 -126 158 -64 74 -186 213 -270 309 -84 96 -235 270 -336 385
-283 325 -525 590 -556 610 -40 27 -119 30 -168 7z m290 -237 c51 -60 113
-132 138 -160 30 -33 41 -52 34 -57 -19 -12 -28 -9 -25 10 2 12 -3 16 -16 14
-10 -2 -15 1 -12 6 3 5 0 10 -7 9 -34 -1 -47 5 -48 21 -1 15 -2 15 -6 1 -5
-19 -40 -32 -48 -18 -9 14 -73 -4 -87 -25 -4 -6 -26 -10 -50 -9 -24 0 -47 -3
-53 -7 -5 -4 -25 -11 -42 -15 -18 -3 -33 -11 -33 -16 0 -5 -11 -9 -25 -9 -14
0 -29 -8 -35 -21 -10 -17 -18 -20 -51 -15 -30 4 -39 2 -39 -9 0 -8 -9 -15 -21
-15 -11 0 -18 4 -15 8 2 4 -4 8 -15 8 -10 0 -19 -5 -19 -11 0 -5 -5 -3 -10 5
-9 13 -12 12 -25 -5 -14 -18 -17 -18 -43 -3 -20 12 -40 15 -71 11 -31 -4 -45
-2 -51 8 -7 11 -13 8 -29 -10 -12 -13 -21 -20 -21 -15 0 5 -4 5 -8 -1 -4 -5
-23 -20 -42 -33 -27 -18 -24 -13 15 23 78 72 493 400 579 459 l39 26 25 -22
c13 -13 66 -72 117 -133z m230 -265 c10 -11 14 -20 9 -20 -5 0 -15 9 -22 20
-7 11 -11 20 -9 20 2 0 12 -9 22 -20z m-1045 -113 c0 -2 -10 -12 -22 -23 l-23
-19 19 23 c18 21 26 27 26 19z m601 -58 c-8 -21 -10 -22 -16 -6 -4 10 -2 24 6
33 17 20 23 5 10 -27z m138 -4 c17 -20 31 -44 31 -55 0 -20 -36 -60 -55 -60
-17 0 -54 29 -66 53 -11 19 -8 18 20 -6 38 -32 44 -33 67 -9 17 16 16 17 -12
23 -28 7 -28 7 -6 14 26 9 27 13 5 37 -22 24 -49 23 -67 -4 -15 -22 -16 -22
-16 -2 0 53 55 58 99 9z m449 0 c-3 -3 -9 2 -12 12 -6 14 -5 15 5 6 7 -7 10
-15 7 -18z m65 -70 c48 -58 94 -169 127 -305 21 -89 31 -172 19 -164 -5 3 -9
19 -9 35 0 45 -30 169 -41 169 -6 0 -9 6 -7 13 2 6 -8 29 -20 49 -13 21 -21
42 -17 48 3 5 -1 19 -9 31 -8 12 -12 28 -9 35 3 8 0 14 -6 14 -6 0 -20 23 -32
50 -12 28 -25 50 -29 50 -4 0 -10 7 -14 15 -10 26 2 17 47 -40z m-626 29 c8
-21 -8 -33 -32 -24 -11 5 -14 9 -7 9 6 1 12 8 12 16 0 20 19 19 27 -1z m-48
-41 c13 -13 28 -23 32 -23 14 0 11 -74 -3 -88 -44 -44 -160 45 -137 106 9 25
45 42 69 34 8 -3 26 -16 39 -29z m293 -5 c-6 -6 -15 -9 -18 -5 -4 3 -4 14 0
23 5 13 9 15 18 6 9 -9 9 -15 0 -24z m-33 -11 c6 -8 8 -17 4 -20 -7 -8 -33 11
-33 24 0 13 16 11 29 -4z m-24 -37 c-3 -5 -10 -10 -16 -10 -5 0 -9 5 -9 10 0
6 7 10 16 10 8 0 12 -4 9 -10z m-25 -31 c0 -11 -27 -12 -34 0 -3 4 -3 11 0 14
8 8 34 -3 34 -14z m-40 -24 c20 -24 6 -28 -15 -5 -10 11 -13 20 -8 20 6 0 16
-7 23 -15z m-33 -14 c14 -23 5 -35 -14 -20 -14 12 -18 39 -5 39 4 0 13 -9 19
-19z m-27 -31 c15 -15 16 -20 5 -20 -8 0 -19 9 -25 20 -6 11 -8 20 -5 20 3 0
14 -9 25 -20z m-40 -30 c0 -11 -4 -20 -10 -20 -5 0 -10 9 -10 20 0 11 5 20 10
20 6 0 10 -9 10 -20z m400 -920 c0 -5 -5 -10 -11 -10 -5 0 -7 5 -4 10 3 6 8
10 11 10 2 0 4 -4 4 -10z m-29 -255 c5 -11 -9 0 -31 25 -23 25 -46 54 -51 65
-6 11 8 0 31 -25 22 -25 45 -54 51 -65z"/>
<path d="M8428 5993 c7 -3 16 -2 19 1 4 3 -2 6 -13 5 -11 0 -14 -3 -6 -6z"/>
<path d="M8322 5688 c-20 -20 -13 -53 17 -82 39 -37 75 -33 79 10 3 26 -3 35
-36 57 -44 31 -44 31 -60 15z"/>
<path d="M344 6238 c-4 -6 -2 -14 4 -16 7 -2 12 -10 12 -19 0 -8 7 -13 18 -11
27 6 10 57 -20 58 -4 0 -10 -5 -14 -12z"/>
<path d="M242 6140 c-35 -32 -77 -62 -93 -65 -49 -11 -28 -30 31 -29 50 2 56
5 104 54 28 29 46 50 40 46 -7 -3 -15 1 -18 10 -9 24 1 29 20 13 16 -13 16
-12 3 9 -8 12 -16 22 -19 22 -3 -1 -33 -27 -68 -60z m58 0 c0 -5 -2 -10 -4
-10 -3 0 -8 5 -11 10 -3 6 -1 10 4 10 6 0 11 -4 11 -10z"/>
<path d="M5 6015 c-8 -96 0 -399 11 -429 9 -24 53 -15 89 19 16 14 34 25 41
25 7 0 19 9 26 19 8 11 26 23 41 26 15 4 41 24 57 44 l30 36 -30 30 c-33 34
-188 224 -236 290 l-22 29 -7 -89z m205 -286 c0 -5 -4 -9 -10 -9 -5 0 -10 7
-10 16 0 8 5 12 10 9 6 -3 10 -10 10 -16z m-40 -30 c0 -18 -2 -19 -15 -9 -8 7
-15 16 -15 21 0 5 7 9 15 9 9 0 15 -9 15 -21z m-54 -46 c-7 -7 -26 7 -26 19 0
6 6 6 15 -2 9 -7 13 -15 11 -17z m-46 -23 c0 -5 -4 -10 -9 -10 -6 0 -13 5 -16
10 -3 6 1 10 9 10 9 0 16 -4 16 -10z"/>
<path d="M2258 5993 c34 -77 45 -96 49 -86 5 13 -31 88 -47 98 -6 4 -7 -1 -2
-12z"/>
<path d="M2096 5924 c-4 -10 -12 -14 -22 -10 -14 5 -15 4 -5 -8 11 -13 6 -21
-25 -48 -21 -18 -45 -41 -54 -50 -15 -16 -17 -16 -34 12 -22 37 -45 38 -79 2
-25 -26 -26 -31 -15 -60 11 -29 10 -34 -19 -64 -97 -103 -86 -226 34 -379 58
-74 179 -173 251 -206 l52 -24 0 -210 c0 -179 2 -209 15 -209 17 0 16 -13 15
228 l-1 173 23 -6 c13 -3 61 -14 108 -26 105 -25 284 -35 364 -20 127 24 209
82 254 180 73 158 -8 351 -183 437 -52 25 -72 29 -145 29 -112 0 -187 -33
-263 -115 -83 -89 -177 -299 -177 -394 0 -25 -2 -28 -26 -22 -83 21 -270 190
-317 286 -51 104 -46 187 16 257 l30 35 96 -2 c145 -3 149 -2 173 25 11 13 25
22 29 20 27 -17 -24 117 -64 168 -17 21 -23 21 -31 1z m590 -339 c82 -24 171
-115 195 -199 14 -47 -7 -144 -42 -196 -57 -84 -137 -124 -249 -124 -75 0
-120 21 -151 70 -23 38 -26 153 -4 199 l14 30 -3 -30 c-2 -16 -1 -23 1 -15 3
8 22 39 41 70 20 30 36 60 37 65 0 6 26 23 58 38 79 39 63 61 -27 36 -54 -15
-124 -83 -157 -154 -16 -33 -29 -67 -30 -75 0 -8 -5 -4 -10 9 -10 24 -5 70 12
128 10 32 85 110 129 133 60 32 114 37 186 15z m-192 -167 c-16 -18 -33 -37
-38 -43 -12 -14 3 13 26 48 11 15 24 27 31 27 6 0 -2 -15 -19 -32z m-177 -63
c2 -91 41 -203 85 -247 l38 -38 -37 0 c-33 0 -143 22 -180 35 -17 6 18 153 56
238 16 37 31 67 33 67 2 0 4 -25 5 -55z m620 -59 c-6 -63 -34 -121 -74 -156
l-28 -25 26 30 c40 45 60 91 66 151 3 30 8 54 11 54 3 0 2 -24 -1 -54z"/>
<path d="M565 5130 c3 -5 8 -10 11 -10 2 0 4 5 4 10 0 6 -5 10 -11 10 -5 0 -7
-4 -4 -10z"/>
<path d="M905 4978 c-15 -18 -45 -52 -66 -75 l-40 -42 43 -38 c24 -21 57 -51
74 -68 53 -52 72 -59 97 -38 44 37 49 44 43 58 -3 8 0 12 7 9 7 -2 19 10 26
28 8 18 16 36 18 40 6 10 -147 158 -162 158 -7 0 -25 -15 -40 -32z"/>
<path d="M555 4704 c-33 -25 -72 -57 -88 -72 l-27 -26 76 -73 c64 -61 79 -71
95 -62 10 5 59 36 109 68 l90 58 -80 77 c-44 42 -88 76 -97 76 -10 0 -45 -21
-78 -46z"/>
<path d="M2310 4628 c192 -82 315 -302 280 -500 -32 -186 -181 -339 -355 -367
-85 -13 -151 1 -258 53 -87 43 -207 134 -207 158 0 6 8 4 18 -5 16 -15 17 -14
18 11 0 15 4 42 7 61 5 30 -5 114 -19 164 -3 11 0 17 9 17 8 0 17 7 21 15 3 8
1 15 -5 15 -6 0 -7 5 -4 10 9 14 -8 12 -24 -2 -10 -9 -12 -9 -7 -1 10 19 -13
26 -30 9 -8 -9 -17 -16 -20 -16 -2 0 -25 31 -49 70 -45 69 -77 103 -60 64 4
-10 17 -53 27 -94 10 -41 25 -95 33 -120 20 -60 20 -59 -21 -76 -26 -11 -39
-12 -49 -4 -10 8 -16 7 -23 -6 -6 -11 -17 -15 -30 -12 -15 4 -19 2 -15 -8 3
-8 14 -14 24 -14 10 0 19 -5 19 -10 0 -17 97 -158 154 -225 95 -112 170 -172
266 -211 65 -26 170 -46 185 -34 6 4 32 12 59 19 27 7 66 21 88 32 21 11 44
17 51 13 7 -4 9 -4 5 1 -4 4 15 24 41 45 48 38 98 95 121 139 10 19 14 21 22
10 7 -10 8 -8 3 8 -5 19 -3 22 12 17 13 -4 14 -3 5 3 -10 8 -7 22 14 67 40 88
50 181 31 299 -19 121 -59 204 -140 293 -61 66 -163 126 -237 139 -24 4 -12
-4 40 -27z m100 -893 c0 -13 -133 -75 -183 -85 -73 -15 -167 0 -238 36 -60 30
-64 40 -6 14 111 -49 245 -45 355 9 59 29 72 34 72 26z"/>
<path d="M2001 4531 c-18 -33 -13 -43 14 -25 29 19 112 14 168 -10 89 -38 177
-153 224 -295 31 -92 32 -94 27 -41 -3 30 -12 74 -20 98 -8 23 -14 50 -14 60
-1 28 -63 104 -123 150 -64 50 -132 74 -198 71 -25 -2 -50 1 -57 4 -6 4 -16
-1 -21 -12z"/>
<path d="M1474 4499 c-8 -14 65 -89 87 -89 20 0 43 25 35 39 -8 12 -91 61
-105 61 -5 0 -13 -5 -17 -11z"/>
<path d="M819 4392 c-41 -37 -94 -84 -118 -105 l-44 -36 -22 66 c-27 80 -55
107 -128 123 -105 24 -238 -26 -357 -135 -38 -35 -87 -73 -110 -85 l-40 -20 1
-232 c0 -145 4 -237 11 -245 12 -15 35 -5 72 32 14 14 31 22 39 19 9 -3 21 4
30 16 l14 21 17 -25 c9 -14 16 -28 16 -32 0 -12 51 -74 61 -74 13 0 11 24 -3
38 -6 6 -13 20 -14 29 -1 10 -7 33 -13 52 -8 27 -8 32 1 23 17 -17 28 -15 22
3 -6 13 11 20 38 16 4 0 5 6 2 14 -4 8 -1 15 5 15 35 0 61 17 55 35 -5 11 -2
13 10 9 12 -5 16 0 16 16 0 16 3 20 13 13 13 -11 62 9 51 20 -8 8 15 37 29 37
6 0 2 -7 -9 -15 -18 -13 -18 -14 -1 -15 10 0 23 5 30 10 7 6 23 19 36 30 13
11 19 20 14 20 -6 0 -16 -7 -23 -15 -7 -8 -18 -15 -24 -15 -6 1 4 14 23 30 18
15 38 27 45 26 6 -2 7 -1 3 2 -11 6 22 41 36 38 7 -2 9 -1 5 1 -4 2 -4 11 -1
19 3 7 9 11 14 8 17 -10 31 7 18 22 -6 8 -9 17 -5 21 3 3 6 1 6 -7 0 -9 3 -10
13 -1 8 6 18 7 23 3 4 -4 2 1 -5 10 -11 15 -9 18 13 24 19 4 26 13 26 30 0 16
6 24 17 24 9 0 14 3 10 6 -7 8 17 34 32 34 6 0 11 7 11 16 0 9 -5 12 -12 8 -7
-4 -2 5 11 20 14 14 30 25 35 23 13 -5 66 24 66 35 0 12 -10 10 -26 -7 -9 -8
-20 -15 -25 -15 -6 0 4 12 21 27 26 22 33 24 42 12 7 -10 8 -8 3 9 -4 13 -2
22 4 22 6 0 11 5 11 10 0 20 -18 9 -91 -58z m-509 -37 c0 -2 -22 -16 -50 -30
-61 -31 -66 -25 -7 9 41 25 57 31 57 21z m295 -164 c-3 -6 -11 -11 -17 -11 -6
0 -6 6 2 15 14 17 26 13 15 -4z m-24 -39 c-14 -27 -108 -112 -123 -112 -7 0 2
12 20 27 19 14 50 43 70 64 39 43 48 48 33 21z m-531 -142 c0 -5 -5 -10 -11
-10 -5 0 -7 5 -4 10 3 6 8 10 11 10 2 0 4 -4 4 -10z m54 -46 c42 -42 30 -52
-39 -32 l-47 13 22 28 c12 15 23 27 25 27 2 0 19 -16 39 -36z m46 -168 c0 -3
-4 -8 -10 -11 -5 -3 -10 -1 -10 4 0 6 5 11 10 11 6 0 10 -2 10 -4z"/>
<path d="M7840 4440 c-12 -8 -12 -11 3 -28 9 -10 17 -27 17 -38 0 -10 5 -26
11 -34 9 -13 10 -12 5 3 -7 21 12 23 20 2 9 -23 23 -18 16 7 -4 18 -2 20 16
16 32 -9 27 5 -18 46 -43 39 -47 40 -70 26z m55 -60 c3 -5 1 -10 -4 -10 -6 0
-11 5 -11 10 0 6 2 10 4 10 3 0 8 -4 11 -10z"/>
<path d="M755 4420 c4 -6 11 -8 16 -5 14 9 11 15 -7 15 -8 0 -12 -5 -9 -10z"/>
<path d="M3256 4397 c-4 -16 1 -27 19 -42 14 -12 25 -27 25 -34 0 -8 7 -10 20
-6 18 6 19 3 14 -24 -5 -24 -3 -31 10 -31 12 0 16 9 16 35 0 29 -6 39 -40 61
-22 15 -40 33 -40 40 0 23 -18 24 -24 1z"/>
<path d="M8070 4396 c-9 -12 -22 -15 -42 -11 -17 4 -28 2 -28 -4 0 -6 7 -11
15 -11 20 0 19 -14 -1 -31 -14 -11 -18 -10 -30 6 -13 17 -16 18 -24 5 -5 -8
-10 -20 -10 -27 0 -6 -4 -13 -9 -15 -5 -1 -11 -10 -13 -18 -2 -8 -22 -30 -45
-49 -66 -52 -65 -60 19 -158 40 -47 119 -144 175 -214 57 -71 106 -129 109
-129 3 0 38 26 78 58 39 31 95 73 123 92 64 44 78 64 61 88 -22 31 -291 354
-328 395 -33 35 -37 38 -50 23z"/>
<path d="M797 4343 c-13 -13 -7 -21 13 -16 11 3 17 9 14 14 -6 11 -18 12 -27
2z"/>
<path d="M10115 4254 c-60 -47 -135 -105 -165 -127 -30 -23 -95 -75 -145 -117
-150 -126 -145 -123 -166 -104 -18 16 -23 14 -95 -42 -117 -92 -112 -88 -130
-73 -9 8 -18 9 -22 3 -15 -22 -143 -105 -152 -99 -6 4 -9 1 -8 -6 2 -7 -6 -15
-17 -17 -11 -2 -36 -17 -55 -32 -19 -15 -39 -29 -45 -31 -5 -2 -9 -7 -8 -10 1
-4 -5 -6 -14 -5 -8 0 -20 -7 -27 -17 -9 -15 -7 -21 8 -33 11 -8 25 -14 31 -14
6 0 61 38 121 85 60 46 112 85 116 85 12 0 -126 -128 -232 -218 -52 -43 -297
-231 -545 -416 -247 -185 -499 -375 -560 -421 -60 -47 -321 -243 -580 -436
-622 -466 -635 -476 -635 -514 0 -33 18 -45 47 -32 23 10 28 8 50 -18 56 -66
240 -270 263 -292 44 -41 71 -29 220 97 30 25 72 59 92 74 l36 27 50 -36 50
-36 75 58 c42 32 153 119 249 194 95 74 292 227 438 339 294 226 300 231 555
432 99 78 248 194 330 258 83 64 202 157 265 206 63 49 253 197 423 328 l307
239 0 129 c0 101 -3 128 -12 122 -7 -4 -51 -37 -98 -74 -47 -36 -179 -139
-295 -228 -115 -88 -289 -223 -386 -299 -96 -76 -234 -183 -305 -238 -71 -55
-186 -145 -255 -200 -140 -111 -136 -108 -340 -266 -81 -63 -244 -190 -364
-284 -345 -271 -340 -267 -343 -250 -3 13 -16 15 -80 9 -42 -4 -95 -12 -116
-20 -22 -7 -44 -11 -48 -8 -5 3 -15 0 -23 -6 -8 -7 -15 -9 -15 -5 0 4 -7 2
-15 -5 -9 -7 -18 -10 -22 -7 -3 4 -11 3 -17 -2 -6 -4 -33 -11 -60 -15 -27 -3
-55 -11 -62 -17 -9 -7 -14 -8 -14 -1 0 6 -36 9 -95 8 -52 -2 -92 1 -90 5 3 4
-2 9 -10 12 -10 4 -12 1 -8 -10 5 -13 2 -15 -11 -10 -10 4 -15 3 -11 -3 3 -6
-2 -10 -12 -10 -10 0 -42 -16 -71 -35 -28 -20 -52 -32 -52 -28 0 5 9 14 20 21
11 6 75 56 142 110 146 116 168 132 312 239 138 102 251 187 631 471 165 124
433 325 595 446 162 121 336 252 385 291 50 39 178 135 285 213 107 78 339
257 515 398 176 141 326 258 333 261 13 5 18 93 5 93 -5 0 -57 -39 -118 -86z
m-3146 -2446 c-7 -13 -14 -18 -16 -11 -3 7 2 19 9 27 18 20 22 12 7 -16z m-39
-17 c0 -12 -20 -25 -27 -18 -7 7 6 27 18 27 5 0 9 -4 9 -9z"/>
<path d="M9830 4261 c-13 -16 -147 -125 -264 -216 -22 -16 -62 -48 -90 -70
-28 -22 -78 -61 -110 -85 -33 -25 -140 -108 -237 -185 -98 -77 -215 -169 -261
-205 -109 -85 -118 -93 -118 -102 0 -9 152 101 340 247 74 58 186 144 249 193
62 48 170 132 240 187 265 211 290 233 278 244 -9 7 -17 4 -27 -8z"/>
<path d="M9015 4260 c-3 -5 -1 -10 4 -10 6 0 11 5 11 10 0 6 -2 10 -4 10 -3 0
-8 -4 -11 -10z"/>
<path d="M9805 4184 l-50 -46 53 42 c45 36 59 51 50 50 -2 0 -25 -21 -53 -46z"/>
<path d="M1460 4150 c6 -11 13 -20 16 -20 2 0 0 9 -6 20 -6 11 -13 20 -16 20
-2 0 0 -9 6 -20z"/>
<path d="M9775 4120 c-22 -16 -58 -42 -81 -58 -22 -15 -39 -33 -36 -40 3 -9
13 -6 36 12 67 51 125 86 141 86 20 0 15 24 -6 27 -8 2 -32 -11 -54 -27z"/>
<path d="M9685 4084 c-18 -16 -22 -22 -9 -15 18 9 53 42 43 41 -2 -1 -17 -12
-34 -26z"/>
<path d="M1490 4087 c0 -5 5 -17 10 -28 12 -21 44 -27 38 -6 -3 6 -10 12 -17
12 -6 0 -16 7 -21 15 -5 8 -10 11 -10 7z"/>
<path d="M245 3790 c3 -5 8 -10 11 -10 2 0 4 5 4 10 0 6 -5 10 -11 10 -5 0 -7
-4 -4 -10z"/>
<path d="M2550 3785 c-7 -9 -8 -15 -2 -15 5 0 12 7 16 15 3 8 4 15 2 15 -2 0
-9 -7 -16 -15z"/>
<path d="M1285 3765 c-61 -25 -229 -134 -220 -143 2 -3 42 20 87 50 113 75
160 98 206 98 65 0 98 -32 216 -208 88 -132 106 -165 96 -177 -13 -16 -4 -39
11 -29 5 3 20 -7 32 -22 39 -49 167 -237 167 -246 0 -5 -9 -6 -20 -3 -11 3
-20 3 -20 0 0 -13 34 -65 43 -65 4 0 5 5 1 11 -3 6 -1 15 7 20 14 8 72 -64
139 -174 19 -31 40 -57 48 -57 17 0 38 -33 -239 382 -68 102 -173 261 -233
353 -110 167 -142 203 -205 224 -45 15 -46 14 -116 -14z"/>
<path d="M2506 3729 c-36 -40 -28 -48 9 -9 16 16 26 32 23 35 -2 3 -17 -9 -32
-26z"/>
<path d="M2440 3670 c-8 -5 -12 -11 -10 -14 3 -2 14 2 24 10 22 15 10 19 -14
4z"/>
<path d="M917 3538 c-94 -66 -365 -261 -512 -369 -60 -44 -150 -108 -200 -141
-114 -77 -207 -150 -200 -156 3 -3 13 2 22 10 17 15 274 196 439 310 45 31
141 98 215 149 74 51 172 119 219 151 100 67 110 76 110 88 0 18 -17 10 -93
-42z"/>
<path d="M10143 3438 c-51 -40 -160 -127 -243 -192 -110 -87 -147 -122 -138
-129 9 -6 8 -7 -5 -3 -27 9 -188 -118 -181 -142 5 -14 4 -14 -4 -3 -8 12 -28
0 -104 -60 -51 -41 -151 -120 -223 -174 -71 -55 -187 -145 -256 -200 -180
-143 -201 -159 -212 -166 -12 -8 0 -29 16 -29 8 0 8 3 -1 9 -10 6 -6 13 15 26
15 10 32 24 36 32 11 18 24 16 44 -6 9 -11 21 -17 26 -14 5 3 -3 13 -18 23
-15 10 -22 20 -17 24 5 3 12 -1 16 -9 3 -8 10 -15 16 -15 7 0 8 6 1 19 -8 14
-7 22 4 31 12 10 15 9 15 -3 0 -10 6 -14 14 -11 8 3 17 1 21 -5 3 -6 12 -11
18 -11 7 1 6 5 -4 13 -8 7 -18 20 -22 29 -7 20 9 35 16 16 3 -7 6 -3 6 10 1
19 4 21 20 12 13 -7 22 -7 26 0 3 5 -2 10 -11 10 -15 0 -14 4 7 26 34 37 57
48 74 34 8 -7 15 -7 19 -1 4 5 0 11 -8 13 -12 3 -13 6 -1 21 11 15 17 16 34 8
27 -15 58 -14 64 2 4 9 7 9 14 0 7 -10 13 -8 25 6 9 11 14 22 11 25 -3 3 1 8
10 12 9 3 13 12 10 20 -3 10 0 12 10 8 18 -7 75 19 106 48 17 15 26 17 34 9
15 -15 40 -14 34 2 -2 6 -10 11 -16 9 -7 -1 -10 2 -6 8 8 14 32 13 37 -2 3 -7
15 -3 36 12 26 20 30 26 19 39 -10 14 -10 14 5 3 23 -18 60 4 52 31 -4 14 -1
18 13 15 23 -4 76 29 68 42 -4 6 4 10 15 10 14 0 20 5 17 13 -3 8 -1 20 5 28
8 11 9 10 4 -3 -3 -10 -1 -18 4 -18 6 0 10 4 10 9 0 5 10 11 23 15 19 5 20 8
7 17 -13 9 -12 10 3 5 11 -3 17 0 17 10 0 9 9 18 20 21 11 3 17 10 14 15 -3 5
2 8 12 6 11 -2 18 2 17 8 -1 7 5 11 15 10 11 -1 16 6 15 19 -1 11 0 14 3 7 5
-10 12 -9 32 4 15 9 33 23 40 32 6 9 12 11 12 5 0 -6 -34 -37 -75 -69 -41 -33
-75 -67 -75 -76 0 -17 44 -58 62 -58 18 0 168 111 168 124 0 6 -6 18 -12 26
-7 8 1 2 19 -14 30 -27 33 -27 54 -12 13 9 19 16 13 16 -5 0 -15 -5 -22 -12
-6 -6 -14 -9 -17 -6 -6 5 94 74 108 75 5 1 22 14 38 29 26 25 29 34 29 96 0
68 0 69 -22 58 l-23 -11 23 20 c21 18 23 27 20 111 l-3 91 -92 -73z m47 -157
c0 -5 -7 -12 -16 -15 -14 -5 -15 -4 -4 9 14 17 20 19 20 6z m-40 -36 c0 -5 -5
-3 -10 5 -5 8 -10 20 -10 25 0 6 5 3 10 -5 5 -8 10 -19 10 -25z m-30 -15 c-8
-5 -19 -10 -25 -10 -5 0 -3 5 5 10 8 5 20 10 25 10 6 0 3 -5 -5 -10z m-72 -56
c-23 -20 -45 -38 -47 -40 -3 -2 9 -19 25 -37 29 -32 29 -32 -9 2 l-37 35 29
25 c33 30 62 50 74 50 5 1 -11 -15 -35 -35z m-518 -254 c0 -5 -8 -10 -17 -10
-15 0 -16 2 -3 10 19 12 20 12 20 0z m105 -30 c-10 -11 -20 -18 -23 -16 -5 6
21 35 32 36 5 0 1 -9 -9 -20z m-150 0 c-3 -5 -12 -10 -18 -10 -7 0 -6 4 3 10
19 12 23 12 15 0z m-35 -26 c0 -9 -53 -54 -64 -54 -5 0 4 13 20 29 28 29 44
37 44 25z m-80 -58 c0 -2 -8 -10 -17 -17 -16 -13 -17 -12 -4 4 13 16 21 21 21
13z m-180 -150 c0 -2 -7 -6 -15 -10 -8 -3 -15 -1 -15 4 0 6 7 10 15 10 8 0 15
-2 15 -4z m30 0 c0 -3 -4 -8 -10 -11 -5 -3 -10 -1 -10 4 0 6 5 11 10 11 6 0
10 -2 10 -4z"/>
<path d="M1085 3333 c-99 -69 -297 -206 -440 -304 -397 -271 -382 -260 -359
-271 33 -18 93 -81 88 -92 -3 -6 4 0 15 13 20 22 51 24 51 3 0 -5 7 -9 15 -9
14 0 19 10 16 29 0 4 11 3 25 -2 17 -7 23 -7 19 0 -3 6 1 13 10 16 12 5 15 14
11 30 -4 16 -2 23 6 22 7 -2 14 7 16 20 2 12 10 22 19 22 9 0 13 6 9 15 -7 19
3 19 23 1 9 -7 27 -17 41 -21 23 -7 24 -7 10 10 -14 17 -14 17 18 1 26 -14 32
-14 32 -2 0 7 9 16 20 19 11 3 20 13 21 24 0 16 1 16 9 -2 6 -15 3 -24 -12
-36 -20 -15 -19 -16 18 -36 30 -16 38 -26 36 -44 -1 -12 3 -26 10 -31 7 -4 -1
-5 -20 -2 -29 6 -32 4 -26 -12 14 -39 25 -46 45 -28 26 24 33 12 9 -14 -16
-17 -17 -23 -7 -34 8 -7 12 -19 9 -27 -3 -10 0 -11 17 -2 17 10 21 9 21 -5 0
-9 8 -23 18 -30 15 -12 15 -13 -9 -14 -18 0 -29 -8 -38 -27 -8 -16 -17 -36
-22 -45 -7 -13 -5 -18 6 -18 8 0 15 -3 15 -7 0 -14 -53 -83 -64 -83 -6 0 -17
-9 -24 -20 -9 -15 -19 -19 -36 -14 -29 7 -37 -4 -41 -61 -2 -29 2 -49 11 -56
10 -8 11 -16 4 -30 -8 -15 -7 -17 5 -13 10 4 15 0 15 -11 0 -13 -6 -16 -21
-12 -12 3 -22 0 -26 -9 -8 -21 17 -45 39 -38 14 4 21 0 25 -15 6 -25 21 -27
29 -6 4 8 10 15 14 15 14 0 22 -40 11 -54 -6 -7 -8 -15 -5 -19 10 -9 12 -57 3
-63 -17 -10 -9 -21 14 -21 16 -1 23 6 24 19 3 29 23 50 38 38 6 -5 15 -6 20
-2 4 4 5 -9 2 -28 -5 -35 -5 -35 33 -35 44 0 59 -10 42 -27 -7 -7 -12 -20 -12
-30 0 -10 -4 -18 -10 -18 -5 0 -10 5 -10 11 0 16 -43 0 -62 -25 -10 -11 -17
-25 -16 -31 2 -19 -14 -45 -25 -38 -6 4 -8 0 -4 -10 10 -25 -3 -48 -22 -42
-17 5 -61 -34 -61 -54 0 -5 -20 -18 -45 -30 -25 -12 -45 -26 -45 -31 0 -6 -12
-10 -26 -10 -14 0 -23 -4 -19 -9 3 -5 1 -12 -5 -16 -5 -3 -17 -21 -26 -40 -9
-19 -22 -35 -30 -35 -7 0 -16 -5 -20 -11 -10 -18 -12 -203 -1 -216 6 -9 6 -13
-2 -13 -18 0 -13 -27 7 -35 16 -6 16 -7 -1 -19 -21 -16 -22 -52 -1 -60 19 -7
42 4 112 56 43 32 52 43 46 60 -4 15 -2 19 7 15 8 -2 13 -10 11 -16 -3 -16 14
-6 143 84 61 43 157 109 215 148 58 39 130 90 161 114 31 23 134 95 230 160
96 65 221 153 279 194 58 42 166 119 240 172 74 53 143 103 153 111 17 13 15
18 -34 88 -29 40 -86 118 -128 173 -95 125 -145 197 -431 623 -127 188 -234
342 -238 341 -4 0 -88 -57 -187 -126z m-15 -83 c0 -5 -2 -10 -4 -10 -3 0 -8 5
-11 10 -3 6 -1 10 4 10 6 0 11 -4 11 -10z m155 -30 c-3 -5 -10 -10 -16 -10 -5
0 -9 5 -9 10 0 6 7 10 16 10 8 0 12 -4 9 -10z m-195 -161 c0 -5 -4 -9 -10 -9
-5 0 -10 7 -10 16 0 8 5 12 10 9 6 -3 10 -10 10 -16z m-50 -13 c0 -3 -4 -8
-10 -11 -5 -3 -10 -1 -10 4 0 6 5 11 10 11 6 0 10 -2 10 -4z m288 -98 c-6 -18
-28 -21 -28 -4 0 9 7 16 16 16 9 0 14 -5 12 -12z m-478 -48 c0 -5 -4 -10 -10
-10 -5 0 -10 5 -10 10 0 6 5 10 10 10 6 0 10 -4 10 -10z m-453 -131 c-14 -8
-22 -8 -30 0 -8 8 -3 11 19 11 25 -1 27 -2 11 -11z m503 -9 c0 -5 -4 -10 -10
-10 -5 0 -10 5 -10 10 0 6 5 10 10 10 6 0 10 -4 10 -10z m-460 -50 c0 -5 -2
-10 -4 -10 -3 0 -8 5 -11 10 -3 6 -1 10 4 10 6 0 11 -4 11 -10z m870 -130 c0
-5 -2 -10 -4 -10 -3 0 -8 5 -11 10 -3 6 -1 10 4 10 6 0 11 -4 11 -10z m-226
-69 c3 -5 -1 -11 -9 -15 -18 -7 -20 -26 -2 -26 15 0 16 -62 1 -67 -6 -2 -9
-14 -7 -27 5 -26 -25 -46 -38 -25 -4 7 -13 9 -21 6 -24 -9 -38 7 -43 45 -5 39
25 128 33 96 4 -21 18 -23 29 -4 13 21 48 32 57 17z m956 -131 c0 -5 -4 -10
-10 -10 -5 0 -10 5 -10 10 0 6 5 10 10 10 6 0 10 -4 10 -10z m-1210 -191 c0
-6 -4 -7 -10 -4 -5 3 -10 11 -10 16 0 6 5 7 10 4 6 -3 10 -11 10 -16z m0 -63
c0 -3 -4 -8 -10 -11 -5 -3 -10 -1 -10 4 0 6 5 11 10 11 6 0 10 -2 10 -4z m140
-81 c0 -8 -4 -15 -10 -15 -5 0 -10 7 -10 15 0 8 5 15 10 15 6 0 10 -7 10 -15z
m410 -64 c0 -13 -26 -32 -33 -24 -8 7 11 33 24 33 5 0 9 -4 9 -9z m17 -61 c8
0 13 -6 10 -12 -4 -12 -45 -14 -55 -3 -3 2 1 12 9 21 8 10 15 12 17 5 2 -6 10
-11 19 -11z m-287 -50 c0 -17 -22 -22 -36 -8 -12 12 -10 14 11 16 14 1 25 -2
25 -8z m54 -18 c2 -4 1 -14 -4 -22 -7 -11 -11 -11 -24 -1 -9 8 -16 17 -16 22
0 11 37 12 44 1z m-184 -27 c0 -8 -4 -15 -10 -15 -5 0 -10 7 -10 15 0 8 5 15
10 15 6 0 10 -7 10 -15z m-142 -137 c-2 -6 -10 -14 -16 -16 -7 -2 -10 2 -6 12
7 18 28 22 22 4z m427 3 c3 -5 1 -12 -5 -16 -5 -3 -10 1 -10 9 0 18 6 21 15 7z
m-351 -9 c2 -4 1 -14 -4 -22 -7 -11 -12 -12 -21 -3 -6 6 -8 16 -5 22 8 13 23
14 30 3z m-254 -372 c0 -5 -5 -10 -11 -10 -5 0 -7 5 -4 10 3 6 8 10 11 10 2 0
4 -4 4 -10z m-30 -29 c0 -12 -20 -25 -27 -18 -7 7 6 27 18 27 5 0 9 -4 9 -9z"/>
<path d="M8856 3445 c-11 -8 -17 -17 -14 -20 2 -3 13 4 23 15 21 23 18 25 -9
5z"/>
<path d="M8791 3399 c-16 -13 -33 -18 -48 -14 -27 6 -31 -10 -5 -24 14 -8 26
-5 50 12 30 21 49 47 34 47 -4 -1 -18 -10 -31 -21z"/>
<path d="M10173 3088 c-29 -22 -53 -43 -53 -47 1 -3 27 -35 60 -71 l59 -65 1
113 c0 61 -3 112 -7 112 -5 0 -32 -19 -60 -42z"/>
<path d="M10041 3001 c-24 -16 -49 -27 -56 -25 -6 3 -18 -3 -25 -13 -12 -15
-12 -16 0 -5 8 6 19 12 25 12 5 0 -8 -15 -29 -33 -36 -31 -38 -35 -26 -57 7
-13 21 -33 32 -44 11 -12 26 -33 35 -47 26 -44 47 -51 90 -31 21 9 43 20 48
24 6 4 30 23 55 41 25 18 45 38 45 45 0 16 -125 162 -139 162 -6 0 -31 -13
-55 -29z"/>
<path d="M1900 2990 c0 -5 5 -10 10 -10 6 0 10 5 10 10 0 6 -4 10 -10 10 -5 0
-10 -4 -10 -10z"/>
<path d="M9710 2925 c-71 -58 -80 -78 -50 -110 13 -14 28 -25 33 -25 11 0 133
86 142 100 7 12 -43 80 -59 80 -6 -1 -36 -21 -66 -45z"/>
<path d="M9910 2930 c-8 -5 -11 -12 -8 -16 4 -3 14 1 23 10 18 17 9 21 -15 6z"/>
<path d="M9850 2887 c0 -16 3 -17 15 -7 8 6 19 10 25 8 6 -2 -7 -16 -30 -31
-23 -15 -47 -24 -52 -20 -6 3 -8 1 -5 -5 4 -5 -15 -27 -43 -47 -27 -20 -50
-40 -50 -45 0 -10 77 -109 103 -132 11 -10 25 -18 32 -18 30 0 165 111 165
136 0 6 -22 40 -49 75 -27 35 -51 73 -53 84 -5 28 -58 30 -58 2z m45 -177 c3
-5 2 -10 -4 -10 -5 0 -13 5 -16 10 -3 6 -2 10 4 10 5 0 13 -4 16 -10z"/>
<path d="M9604 2842 c4 -7 0 -15 -11 -19 -18 -7 -119 -82 -181 -135 -18 -15
-32 -34 -32 -44 0 -13 -3 -14 -15 -4 -10 9 -15 9 -15 1 0 -6 -4 -11 -10 -11
-10 0 -149 -108 -216 -168 -22 -20 -67 -57 -98 -81 -49 -37 -57 -47 -52 -67 7
-27 0 -30 -23 -10 -14 13 -25 8 -88 -40 -39 -30 -80 -64 -90 -77 -10 -12 -31
-29 -45 -37 -56 -32 -228 -163 -228 -174 0 -6 13 -26 29 -45 l29 -35 48 40
c27 22 84 66 127 98 76 56 78 58 61 77 -14 15 -14 19 -3 19 8 0 19 -4 25 -10
6 -6 43 16 102 60 97 72 118 84 87 50 -10 -11 -13 -20 -7 -20 6 0 14 5 17 10
4 6 11 7 17 4 6 -4 -6 -16 -29 -28 -49 -26 -143 -105 -143 -120 0 -6 21 -32
45 -59 24 -26 48 -53 52 -60 4 -6 18 -18 30 -24 19 -11 27 -9 65 20 24 17 62
45 85 60 l41 29 -18 31 c-11 18 -35 47 -54 66 -22 21 -32 39 -29 49 4 10 2 13
-5 8 -13 -8 -34 32 -25 47 2 4 1 6 -4 5 -4 -2 -19 5 -33 15 l-25 18 27 -6 c22
-6 40 2 93 39 66 48 75 62 53 85 -11 10 -8 11 13 6 21 -5 43 7 128 70 104 78
124 101 101 115 -8 5 -9 10 -2 14 6 3 13 2 17 -4 12 -20 37 -9 132 63 138 104
127 91 113 124 -7 16 -24 37 -38 47 -14 11 -22 14 -18 8z"/>
<path d="M1750 2831 c0 -10 39 -60 84 -106 l29 -30 -18 30 c-28 47 -79 114
-87 115 -5 0 -8 -4 -8 -9z"/>
<path d="M8042 2789 c-53 -43 -75 -69 -57 -69 8 0 130 91 133 100 9 25 -20 12
-76 -31z"/>
<path d="M1906 2811 c-21 -23 -20 -33 4 -64 14 -17 26 -23 40 -20 24 6 24 13
6 57 -18 43 -30 50 -50 27z"/>
<path d="M9755 2804 c-18 -16 -22 -22 -9 -15 18 9 53 42 43 41 -2 -1 -17 -12
-34 -26z"/>
<path d="M10188 2794 l-48 -36 32 -44 c17 -24 40 -51 50 -61 17 -15 18 -13 18
80 0 54 -1 97 -2 97 -2 0 -24 -17 -50 -36z"/>
<path d="M9660 2733 c-68 -54 -127 -106 -110 -97 8 4 33 21 55 39 51 40 70 52
61 37 -4 -6 -47 -41 -96 -78 -50 -36 -90 -72 -90 -80 0 -7 20 -36 45 -64 25
-28 43 -56 39 -61 -4 -6 -13 -4 -25 7 -10 9 -16 21 -12 27 3 5 2 7 -4 4 -6 -4
-21 5 -34 20 -13 14 -18 23 -11 19 6 -4 12 -4 12 1 -1 12 -30 49 -30 37 0 -5
-13 -15 -28 -22 -16 -7 -55 -32 -88 -56 -32 -25 -62 -42 -66 -40 -9 6 -78 -47
-78 -60 0 -4 8 -5 18 -2 9 3 4 -5 -13 -19 -16 -14 -36 -23 -43 -20 -7 3 -11 1
-8 -3 3 -5 -15 -25 -39 -46 -25 -20 -45 -42 -45 -49 0 -19 118 -152 135 -152
20 0 175 125 175 141 0 8 -29 47 -65 88 -82 94 -63 106 23 14 35 -37 71 -68
80 -68 15 0 67 39 131 99 28 26 31 34 21 47 -9 10 -10 18 -2 26 13 13 35 1 25
-15 -4 -6 15 4 42 24 28 19 70 47 95 61 25 14 55 37 68 51 l23 24 -41 49 c-22
27 -54 63 -70 81 -29 30 -40 50 -21 39 5 -3 11 3 14 14 3 11 4 20 4 19 -1 0
-22 -17 -47 -36z m-450 -513 c0 -5 -4 -10 -10 -10 -5 0 -10 5 -10 10 0 6 5 10
10 10 6 0 10 -4 10 -10z m25 -19 c-3 -6 -14 -11 -23 -11 -13 0 -13 2 4 14 21
15 30 14 19 -3z"/>
<path d="M242 2738 c3 -7 17 -14 31 -16 21 -3 26 0 21 13 -5 12 -9 13 -20 4
-10 -8 -14 -8 -14 0 0 6 -5 11 -11 11 -6 0 -9 -6 -7 -12z"/>
<path d="M10070 2726 c-19 -13 -59 -45 -88 -71 l-52 -47 29 -36 c47 -59 87
-102 95 -102 4 0 39 21 78 47 63 43 98 76 98 95 0 10 -110 138 -118 137 -4 0
-23 -11 -42 -23z m40 -131 c-7 -8 -17 -15 -22 -15 -11 0 14 29 26 30 5 0 3 -7
-4 -15z"/>
<path d="M625 2719 c-5 -7 -21 -8 -42 -4 -28 5 -37 2 -53 -17 -22 -27 -25 -39
-7 -33 6 3 19 0 27 -5 13 -9 13 -11 1 -19 -12 -8 -12 -12 3 -26 14 -14 19 -15
33 -3 9 7 14 8 11 3 -4 -6 -3 -17 2 -25 7 -12 10 -12 15 3 6 13 11 14 26 6 15
-8 24 -5 45 16 13 14 30 25 37 25 7 0 4 6 -5 14 -10 7 -18 21 -18 30 0 19 -4
20 -31 6 -16 -9 -19 -7 -19 9 0 23 -16 36 -25 20z"/>
<path d="M9385 2710 c3 -5 8 -10 11 -10 2 0 4 5 4 10 0 6 -5 10 -11 10 -5 0
-7 -4 -4 -10z"/>
<path d="M9870 2567 c-65 -40 -110 -79 -110 -96 0 -21 49 -99 78 -124 17 -16
24 -17 44 -6 40 21 128 101 128 116 0 18 -88 134 -100 132 -3 0 -21 -11 -40
-22z m23 -117 c8 0 7 -4 -1 -12 -9 -9 -16 -8 -30 6 -16 18 -16 19 1 12 10 -3
24 -6 30 -6z"/>
<path d="M10230 2565 c0 -8 -13 -21 -28 -29 -48 -25 -57 -42 -38 -71 9 -14 14
-25 11 -25 -2 0 2 -8 10 -17 7 -10 23 -29 34 -43 l20 -25 1 113 c0 61 -2 112
-5 112 -3 0 -5 -7 -5 -15z"/>
<path d="M9070 2566 c0 -2 7 -7 16 -10 8 -3 12 -2 9 4 -6 10 -25 14 -25 6z"/>
<path d="M9055 2540 c3 -5 11 -10 16 -10 6 0 7 5 4 10 -3 6 -11 10 -16 10 -6
0 -7 -4 -4 -10z"/>
<path d="M9045 2510 c-3 -5 -1 -10 4 -10 6 0 11 5 11 10 0 6 -2 10 -4 10 -3 0
-8 -4 -11 -10z"/>
<path d="M9105 2510 c-3 -5 -1 -10 4 -10 6 0 11 5 11 10 0 6 -2 10 -4 10 -3 0
-8 -4 -11 -10z"/>
<path d="M8995 2476 c-13 -9 -15 -15 -7 -20 7 -4 12 -3 12 3 0 5 8 11 18 13
11 2 13 6 6 10 -6 4 -19 1 -29 -6z"/>
<path d="M10080 2467 c-38 -17 -150 -107 -150 -121 0 -6 26 -37 58 -69 l58
-57 60 36 c34 20 74 46 89 58 l29 23 -24 34 c-34 49 -84 109 -90 108 -3 0 -16
-5 -30 -12z m12 -119 c-9 -9 -12 -7 -12 12 0 19 3 21 12 12 9 -9 9 -15 0 -24z
m-32 -3 c-7 -9 -15 -13 -17 -11 -7 7 7 26 19 26 6 0 6 -6 -2 -15z"/>
<path d="M9639 2406 c-116 -78 -126 -105 -57 -161 30 -24 31 -26 8 -20 -14 4
-38 19 -54 34 -20 18 -30 22 -33 13 -3 -7 -19 -20 -35 -28 -35 -18 -29 -14
-120 -89 -38 -31 -68 -64 -68 -74 0 -20 45 -85 78 -115 17 -15 19 -23 11 -38
-9 -18 -13 -16 -41 24 -53 75 -80 99 -102 92 -12 -4 -56 -34 -99 -67 -71 -55
-78 -64 -73 -88 6 -33 96 -129 120 -129 19 0 88 45 142 92 40 35 45 23 9 -20
-14 -17 -25 -34 -25 -40 0 -6 18 -29 40 -52 22 -23 39 -44 39 -48 -11 -75 92
-9 188 119 38 52 107 137 153 189 77 87 87 95 121 95 36 1 78 25 141 83 l27
25 -46 61 c-26 34 -48 63 -49 65 -2 2 -18 -3 -36 -12 l-32 -15 -60 74 c-33 41
-65 74 -71 74 -5 0 -40 -20 -76 -44z m31 -86 c0 -5 -5 -10 -11 -10 -5 0 -7 5
-4 10 3 6 8 10 11 10 2 0 4 -4 4 -10z m160 -39 c0 -6 -17 -23 -37 -38 -21 -15
-39 -31 -41 -35 -5 -12 -50 -10 -57 2 -3 6 2 10 12 10 10 0 38 16 63 35 48 36
60 41 60 26z m85 -99 c-6 -7 -35 18 -35 31 0 5 9 2 20 -8 11 -10 18 -20 15
-23z m-450 8 c3 -5 2 -10 -4 -10 -5 0 -13 5 -16 10 -3 6 -2 10 4 10 5 0 13 -4
16 -10z m-5 -290 c0 -5 -10 -15 -22 -21 -23 -12 -23 -12 -4 10 21 23 26 26 26
11z"/>
<path d="M8850 2399 c0 -6 -10 -20 -22 -30 -11 -11 -16 -19 -11 -19 6 0 16 7
23 15 7 8 16 12 21 9 5 -3 9 2 9 10 0 8 -4 18 -10 21 -5 3 -10 1 -10 -6z"/>
<path d="M8985 2390 c3 -5 8 -10 11 -10 2 0 4 5 4 10 0 6 -5 10 -11 10 -5 0
-7 -4 -4 -10z"/>
<path d="M528 2353 c6 -2 18 -2 25 0 6 3 1 5 -13 5 -14 0 -19 -2 -12 -5z"/>
<path d="M8707 2313 c-24 -21 -78 -65 -120 -97 -43 -33 -74 -62 -71 -65 4 -3
9 0 11 6 3 7 14 11 26 9 12 -1 16 -1 9 1 -7 3 -10 8 -7 13 3 5 13 6 22 3 10
-4 14 -2 10 4 -5 8 25 43 38 43 5 0 51 39 81 67 7 7 20 10 30 6 12 -4 15 -3
10 6 -4 6 -2 18 4 26 22 26 2 16 -43 -22z"/>
<path d="M625 2307 c-4 -10 -5 -21 -1 -24 10 -10 18 4 13 24 -4 17 -4 17 -12
0z"/>
<path d="M2447 2280 c5 -26 0 -35 -33 -66 -22 -20 -75 -62 -119 -93 -44 -32
-171 -123 -282 -203 -110 -80 -320 -228 -465 -329 -436 -303 -1096 -775 -1400
-1002 l-148 -110 0 -74 c0 -44 4 -73 10 -71 5 1 114 78 242 170 363 260 816
580 1143 808 176 122 538 381 736 527 54 40 123 89 153 109 56 37 69 54 41 54
-8 0 -15 5 -15 12 0 6 -3 8 -7 5 -3 -4 -13 3 -21 15 -12 16 -13 23 -4 26 19 6
133 91 170 125 36 34 39 54 17 97 -20 38 -26 38 -18 0z"/>
<path d="M10190 2281 c-38 -31 -38 -33 24 -106 l25 -30 1 83 c0 45 -4 82 -8
82 -4 0 -23 -13 -42 -29z"/>
<path d="M8847 2289 c7 -7 15 -10 18 -7 3 3 -2 9 -12 12 -14 6 -15 5 -6 -5z"/>
<path d="M8698 2263 c7 -3 16 -2 19 1 4 3 -2 6 -13 5 -11 0 -14 -3 -6 -6z"/>
<path d="M8635 2219 l-20 -21 28 13 c15 7 27 16 27 21 0 13 -14 8 -35 -13z"/>
<path d="M10075 2212 c-30 -20 -161 -121 -202 -156 -5 -5 109 -137 122 -142
13 -5 220 148 238 176 7 12 -4 30 -47 75 -30 33 -56 63 -56 68 0 12 -13 7 -55
-21z m70 -92 c3 -5 -1 -10 -10 -10 -9 0 -13 5 -10 10 3 6 8 10 10 10 2 0 7 -4
10 -10z m-55 -25 c7 -9 8 -15 2 -15 -5 0 -12 7 -16 15 -3 8 -4 15 -2 15 2 0 9
-7 16 -15z m-100 -49 c0 -3 -4 -8 -10 -11 -5 -3 -10 -1 -10 4 0 6 5 11 10 11
6 0 10 -2 10 -4z m13 -31 c-3 -9 -8 -14 -10 -11 -3 3 -2 9 2 15 9 16 15 13 8
-4z"/>
<path d="M8935 2174 l-40 -36 48 33 c26 18 47 34 47 36 0 10 -20 -2 -55 -33z"/>
<path d="M5420 2170 c-8 -5 -10 -10 -5 -10 6 0 17 5 25 10 8 5 11 10 5 10 -5
0 -17 -5 -25 -10z"/>
<path d="M8479 2133 c-13 -16 -12 -17 4 -4 16 13 21 21 13 21 -2 0 -10 -8 -17
-17z"/>
<path d="M8439 2103 c-13 -16 -12 -17 4 -4 16 13 21 21 13 21 -2 0 -10 -8 -17
-17z"/>
<path d="M5384 2062 c-21 -15 -68 -45 -104 -66 -52 -31 -169 -107 -189 -123
-3 -2 0 -8 7 -15 8 -8 25 0 66 32 40 30 61 40 73 35 10 -5 24 -9 32 -11 19 -4
61 17 55 27 -3 5 2 6 10 3 8 -3 29 4 45 15 16 12 32 21 34 21 12 0 78 43 73
47 -3 3 -15 -2 -28 -11 -25 -18 -42 -21 -33 -6 3 6 -1 10 -10 10 -10 0 -13 -5
-9 -12 4 -6 3 -8 -3 -5 -5 3 -22 -3 -39 -14 -16 -10 -33 -19 -38 -19 -10 0 33
40 43 40 3 0 26 18 51 40 37 33 41 39 24 40 -12 0 -39 -13 -60 -28z"/>
<path d="M8381 2059 c-19 -16 -30 -29 -25 -29 13 1 69 48 63 54 -2 3 -20 -8
-38 -25z"/>
<path d="M5595 2060 c10 -11 20 -20 23 -20 3 0 -3 9 -13 20 -10 11 -20 20 -23
20 -3 0 3 -9 13 -20z"/>
<path d="M8840 2064 c0 -6 6 -16 13 -23 10 -11 8 -11 -10 0 -20 12 -29 7 -115
-58 -51 -39 -101 -80 -111 -91 -11 -12 -26 -18 -38 -15 -12 3 -19 0 -19 -8 0
-8 -21 -26 -48 -41 -26 -15 -62 -41 -80 -58 l-33 -32 50 -57 c28 -32 58 -64
67 -72 9 -7 20 -24 25 -37 l9 -24 24 23 c40 41 104 89 118 89 7 0 -7 -18 -30
-40 l-44 -39 32 -45 c53 -74 74 -89 109 -81 32 7 128 74 170 119 l24 25 -62
70 c-69 78 -66 78 -141 19 -33 -27 -35 -27 -45 -8 -6 11 -39 51 -74 91 -47 52
-61 73 -51 79 9 6 26 -10 55 -49 59 -80 115 -123 115 -87 0 8 7 16 15 20 37
14 205 149 205 165 0 9 -23 39 -50 66 -28 27 -48 55 -46 61 3 7 -4 20 -15 30
-10 9 -19 13 -19 8z m-117 -209 c-3 -9 -8 -14 -10 -11 -3 3 -2 9 2 15 9 16 15
13 8 -4z"/>
<path d="M10219 2041 c-15 -17 -15 -20 2 -42 l19 -24 0 43 c0 23 -1 42 -3 42
-1 0 -10 -8 -18 -19z"/>
<path d="M9746 1974 l-77 -65 20 -28 c26 -36 108 -111 121 -111 11 0 160 109
160 117 0 7 -134 153 -141 153 -3 0 -41 -29 -83 -66z m114 -55 c0 -5 -5 -7
-12 -3 -8 5 -9 0 -6 -14 4 -12 3 -24 -2 -27 -4 -3 -10 5 -13 17 -4 13 -1 26 6
30 17 11 27 10 27 -3z m-50 -30 c0 -6 -4 -7 -10 -4 -5 3 -10 11 -10 16 0 6 5
7 10 4 6 -3 10 -11 10 -16z"/>
<path d="M8304 1998 c-51 -39 -57 -47 -35 -45 11 0 18 4 15 8 -2 4 10 19 28
33 18 14 30 26 27 26 -4 0 -19 -10 -35 -22z"/>
<path d="M10118 1955 c-86 -67 -87 -70 -47 -113 69 -75 108 -112 116 -112 31
1 53 56 53 134 0 60 -2 66 -34 98 l-35 35 -53 -42z m17 -85 c-3 -5 -11 -10
-16 -10 -6 0 -7 5 -4 10 3 6 11 10 16 10 6 0 7 -4 4 -10z"/>
<path d="M5690 1981 c0 -6 4 -13 10 -16 6 -3 7 1 4 9 -7 18 -14 21 -14 7z"/>
<path d="M8389 1903 c-86 -66 -91 -76 -53 -113 l30 -31 70 51 c38 29 76 55 84
60 13 7 12 11 -4 29 -10 11 -15 24 -11 30 3 7 0 8 -9 5 -9 -3 -16 -1 -16 5 0
22 -30 10 -91 -36z"/>
<path d="M8139 1873 c-13 -16 -12 -17 4 -4 16 13 21 21 13 21 -2 0 -10 -8 -17
-17z"/>
<path d="M8959 1838 c-25 -18 -60 -45 -78 -61 l-33 -27 25 -33 c14 -17 41 -50
60 -71 l34 -40 54 33 c80 49 119 80 119 96 0 17 -108 135 -124 135 -6 0 -32
-15 -57 -32z m31 -113 c7 -9 8 -15 2 -15 -5 0 -12 7 -16 15 -3 8 -4 15 -2 15
2 0 9 -7 16 -15z"/>
<path d="M9910 1805 c-46 -35 -86 -67 -87 -72 -4 -12 135 -153 151 -153 14 0
147 92 166 115 11 13 9 21 -16 48 -63 71 -119 127 -124 126 -3 0 -43 -29 -90
-64z m94 -84 c-7 -7 -34 21 -28 31 3 5 12 1 19 -9 7 -10 12 -20 9 -22z m-40
-16 c-4 -8 -8 -15 -10 -15 -2 0 -4 7 -4 15 0 8 4 15 10 15 5 0 7 -7 4 -15z"/>
<path d="M9604 1828 c-17 -18 -41 -48 -53 -66 l-23 -33 41 -54 c23 -30 48 -55
55 -55 18 0 156 101 156 114 0 13 -121 126 -135 126 -6 0 -25 -15 -41 -32z
m56 -68 c0 -5 -5 -10 -11 -10 -5 0 -7 5 -4 10 3 6 8 10 11 10 2 0 4 -4 4 -10z
m-15 -58 c-3 -3 -11 0 -18 7 -9 10 -8 11 6 5 10 -3 15 -9 12 -12z"/>
<path d="M2724 1762 c-55 -42 -115 -89 -133 -104 l-32 -28 48 -62 c63 -83 143
-168 158 -168 7 0 34 17 62 38 158 118 205 155 210 168 8 20 -177 235 -201
233 -6 0 -56 -35 -112 -77z m90 -27 c-7 -16 -24 -21 -24 -6 0 8 7 13 27 20 1
1 0 -6 -3 -14z m76 -90 c-7 -9 -15 -13 -19 -10 -3 3 1 10 9 15 21 14 24 12 10
-5z"/>
<path d="M4995 1810 c-16 -18 -15 -50 2 -50 4 1 19 10 32 20 19 17 21 23 11
35 -16 20 -23 19 -45 -5z"/>
<path d="M8243 1787 c-49 -36 -113 -96 -113 -106 0 -6 11 -22 25 -37 l25 -27
23 20 c12 11 49 38 82 59 33 21 62 40 64 41 6 4 -40 53 -60 64 -11 6 -25 1
-46 -14z"/>
<path d="M9143 1697 c-54 -40 -118 -85 -143 -99 -25 -15 -65 -45 -90 -66 l-45
-40 62 -63 c56 -55 65 -61 85 -52 39 18 138 105 138 121 0 9 -18 37 -40 63
-39 46 -49 69 -31 69 5 0 31 -29 58 -64 l49 -64 42 32 c90 68 141 111 139 117
-6 18 -102 119 -113 119 -7 0 -57 -33 -111 -73z m157 -45 c0 -4 -9 -13 -20
-20 -23 -14 -26 -8 -7 13 13 16 27 19 27 7z m-82 -20 c2 -7 -2 -10 -12 -6 -9
3 -16 11 -16 16 0 13 23 5 28 -10z m-138 -102 c0 -5 -4 -10 -9 -10 -6 0 -13 5
-16 10 -3 6 1 10 9 10 9 0 16 -4 16 -10z m-53 -17 c-9 -9 -20 -13 -24 -9 -4 4
-1 11 7 16 25 16 35 11 17 -7z m-24 -74 c-6 -6 -15 -4 -24 7 -8 10 -9 15 -2
11 6 -4 15 -2 19 5 6 9 9 9 12 -1 2 -7 0 -17 -5 -22z"/>
<path d="M4873 1724 c-32 -25 -42 -44 -24 -44 13 0 71 50 71 61 0 15 -13 10
-47 -17z"/>
<path d="M7940 1719 c-19 -17 -26 -26 -15 -21 18 9 64 52 54 52 -2 0 -20 -14
-39 -31z"/>
<path d="M8319 1699 l-24 -20 28 17 c15 9 27 18 27 20 0 8 -8 4 -31 -17z"/>
<path d="M8288 1654 c-43 -30 -78 -59 -78 -64 0 -19 140 -170 158 -170 9 0 64
39 135 96 15 12 27 26 27 30 0 14 -141 164 -153 164 -7 0 -47 -25 -89 -56z"/>
<path d="M9380 1620 c-57 -43 -106 -83 -108 -89 -4 -13 64 -100 85 -108 14 -5
197 113 229 148 17 19 16 21 -36 74 -30 30 -57 55 -60 54 -3 0 -52 -36 -110
-79z m90 -20 c0 -5 -7 -10 -16 -10 -8 0 -12 5 -9 10 3 6 10 10 16 10 5 0 9 -4
9 -10z m-40 -50 c0 -5 -4 -10 -10 -10 -5 0 -10 5 -10 10 0 6 5 10 10 10 6 0
10 -4 10 -10z"/>
<path d="M9710 1636 c-47 -34 -105 -81 -130 -103 l-44 -40 64 -77 c35 -42 67
-76 70 -76 5 1 29 18 174 129 53 40 96 75 96 78 0 2 -20 25 -44 51 -24 26 -54
59 -66 75 -12 15 -24 27 -28 27 -4 0 -45 -29 -92 -64z m57 -71 c-23 -22 -33
-18 -12 5 10 11 20 18 23 16 2 -3 -3 -12 -11 -21z m-37 -45 c8 -5 11 -12 7
-17 -5 -4 -11 -3 -15 3 -4 6 -14 14 -22 17 -13 5 -13 5 0 6 8 0 22 -3 30 -9z
m-60 -10 c0 -5 -5 -10 -11 -10 -5 0 -7 5 -4 10 3 6 8 10 11 10 2 0 4 -4 4 -10z
m32 -42 c-9 -9 -15 -9 -24 1 -11 11 -10 13 5 8 10 -4 17 -2 17 5 0 6 3 8 7 5
4 -4 1 -13 -5 -19z"/>
<path d="M10190 1662 c-62 -53 -498 -396 -657 -517 -73 -55 -132 -105 -132
-111 -1 -7 44 -64 99 -128 55 -63 100 -119 100 -123 0 -4 -217 -172 -481 -373
-264 -201 -490 -375 -501 -387 l-21 -23 612 0 c434 0 619 3 634 11 12 6 106
74 210 151 l187 140 0 699 c0 385 -1 699 -2 699 -2 0 -23 -17 -48 -38z"/>
<path d="M7855 1654 l-40 -36 40 28 c22 16 42 29 44 31 2 2 2 5 0 7 -2 3 -22
-11 -44 -30z"/>
<path d="M8035 1624 c-82 -65 -135 -105 -267 -203 -59 -43 -98 -79 -98 -90 0
-9 13 -30 29 -45 l28 -27 99 74 c178 133 306 236 321 257 13 19 12 24 -12 55
-14 19 -27 35 -28 34 -1 0 -33 -25 -72 -55z"/>
<path d="M7760 1579 l-45 -41 42 32 c37 27 61 51 51 50 -2 0 -23 -19 -48 -41z"/>
<path d="M2495 1588 c-73 -54 -495 -375 -537 -411 -47 -38 -47 -39 -31 -64 26
-39 183 -173 203 -173 9 0 127 77 261 171 288 202 339 240 339 252 0 5 -19 30
-42 57 -24 26 -68 79 -98 118 -30 39 -57 71 -60 71 -3 0 -18 -9 -35 -21z m-2
-85 c-7 -2 -19 -2 -25 0 -7 3 -2 5 12 5 14 0 19 -2 13 -5z m122 -123 c3 -5 -1
-10 -10 -10 -9 0 -13 5 -10 10 3 6 8 10 10 10 2 0 7 -4 10 -10z m-263 -33 c-7
-8 -8 -18 -4 -22 4 -5 -1 -5 -11 -2 -10 4 -24 7 -30 7 -7 0 2 8 18 19 33 20
44 19 27 -2z m-141 -100 c-8 -8 -14 -7 -23 2 -10 11 -10 13 0 7 6 -4 12 -2 12
4 0 6 5 8 11 4 8 -4 8 -9 0 -17z m-36 -7 c3 -5 3 -15 -1 -21 -6 -11 -23 6 -24
24 0 10 18 9 25 -3z"/>
<path d="M3065 1568 c-42 -24 -285 -216 -285 -225 0 -7 169 -201 182 -209 5
-3 31 9 59 27 72 46 84 24 14 -26 -78 -56 -78 -66 -9 -136 32 -33 61 -59 64
-59 3 0 34 20 68 45 34 25 66 45 72 45 26 0 4 -29 -55 -74 -38 -28 -62 -53
-58 -60 27 -47 69 -96 82 -96 29 0 115 -46 165 -88 l48 -40 132 103 c187 147
178 133 120 197 -48 53 -143 154 -299 318 -44 47 -123 131 -174 188 -52 56
-97 102 -100 102 -3 0 -15 -6 -26 -12z m33 -162 c21 -22 29 -37 22 -41 -6 -4
-20 5 -31 19 -11 14 -27 33 -35 41 -12 12 -12 15 -2 15 7 0 28 -16 46 -34z
m-173 -46 c-3 -5 -10 -10 -16 -10 -5 0 -9 5 -9 10 0 6 7 10 16 10 8 0 12 -4 9
-10z m55 -50 c-24 -15 -37 -11 -16 5 11 8 22 12 25 9 3 -3 -1 -9 -9 -14z m244
-49 c7 -11 -41 -67 -50 -59 -5 6 32 68 41 68 2 0 6 -4 9 -9z m-139 -210 c3 -5
1 -12 -5 -16 -5 -3 -10 1 -10 9 0 18 6 21 15 7z m315 -35 c-8 -8 -13 -7 -20 4
-12 20 -1 33 16 19 11 -9 12 -15 4 -23z m-45 -6 c-3 -5 -14 -10 -23 -10 -15 0
-15 2 -2 10 20 13 33 13 25 0z"/>
<path d="M8130 1525 c-25 -19 -62 -47 -82 -62 -20 -15 -37 -31 -38 -35 0 -9
150 -178 159 -178 17 0 172 133 169 145 -3 15 -146 165 -157 165 -3 0 -26 -16
-51 -35z m91 -148 c-10 -9 -11 -8 -5 6 3 10 9 15 12 12 3 -3 0 -11 -7 -18z"/>
<path d="M8530 1509 c-103 -80 -120 -99 -118 -130 1 -15 5 -26 8 -24 4 2 27
-17 51 -42 28 -30 37 -43 24 -39 -19 7 -19 6 1 -15 21 -21 22 -21 50 -3 42 27
174 148 174 160 0 8 -113 144 -119 144 -4 0 -35 -23 -71 -51z"/>
<path d="M9195 1481 c-16 -10 -48 -34 -70 -53 l-39 -35 31 -39 c17 -21 44 -51
60 -66 l29 -28 67 46 c59 39 69 43 82 30 20 -20 19 -26 -5 -26 -26 0 -177 -99
-213 -140 -16 -18 -25 -36 -21 -43 21 -34 109 -127 121 -127 8 0 59 35 115 78
56 42 140 107 189 144 48 37 90 72 94 78 6 10 -17 42 -98 135 l-34 39 -75 -56
c-69 -51 -76 -55 -84 -38 -10 22 -102 120 -112 120 -4 0 -20 -8 -37 -19z m-5
-103 c0 -16 -3 -19 -11 -11 -6 6 -8 16 -5 22 11 17 16 13 16 -11z m60 2 c0 -5
-5 -10 -11 -10 -5 0 -7 5 -4 10 3 6 8 10 11 10 2 0 4 -4 4 -10z m236 -37 c-10
-10 -19 5 -10 18 6 11 8 11 12 0 2 -7 1 -15 -2 -18z m39 -33 c-3 -5 -11 -10
-16 -10 -6 0 -7 5 -4 10 3 6 11 10 16 10 6 0 7 -4 4 -10z m-152 -125 c-6 -17
-29 -20 -38 -5 -3 6 3 10 15 10 13 0 19 4 14 12 -4 7 -3 8 4 4 6 -4 9 -13 5
-21z m-37 -32 c-7 -7 -26 7 -26 19 0 6 6 6 15 -2 9 -7 13 -15 11 -17z m-31
-14 c11 -17 -1 -21 -15 -4 -8 9 -8 15 -2 15 6 0 14 -5 17 -11z"/>
<path d="M8784 1426 c-33 -24 -75 -60 -93 -80 l-35 -36 38 -39 c22 -22 51 -45
67 -51 24 -11 33 -8 71 18 24 16 63 47 88 69 l44 40 -53 61 c-30 34 -57 62
-61 62 -4 0 -34 -20 -66 -44z m95 -80 c-3 -3 -11 5 -18 17 -13 21 -12 21 5 5
10 -10 16 -20 13 -22z m-99 -32 c0 -8 -5 -12 -10 -9 -6 4 -8 11 -5 16 9 14 15
11 15 -7z m40 -13 c0 -5 -7 -12 -16 -15 -14 -5 -15 -4 -4 9 14 17 20 19 20 6z"/>
<path d="M7965 1421 c-3 -5 0 -11 5 -13 6 -2 -26 -31 -72 -65 -46 -34 -95 -74
-110 -90 l-28 -29 70 -84 c39 -47 70 -88 70 -92 0 -21 36 -1 133 77 58 47 109
90 112 95 3 5 -24 45 -61 87 -86 100 -112 125 -119 114z m-75 -221 c0 -5 -5
-10 -11 -10 -5 0 -7 5 -4 10 3 6 8 10 11 10 2 0 4 -4 4 -10z m40 -64 c0 -3 -4
-8 -10 -11 -5 -3 -10 -1 -10 4 0 6 5 11 10 11 6 0 10 -2 10 -4z"/>
<path d="M8315 1326 c-38 -29 -78 -63 -89 -74 -19 -21 -18 -22 45 -87 l64 -66
45 32 c59 43 110 90 110 103 0 6 -23 36 -50 66 -27 30 -48 61 -45 68 8 21 -8
13 -80 -42z"/>
<path d="M9024 1357 c-65 -47 -124 -100 -124 -112 0 -7 22 -33 50 -59 64 -60
87 -60 163 -1 31 25 57 49 57 53 0 4 -23 34 -50 67 -28 33 -50 63 -50 67 0 13
-13 8 -46 -15z m28 -149 c-6 -6 -15 -8 -19 -4 -4 4 -1 11 7 16 19 12 27 3 12
-12z"/>
<path d="M7568 1292 c-56 -47 -102 -79 -125 -86 -13 -4 -23 -15 -23 -24 0 -20
56 -92 72 -92 10 0 134 88 171 121 21 19 15 56 -14 88 -26 28 -42 26 -81 -7z"/>
<path d="M2689 1274 c-223 -152 -499 -347 -514 -364 -19 -21 -18 -22 87 -127
98 -98 109 -106 130 -96 13 6 101 72 197 147 95 75 211 164 257 197 46 33 84
65 84 71 0 13 -168 208 -179 208 -5 0 -33 -16 -62 -36z m26 -94 c3 -5 -1 -10
-9 -10 -9 0 -16 -4 -16 -10 0 -15 -17 -12 -23 4 -4 10 -1 13 9 9 7 -3 14 0 14
6 0 14 17 14 25 1z m-320 -220 c0 -7 -10 -19 -21 -27 -19 -12 -22 -12 -27 0
-3 9 1 14 11 13 11 -1 16 5 14 18 -2 11 1 17 10 14 7 -3 13 -10 13 -18z m-80
-50 c3 -5 2 -10 -4 -10 -5 0 -13 5 -16 10 -3 6 -2 10 4 10 5 0 13 -4 16 -10z"/>
<path d="M8565 1245 c-33 -24 -75 -59 -94 -78 -37 -40 -38 -36 31 -117 36 -41
38 -42 61 -27 50 33 177 139 177 148 0 12 -100 119 -109 118 -3 0 -33 -20 -66
-44z m45 -65 c0 -5 -2 -10 -4 -10 -3 0 -8 5 -11 10 -3 6 -1 10 4 10 6 0 11 -4
11 -10z m40 -30 c8 -5 11 -12 7 -16 -4 -4 -15 0 -24 9 -18 18 -8 23 17 7z
m-80 -10 c0 -5 -9 -14 -20 -20 -22 -12 -27 -1 -8 18 14 14 28 16 28 2z"/>
<path d="M6350 1200 c13 -19 28 -36 32 -38 4 -2 8 -10 8 -17 0 -8 33 -54 73
-102 149 -180 265 -319 291 -348 86 -95 177 -209 221 -274 41 -63 50 -84 53
-131 4 -52 2 -60 -27 -93 -18 -20 -77 -68 -131 -107 -54 -38 -102 -75 -105
-80 -30 -48 197 88 278 167 55 53 70 87 63 137 -9 55 -27 83 -132 201 -50 55
-119 134 -154 175 -237 277 -526 591 -470 510z"/>
<path d="M8796 1177 c-38 -29 -75 -56 -82 -61 -9 -8 0 -25 38 -70 28 -34 54
-62 59 -64 4 -2 35 19 68 46 32 27 69 56 80 64 21 15 21 16 -36 76 l-58 61
-69 -52z m57 -91 c4 -10 1 -13 -9 -9 -7 3 -14 9 -14 14 0 14 17 10 23 -5z"/>
<path d="M7660 1159 c-36 -28 -76 -61 -89 -74 l-24 -24 77 -95 c42 -53 80 -96
84 -96 14 0 172 132 172 144 0 18 -47 80 -106 143 l-49 52 -65 -50z m50 -67
c0 -5 -11 -14 -25 -20 -29 -13 -33 -5 -7 14 20 15 32 18 32 6z m58 -76 c-7 -8
-17 -12 -22 -9 -4 3 -2 9 5 14 22 13 31 11 17 -5z m-28 -26 c0 -5 -2 -10 -4
-10 -3 0 -8 5 -11 10 -3 6 -1 10 4 10 6 0 11 -4 11 -10z"/>
<path d="M8104 1150 c-45 -33 -84 -67 -88 -76 -8 -21 4 -41 62 -98 l50 -48 34
23 c19 13 59 44 90 68 l57 45 -29 35 c-16 20 -44 53 -62 73 l-33 38 -81 -60z
m96 -30 c0 -5 -5 -10 -11 -10 -5 0 -7 5 -4 10 3 6 8 10 11 10 2 0 4 -4 4 -10z
m32 -62 c-13 -13 -26 8 -17 30 6 16 7 16 17 -1 7 -13 7 -22 0 -29z m-86 7
c-23 -17 -36 -19 -36 -6 0 11 18 19 40 20 11 0 10 -3 -4 -14z m6 -27 c-6 -6
-15 -8 -19 -4 -4 4 -1 11 7 16 19 12 27 3 12 -12z"/>
<path d="M4680 1163 c1 -10 90 -107 90 -98 0 4 -16 25 -35 48 -19 22 -35 44
-35 49 0 4 -4 8 -10 8 -5 0 -10 -3 -10 -7z"/>
<path d="M8973 1071 c-43 -33 -91 -71 -108 -85 l-30 -24 24 -34 c40 -54 105
-128 114 -128 11 0 237 162 237 170 0 10 -141 160 -150 160 -5 0 -44 -27 -87
-59z m-3 -71 c0 -5 -5 -10 -11 -10 -5 0 -7 5 -4 10 3 6 8 10 11 10 2 0 4 -4 4
-10z m35 -50 c-20 -22 -45 -27 -45 -9 0 6 7 9 15 5 9 -3 20 3 27 14 7 10 14
17 17 15 2 -3 -4 -14 -14 -25z"/>
<path d="M8400 1115 c0 -5 -19 -23 -43 -39 -23 -16 -57 -47 -76 -68 l-34 -39
23 -24 c29 -31 39 -25 16 10 -9 14 -13 25 -9 25 5 0 23 -23 41 -51 18 -27 39
-52 48 -56 16 -6 68 26 127 78 l38 34 -65 70 c-36 39 -65 66 -66 60z m10 -136
c0 -6 -4 -7 -10 -4 -5 3 -10 11 -10 16 0 6 5 7 10 4 6 -3 10 -11 10 -16z m-40
-49 c0 -5 -2 -10 -4 -10 -3 0 -8 5 -11 10 -3 6 -1 10 4 10 6 0 11 -4 11 -10z"/>
<path d="M1799 1062 c-163 -117 -209 -153 -209 -166 0 -19 170 -226 186 -226
28 0 314 214 314 235 0 7 -28 36 -62 63 -35 28 -83 71 -108 96 -24 25 -47 46
-50 45 -3 0 -35 -22 -71 -47z m41 -108 c0 -7 -27 -34 -34 -34 -3 0 -6 9 -6 20
0 13 7 20 20 20 11 0 20 -3 20 -6z m-35 -144 c-3 -5 -10 -10 -16 -10 -5 0 -9
5 -9 10 0 6 7 10 16 10 8 0 12 -4 9 -10z"/>
<path d="M7440 1089 c0 -5 4 -8 9 -4 5 3 13 0 17 -6 4 -8 -3 -9 -26 -4 -21 5
-30 4 -26 -3 7 -12 65 -21 72 -11 2 5 12 6 22 3 9 -3 1 4 -18 15 -40 23 -50
25 -50 10z"/>
<path d="M8615 1033 c-32 -27 -60 -52 -62 -58 -1 -5 19 -34 46 -63 l49 -53 48
27 c60 32 84 53 84 70 0 12 -85 115 -99 122 -4 1 -33 -19 -66 -45z m75 -73 c0
-5 -4 -10 -10 -10 -5 0 -10 5 -10 10 0 6 5 10 10 10 6 0 10 -4 10 -10z"/>
<path d="M2864 1008 c-88 -63 -194 -148 -194 -156 0 -7 92 -99 138 -137 l23
-19 57 55 c31 31 85 79 120 109 l63 53 -68 69 c-37 37 -70 68 -74 68 -3 0 -32
-19 -65 -42z m24 -87 c10 -6 9 -10 -7 -14 -14 -3 -21 0 -21 9 0 16 9 18 28 5z"/>
<path d="M4822 1002 c18 -24 46 -60 61 -80 15 -20 33 -44 40 -52 138 -170 181
-220 188 -220 26 0 3 29 -274 341 -32 35 -37 39 -15 11z"/>
<path d="M7879 967 c-47 -34 -104 -76 -125 -93 l-38 -32 78 -86 c43 -47 80
-86 82 -86 2 0 56 41 119 92 80 64 115 98 115 112 0 12 -26 47 -60 81 -33 32
-60 63 -60 67 0 18 -29 3 -111 -55z m1 -122 c-13 -14 -26 -23 -28 -20 -7 7 29
45 41 45 6 0 0 -11 -13 -25z"/>
<path d="M8178 913 c-32 -24 -58 -49 -58 -55 0 -6 30 -44 68 -85 37 -41 81
-91 98 -111 l31 -36 99 64 c117 76 204 140 204 149 0 3 -21 30 -46 59 l-46 52
-71 -59 c-79 -66 -89 -66 -129 -2 -13 20 -24 29 -26 22 -3 -8 -15 -3 -36 17
l-31 30 -57 -45z m62 -43 c16 -16 25 -32 20 -35 -9 -6 -70 46 -70 59 0 15 23
4 50 -24z m40 -55 c-7 -9 -15 -13 -17 -11 -7 7 7 26 19 26 6 0 6 -6 -2 -15z
m120 -55 c0 -5 -4 -10 -10 -10 -5 0 -10 5 -10 10 0 6 5 10 10 10 6 0 10 -4 10
-10z m-37 -25 c-3 -9 -8 -14 -10 -11 -3 3 -2 9 2 15 9 16 15 13 8 -4z"/>
<path d="M8746 889 c-27 -22 -57 -44 -65 -49 -13 -7 -10 -14 14 -46 48 -64
119 -144 129 -144 9 0 136 99 136 106 0 11 -146 174 -155 174 -5 -1 -32 -19
-59 -41z m34 -34 c7 -9 10 -18 7 -22 -8 -7 -37 15 -37 28 0 14 16 11 30 -6z"/>
<path d="M1443 807 c-135 -96 -242 -180 -243 -191 0 -24 167 -206 190 -206 37
2 350 202 350 225 0 6 -33 50 -74 97 -40 48 -84 100 -97 116 l-24 30 -102 -71z
m42 -47 c-3 -5 -16 -15 -28 -21 -21 -10 -21 -9 2 10 25 23 36 27 26 11z m105
-60 c0 -5 -4 -10 -10 -10 -5 0 -10 5 -10 10 0 6 5 10 10 10 6 0 10 -4 10 -10z
m-180 -24 c0 -3 -4 -8 -10 -11 -5 -3 -10 -1 -10 4 0 6 5 11 10 11 6 0 10 -2
10 -4z m50 -166 c-24 -15 -31 -11 -18 10 9 13 16 16 23 9 7 -7 5 -13 -5 -19z"/>
<path d="M3020 836 c-30 -24 -79 -68 -108 -98 l-53 -55 73 -49 c40 -27 106
-79 146 -116 l73 -68 99 81 c54 44 106 89 116 100 17 19 16 20 -12 50 -35 37
-100 84 -131 93 -25 8 -21 11 -127 -108 -33 -36 -62 -64 -64 -61 -3 2 28 39
67 81 48 52 70 82 66 93 -10 26 -69 100 -80 101 -5 0 -35 -20 -65 -44z m-55
-145 c-3 -6 -11 -11 -16 -11 -5 0 -4 6 3 14 14 16 24 13 13 -3z"/>
<path d="M3628 804 c-110 -81 -168 -132 -168 -147 0 -18 134 -148 147 -142 33
12 273 198 273 211 0 19 -118 154 -135 154 -7 0 -60 -34 -117 -76z"/>
<path d="M2038 809 c-43 -33 -78 -63 -78 -67 0 -5 19 -35 43 -67 24 -33 60
-88 81 -122 22 -35 42 -63 46 -63 4 0 15 10 26 21 10 12 52 46 92 75 39 30 72
61 72 70 0 15 -186 215 -199 213 -3 0 -41 -27 -83 -60z m129 -174 c8 -22 -6
-33 -17 -15 -13 20 -12 30 0 30 6 0 13 -7 17 -15z"/>
<path d="M2544 759 c-44 -34 -109 -81 -146 -105 -38 -24 -68 -47 -68 -51 0
-19 158 -213 173 -213 9 0 150 101 234 168 45 36 53 39 53 22 0 -14 -35 -46
-115 -106 -63 -47 -118 -90 -121 -96 -4 -7 14 -29 42 -52 27 -23 102 -88 167
-146 65 -58 134 -117 152 -133 l33 -27 74 58 c40 32 107 83 148 113 117 86
115 78 34 160 -141 143 -290 264 -386 313 -21 10 -71 50 -112 87 -41 38 -76
69 -79 69 -2 0 -40 -28 -83 -61z m140 -403 c-8 -20 -35 -17 -42 4 -5 13 -3 13
11 1 14 -11 18 -11 23 3 4 9 8 15 10 13 3 -2 2 -12 -2 -21z m466 -86 c0 -5 -2
-10 -4 -10 -3 0 -8 5 -11 10 -3 6 -1 10 4 10 6 0 11 -4 11 -10z m-51 -27 c-12
-15 -12 -16 6 -9 19 7 19 6 3 -11 -23 -23 -49 -3 -28 22 7 8 17 15 22 15 6 0
4 -8 -3 -17z m-156 -97 c4 -10 1 -13 -9 -9 -7 3 -14 0 -14 -7 0 -6 -5 -8 -11
-5 -6 5 -4 12 8 21 10 7 19 14 19 14 1 0 4 -7 7 -14z"/>
<path d="M8040 760 c-36 -28 -82 -63 -102 -78 -21 -15 -37 -31 -37 -37 0 -5
22 -34 50 -63 l49 -54 58 49 c31 27 76 64 100 82 23 18 42 36 42 41 0 5 -21
32 -47 60 l-48 51 -65 -51z"/>
<path d="M8616 770 c-20 -20 -36 -28 -48 -25 -11 4 -28 -3 -45 -19 l-27 -25
36 -45 c19 -25 55 -67 78 -92 39 -43 45 -46 64 -34 36 23 116 93 116 102 0 11
-130 168 -138 168 -4 0 -20 -14 -36 -30z m24 -59 c0 -5 -9 -11 -20 -14 -22 -6
-28 8 -7 16 19 8 27 8 27 -2z m20 -35 c0 -3 -4 -8 -10 -11 -5 -3 -10 -1 -10 4
0 6 5 11 10 11 6 0 10 -2 10 -4z"/>
<path d="M1863 680 c-35 -22 -63 -46 -63 -54 0 -14 109 -164 135 -186 11 -9
21 -7 47 11 59 40 87 70 81 88 -8 20 -125 181 -133 181 -3 0 -33 -18 -67 -40z
m47 -60 c0 -5 -4 -10 -10 -10 -5 0 -10 5 -10 10 0 6 5 10 10 10 6 0 10 -4 10
-10z m28 -44 c-7 -8 -16 -12 -21 -9 -11 7 2 23 19 23 12 0 12 -2 2 -14z"/>
<path d="M8184 650 c-16 -16 -35 -30 -41 -30 -7 0 -13 -3 -13 -7 0 -5 -25 -26
-55 -47 -30 -22 -55 -45 -55 -51 0 -6 15 -29 33 -50 l33 -38 102 78 c59 44
102 84 102 94 0 15 -58 81 -71 81 -3 0 -19 -13 -35 -30z"/>
<path d="M8412 624 c-29 -19 -56 -42 -59 -50 -11 -29 126 -192 149 -178 22 13
82 57 105 77 l22 20 -76 83 c-42 46 -79 84 -82 84 -4 0 -30 -16 -59 -36z m128
-129 c-7 -8 -16 -15 -21 -15 -5 0 -1 9 8 20 9 11 19 17 21 15 3 -3 -1 -11 -8
-20z"/>
<path d="M3309 538 c-62 -51 -114 -98 -116 -105 -5 -15 74 -103 102 -113 11
-4 29 -3 40 3 37 19 225 161 225 170 0 11 -121 137 -131 137 -5 0 -59 -42
-120 -92z m121 -33 c-7 -9 -15 -13 -18 -10 -3 2 1 11 8 20 7 9 15 13 18 10 3
-2 -1 -11 -8 -20z m-76 -80 c3 -8 1 -15 -4 -15 -6 0 -10 7 -10 15 0 8 2 15 4
15 2 0 6 -7 10 -15z"/>
<path d="M1668 532 c-59 -42 -108 -80 -108 -83 0 -9 122 -159 129 -159 3 0 33
23 66 52 33 28 78 62 100 77 22 14 42 26 44 27 2 2 -16 27 -40 57 -24 30 -53
66 -64 80 l-20 26 -107 -77z"/>
<path d="M4295 553 l-50 -45 43 23 c47 25 66 43 60 58 -1 5 -25 -11 -53 -36z"/>
<path d="M1065 526 c-49 -35 -106 -78 -125 -94 -42 -35 -40 -39 50 -149 101
-122 89 -121 232 -13 68 51 124 98 125 104 2 6 -41 58 -95 114 l-97 104 -90
-66z m95 -86 c0 -5 -4 -10 -10 -10 -5 0 -10 5 -10 10 0 6 5 10 10 10 6 0 10
-4 10 -10z m-22 -145 c-3 -3 -9 2 -12 12 -6 14 -5 15 5 6 7 -7 10 -15 7 -18z"/>
<path d="M2219 523 c-41 -29 -75 -57 -76 -61 -4 -10 167 -230 179 -231 6 -1
108 79 147 115 15 14 -4 40 -130 180 l-46 51 -74 -54z m81 -109 c0 -8 -4 -12
-10 -9 -5 3 -10 10 -10 16 0 5 5 9 10 9 6 0 10 -7 10 -16z"/>
<path d="M8203 480 c-51 -39 -93 -75 -93 -80 0 -17 151 -180 167 -180 15 0
193 127 193 137 0 14 -157 193 -169 193 -3 0 -48 -32 -98 -70z"/>
<path d="M2027 444 l-57 -36 22 -36 c63 -106 90 -142 141 -190 64 -59 71 -59
134 1 39 37 39 38 -63 160 -41 48 -81 99 -90 112 -9 14 -19 25 -23 25 -3 0
-32 -17 -64 -36z m63 -93 c0 -6 -4 -13 -10 -16 -5 -3 -10 1 -10 9 0 9 5 16 10
16 6 0 10 -4 10 -9z m140 -105 c0 -2 -7 -7 -16 -10 -8 -3 -12 -2 -9 4 6 10 25
14 25 6z m-40 -21 c0 -8 -4 -15 -10 -15 -5 0 -10 7 -10 15 0 8 5 15 10 15 6 0
10 -7 10 -15z"/>
<path d="M1419 370 c-52 -33 -109 -76 -128 -96 l-33 -36 43 -45 c24 -24 70
-67 101 -95 58 -50 58 -50 81 -31 13 10 65 49 115 86 51 38 92 72 92 76 0 10
-161 201 -170 201 -3 0 -49 -27 -101 -60z m31 -79 c0 -5 -7 -14 -15 -21 -16
-14 -18 -10 -9 14 6 17 24 22 24 7z"/>
<path d="M1840 379 c-36 -27 -78 -62 -93 -77 -25 -25 -27 -31 -17 -58 13 -33
101 -128 109 -116 4 4 31 27 61 51 30 25 69 58 87 74 l31 29 -30 52 c-30 51
-67 96 -77 96 -3 -1 -35 -23 -71 -51z m5 -119 c-3 -5 -11 -10 -16 -10 -6 0 -7
5 -4 10 3 6 11 10 16 10 6 0 7 -4 4 -10z"/>
<path d="M777 314 c-42 -31 -77 -62 -77 -69 0 -13 141 -187 173 -214 15 -12
22 -10 55 11 20 14 57 43 82 65 l44 40 -58 74 c-63 79 -127 149 -136 149 -3 0
-40 -25 -83 -56z m93 -95 c0 -5 -4 -8 -9 -4 -6 3 -14 -3 -20 -12 -6 -10 -11
-13 -11 -7 0 12 20 34 32 34 4 0 8 -5 8 -11z m56 -111 c-9 -5 -22 -7 -29 -4
-7 2 -4 5 6 5 9 1 17 6 17 12 0 5 5 7 11 3 8 -5 6 -10 -5 -16z"/>
<path d="M2452 286 l-61 -54 22 -33 c12 -18 66 -70 121 -116 74 -63 106 -83
128 -83 20 0 27 4 22 12 -5 8 2 9 27 4 19 -4 70 -9 114 -12 l80 -5 -75 71
c-71 68 -306 270 -314 270 -2 0 -31 -24 -64 -54z"/>
<path d="M5440 243 c14 -25 204 -222 193 -202 -16 33 -178 218 -191 218 -9 1
-10 -4 -2 -16z"/>
<path d="M1980 209 c-48 -33 -120 -99 -120 -110 0 -3 16 -28 36 -54 l37 -47
61 4 c68 4 150 39 167 70 9 17 1 30 -58 93 -37 40 -70 73 -73 73 -3 1 -25 -12
-50 -29z m10 -139 c0 -5 -4 -10 -9 -10 -6 0 -13 5 -16 10 -3 6 1 10 9 10 9 0
16 -4 16 -10z"/>
<path d="M554 146 c-55 -41 -118 -91 -139 -110 l-40 -35 58 -1 c33 0 71 7 87
15 26 14 29 14 24 0 -7 -16 11 -21 21 -5 4 6 13 5 25 -3 16 -9 29 -8 69 6 60
21 67 21 51 1 -12 -13 -7 -15 40 -12 29 2 55 8 57 14 3 10 -57 93 -124 172
l-29 34 -100 -76z"/>
<path d="M1200 203 c-37 -25 -170 -133 -209 -170 l-34 -32 242 1 c132 0 241 3
241 7 0 7 -206 211 -213 211 -1 0 -14 -8 -27 -17z m-10 -103 c-20 -13 -33 -13
-25 0 3 6 14 10 23 10 15 0 15 -2 2 -10z"/>
<path d="M2310 174 c-25 -19 -62 -54 -82 -77 -35 -39 -36 -42 -18 -49 28 -10
25 -21 -4 -14 -16 4 -29 0 -40 -13 -16 -18 -10 -18 204 -18 121 0 220 3 220 6
0 4 -28 28 -63 53 -35 26 -84 69 -110 97 -26 28 -51 51 -55 50 -4 0 -27 -16
-52 -35z m50 -64 c0 -5 -4 -10 -10 -10 -5 0 -10 5 -10 10 0 6 5 10 10 10 6 0
10 -4 10 -10z m110 -75 c11 -13 8 -15 -21 -15 -32 1 -33 1 -15 15 24 18 21 18
36 0z"/>
<path d="M1647 150 c-98 -66 -106 -80 -67 -117 30 -28 30 -28 168 -28 l139 0
-70 85 c-39 47 -75 91 -82 98 -9 11 -27 3 -88 -38z"/>
<path d="M3648 70 c-64 -47 -101 -84 -63 -63 10 6 26 8 37 5 14 -3 17 -1 11
14 -5 14 -3 16 11 11 11 -4 15 -3 11 4 -8 12 26 40 39 32 5 -4 6 -1 2 5 -3 6
2 15 11 21 10 5 16 12 13 15 -3 3 -35 -17 -72 -44z"/>
<path d="M9990 73 c-28 -12 -44 -33 -31 -46 8 -8 11 -8 11 1 0 7 11 18 25 24
38 17 33 36 -5 21z"/>
<path d="M3670 50 c0 -5 5 -10 10 -10 6 0 10 5 10 10 0 6 -4 10 -10 10 -5 0
-10 -4 -10 -10z"/>
<path d="M1524 15 c22 -17 56 -20 56 -6 0 11 -25 21 -53 21 -22 -1 -22 -1 -3
-15z"/>
</g>
</svg>
